<?xml version="1.0" encoding="utf-8"?>
<!-- Generator: Adobe Illustrator 26.0.1, SVG Export Plug-In . SVG Version: 6.00 Build 0)  -->
<svg version="1.1" id="Layer_1" xmlns="http://www.w3.org/2000/svg" xmlns:xlink="http://www.w3.org/1999/xlink" x="0px" y="0px"
	 viewBox="0 0 197.62 197.62" style="enable-background:new 0 0 197.62 197.62;" xml:space="preserve">
<style type="text/css">
	.st0{fill:#9D91F9;}
	.st1{fill:url(#SVGID_1_);}
	.st2{fill:#FFFFFF;}
	.st3{fill:url(#SVGID_00000057123573724460542230000012889627620207437979_);}
	.st4{fill:#4733AC;}
	.st5{fill:#7572EA;}
	.st6{fill:#ECECEC;}
	.st7{fill:none;stroke:#9D91F9;stroke-width:80;stroke-miterlimit:10;}
	.st8{fill:url(#SVGID_00000010292163990576925630000001157483462489614777_);}
	.st9{fill:url(#SVGID_00000093856836139885279330000007383736463293945527_);}
	.st10{fill:#606060;}
	.st11{fill:none;stroke:#9D91F9;stroke-width:80;stroke-linecap:round;stroke-linejoin:round;stroke-miterlimit:10;}
	.st12{fill:url(#SVGID_00000138546774403534633920000013530087806387305111_);}
	.st13{fill:#FFFFFF;stroke:#231F20;stroke-miterlimit:10;}
	.st14{fill:none;stroke:#231F20;stroke-width:40;stroke-miterlimit:10;}
	.st15{fill:#FFFFFF;stroke:#231F20;stroke-width:40;stroke-miterlimit:10;}
	.st16{fill:#231F20;}
	.st17{fill:none;}
	.st18{fill:url(#SVGID_00000132081673253130217960000016964041706408886921_);}
	.st19{fill:#282828;}
	.st20{fill:url(#SVGID_00000150061926531988715460000013566710806562825382_);}
	.st21{fill:none;stroke:#FFFFFF;stroke-width:12;stroke-miterlimit:10;}
	.st22{fill:url(#SVGID_00000124879167977762689350000002043301618590742919_);}
	.st23{fill:none;stroke:#FFFFFF;stroke-width:14;stroke-linecap:round;stroke-miterlimit:10;}
	.st24{fill:url(#SVGID_00000082350898252570434820000013906919385320969359_);}
</style>
<g>
	<linearGradient id="SVGID_1_" gradientUnits="userSpaceOnUse" x1="-11.2181" y1="-3.1091" x2="187.9308" y2="182.2525">
		<stop  offset="0" style="stop-color:#4733AC"/>
		<stop  offset="1" style="stop-color:#7572EA"/>
	</linearGradient>
	<circle class="st1" cx="98.28" cy="98.81" r="96"/>
	<path class="st2" d="M145.89,76.88v67.61c0,2.74-2.73,4.96-6.1,4.96h-29.46c-3.37,0-6.1-2.22-6.1-4.96v-20.07
		c0-2.67-2.67-4.84-5.95-4.84c-1.64,0-3.13,0.54-4.21,1.42l-1.75,1.41l-31.31,25.45c-0.13,0.11-0.26,0.23-0.4,0.33
		c-1.05,0.78-2.47,1.26-4,1.26c-3.29,0-5.95-2.17-5.95-4.84V62.39c0-1.25,0.59-2.4,1.55-3.25c0.13-0.11,0.26-0.23,0.4-0.33
		l29.24-23.78l0.65-0.53c1.04-0.73,2.39-1.17,3.87-1.17c3.29,0,5.95,2.17,5.95,4.84v58.94c0,2.67,2.67,4.84,5.95,4.84
		c1.4,0,2.7-0.4,3.72-1.06c0.34-0.22,0.65-0.47,0.93-0.75l1.31-1.06l31.31-25.45l0.4-0.33c1.05-0.78,2.47-1.26,4-1.26
		C143.23,72.04,145.89,74.21,145.89,76.88z"/>
</g>
</svg>
