<svg width="1099" height="621" viewBox="0 0 1099 621" fill="none" xmlns="http://www.w3.org/2000/svg">
<path d="M1096.18 435.14L991 540.31" stroke="#7572EA" stroke-miterlimit="10"/>
<path d="M1071.14 406L1040.18 436.96" stroke="#7572EA" stroke-miterlimit="10"/>
<path d="M1098.45 501.16L1042.79 556.82" stroke="#7572EA" stroke-miterlimit="10"/>
<path d="M1059.75 482.95L1019.92 522.79" stroke="#7572EA" stroke-miterlimit="10"/>
<path d="M916.18 342.14L811 447.31" stroke="#7572EA" stroke-miterlimit="10"/>
<path d="M891.14 313L860.18 343.96" stroke="#7572EA" stroke-miterlimit="10"/>
<path d="M918.45 408.16L862.79 463.82" stroke="#7572EA" stroke-miterlimit="10"/>
<path d="M879.75 389.95L839.92 429.79" stroke="#7572EA" stroke-miterlimit="10"/>
<path d="M633.18 30.1401L528 135.31" stroke="#7572EA" stroke-miterlimit="10"/>
<path d="M608.14 1L577.18 31.96" stroke="#7572EA" stroke-miterlimit="10"/>
<path d="M635.45 96.1602L579.79 151.82" stroke="#7572EA" stroke-miterlimit="10"/>
<path d="M596.75 77.9502L556.92 117.79" stroke="#7572EA" stroke-miterlimit="10"/>
<path d="M1096.18 185.14L991 290.31" stroke="#7572EA" stroke-miterlimit="10"/>
<path d="M1071.14 156L1040.18 186.96" stroke="#7572EA" stroke-miterlimit="10"/>
<path d="M1098.45 251.16L1042.79 306.82" stroke="#7572EA" stroke-miterlimit="10"/>
<path d="M1059.75 232.95L1019.92 272.79" stroke="#7572EA" stroke-miterlimit="10"/>
<path d="M687.18 284.14L582 389.31" stroke="#7572EA" stroke-miterlimit="10"/>
<path d="M662.14 255L631.18 285.96" stroke="#7572EA" stroke-miterlimit="10"/>
<path d="M689.45 350.16L633.79 405.82" stroke="#7572EA" stroke-miterlimit="10"/>
<path d="M650.75 331.95L610.92 371.79" stroke="#7572EA" stroke-miterlimit="10"/>
<path d="M843.18 99.1401L738 204.31" stroke="#7572EA" stroke-miterlimit="10"/>
<path d="M818.14 70L787.18 100.96" stroke="#7572EA" stroke-miterlimit="10"/>
<path d="M845.45 165.16L789.79 220.82" stroke="#7572EA" stroke-miterlimit="10"/>
<path d="M806.75 146.95L766.92 186.79" stroke="#7572EA" stroke-miterlimit="10"/>
<path d="M765.18 519.14L660 624.31" stroke="#7572EA" stroke-miterlimit="10"/>
<path d="M740.14 490L709.18 520.96" stroke="#7572EA" stroke-miterlimit="10"/>
<path d="M767.45 585.16L711.79 640.82" stroke="#7572EA" stroke-miterlimit="10"/>
<path d="M728.75 566.95L688.92 606.79" stroke="#7572EA" stroke-miterlimit="10"/>
<path d="M458.18 194.14L353 299.31" stroke="#7572EA" stroke-miterlimit="10"/>
<path d="M433.14 165L402.18 195.96" stroke="#7572EA" stroke-miterlimit="10"/>
<path d="M460.45 260.16L404.79 315.82" stroke="#7572EA" stroke-miterlimit="10"/>
<path d="M421.75 241.95L381.92 281.79" stroke="#7572EA" stroke-miterlimit="10"/>
<path d="M282.18 357.14L177 462.31" stroke="#7572EA" stroke-miterlimit="10"/>
<path d="M257.14 328L226.18 358.96" stroke="#7572EA" stroke-miterlimit="10"/>
<path d="M284.45 423.16L228.79 478.82" stroke="#7572EA" stroke-miterlimit="10"/>
<path d="M245.75 404.95L205.92 444.79" stroke="#7572EA" stroke-miterlimit="10"/>
<path d="M106.18 548.14L1 653.31" stroke="#7572EA" stroke-miterlimit="10"/>
<path d="M81.14 519L50.18 549.96" stroke="#7572EA" stroke-miterlimit="10"/>
<path d="M108.45 614.16L52.79 669.82" stroke="#7572EA" stroke-miterlimit="10"/>
<path d="M69.75 595.95L29.92 635.79" stroke="#7572EA" stroke-miterlimit="10"/>
<path d="M511.18 459.14L406 564.31" stroke="#7572EA" stroke-miterlimit="10"/>
<path d="M486.14 430L455.18 460.96" stroke="#7572EA" stroke-miterlimit="10"/>
<path d="M513.45 525.16L457.79 580.82" stroke="#7572EA" stroke-miterlimit="10"/>
<path d="M474.75 506.95L434.92 546.79" stroke="#7572EA" stroke-miterlimit="10"/>
</svg>
