<svg width="210" height="30" viewBox="0 0 210 30" fill="none" xmlns="http://www.w3.org/2000/svg">
<path d="M10.2976 12.0447C10.174 11.657 10.0078 11.3097 9.79901 11.0028C9.59446 10.6918 9.34943 10.4276 9.06392 10.2102C8.77841 9.98864 8.45241 9.82031 8.08594 9.70526C7.72372 9.5902 7.32528 9.53267 6.89062 9.53267C6.15341 9.53267 5.48864 9.7223 4.89631 10.1016C4.30398 10.4808 3.83523 11.0369 3.49006 11.7699C3.14915 12.4986 2.97869 13.3913 2.97869 14.4482C2.97869 15.5092 3.15128 16.4062 3.49645 17.1392C3.84162 17.8722 4.31463 18.4283 4.91548 18.8075C5.51634 19.1868 6.20028 19.3764 6.96733 19.3764C7.67898 19.3764 8.29901 19.2315 8.82741 18.9418C9.36009 18.652 9.77131 18.2429 10.0611 17.7145C10.3551 17.1818 10.5021 16.5554 10.5021 15.8352L11.0135 15.9311H7.26776V14.3011H12.4134V15.7905C12.4134 16.8899 12.179 17.8445 11.7102 18.6541C11.2457 19.4595 10.6023 20.0817 9.77983 20.5206C8.96165 20.9595 8.02415 21.179 6.96733 21.179C5.78267 21.179 4.7429 20.9062 3.84801 20.3608C2.95739 19.8153 2.26278 19.0419 1.7642 18.0405C1.26563 17.0348 1.01634 15.8416 1.01634 14.4609C1.01634 13.4169 1.16122 12.4794 1.45099 11.6484C1.74077 10.8175 2.14773 10.1122 2.67188 9.53267C3.20028 8.94886 3.82031 8.50355 4.53196 8.19673C5.24787 7.88565 6.02983 7.73011 6.87784 7.73011C7.58523 7.73011 8.24361 7.83452 8.85298 8.04332C9.46662 8.25213 10.0121 8.54829 10.4893 8.93182C10.9709 9.31534 11.3693 9.77131 11.6847 10.2997C12 10.8239 12.2131 11.4055 12.3239 12.0447H10.2976ZM19.8988 21.1982C18.9314 21.1982 18.0983 20.9915 17.3995 20.5781C16.7049 20.1605 16.1679 19.5746 15.7887 18.8203C15.4137 18.0618 15.2262 17.1733 15.2262 16.1548C15.2262 15.1491 15.4137 14.2628 15.7887 13.4957C16.1679 12.7287 16.6963 12.13 17.3739 11.6996C18.0557 11.2692 18.8526 11.054 19.7645 11.054C20.3185 11.054 20.8554 11.1456 21.3753 11.3288C21.8952 11.5121 22.3618 11.7997 22.7752 12.1918C23.1885 12.5838 23.5145 13.093 23.7532 13.7195C23.9918 14.3416 24.1111 15.098 24.1111 15.9886V16.6662H16.3064V15.2344H22.2382C22.2382 14.7315 22.136 14.2862 21.9314 13.8984C21.7269 13.5064 21.4392 13.1974 21.0685 12.9716C20.702 12.7457 20.2716 12.6328 19.7773 12.6328C19.2404 12.6328 18.7716 12.7649 18.3711 13.0291C17.9748 13.2891 17.6679 13.63 17.4506 14.0518C17.2375 14.4695 17.131 14.9233 17.131 15.4134V16.532C17.131 17.1882 17.2461 17.7464 17.4762 18.2067C17.7105 18.6669 18.0365 19.0185 18.4542 19.2614C18.8718 19.5 19.3597 19.6193 19.9179 19.6193C20.2801 19.6193 20.6104 19.5682 20.9087 19.4659C21.207 19.3594 21.4648 19.2017 21.6821 18.9929C21.8995 18.7841 22.0657 18.5263 22.1807 18.2195L23.9897 18.5455C23.8448 19.0781 23.5848 19.5447 23.2098 19.9453C22.8391 20.3416 22.3725 20.6506 21.81 20.8722C21.2517 21.0895 20.6147 21.1982 19.8988 21.1982ZM31.7148 11.1818V12.7159H26.3518V11.1818H31.7148ZM27.7901 8.82955H29.7013V18.1172C29.7013 18.4879 29.7567 18.767 29.8675 18.9545C29.9783 19.1378 30.121 19.2635 30.2957 19.3317C30.4747 19.3956 30.6686 19.4276 30.8774 19.4276C31.0308 19.4276 31.1651 19.4169 31.2801 19.3956C31.3952 19.3743 31.4847 19.3572 31.5486 19.3445L31.8937 20.9233C31.783 20.9659 31.6253 21.0085 31.4207 21.0511C31.2162 21.098 30.9605 21.1236 30.6537 21.1278C30.1509 21.1364 29.6821 21.0469 29.2474 20.8594C28.8128 20.6719 28.4612 20.3821 28.1928 19.9901C27.9243 19.598 27.7901 19.1058 27.7901 18.5135V8.82955ZM47.6859 11.348C47.6178 10.7429 47.3365 10.2741 46.8422 9.94176C46.3479 9.60511 45.7257 9.43679 44.9757 9.43679C44.4388 9.43679 43.9743 9.52202 43.5822 9.69247C43.1902 9.85866 42.8855 10.0888 42.6682 10.3828C42.4551 10.6726 42.3486 11.0028 42.3486 11.3736C42.3486 11.6847 42.421 11.9531 42.5659 12.179C42.7151 12.4048 42.9089 12.5945 43.1476 12.7479C43.3905 12.897 43.6504 13.0227 43.9274 13.125C44.2044 13.223 44.4707 13.304 44.7264 13.3679L46.0048 13.7003C46.4224 13.8026 46.8507 13.9411 47.2896 14.1158C47.7286 14.2905 48.1355 14.5206 48.5105 14.8061C48.8855 15.0916 49.1881 15.4453 49.4182 15.8672C49.6526 16.2891 49.7697 16.794 49.7697 17.3821C49.7697 18.1236 49.578 18.782 49.1945 19.3572C48.8152 19.9325 48.2634 20.3864 47.5389 20.7188C46.8187 21.0511 45.9473 21.2173 44.9246 21.2173C43.9445 21.2173 43.0964 21.0618 42.3805 20.7507C41.6646 20.4396 41.1043 19.9986 40.6994 19.4276C40.2946 18.8523 40.0709 18.1705 40.0283 17.3821H42.0098C42.0482 17.8551 42.2016 18.2493 42.47 18.5646C42.7428 18.8757 43.0901 19.108 43.5119 19.2614C43.9381 19.4105 44.4047 19.4851 44.9118 19.4851C45.47 19.4851 45.9665 19.3977 46.4011 19.223C46.8401 19.044 47.1852 18.7969 47.4366 18.4815C47.6881 18.1619 47.8138 17.7891 47.8138 17.3629C47.8138 16.9751 47.703 16.6577 47.4814 16.4105C47.2641 16.1634 46.9679 15.9588 46.5929 15.7969C46.2222 15.6349 45.8024 15.4922 45.3337 15.3686L43.7868 14.9467C42.7385 14.6612 41.9075 14.2415 41.2939 13.6875C40.6845 13.1335 40.3798 12.4006 40.3798 11.4886C40.3798 10.7344 40.5844 10.076 40.9935 9.51349C41.4026 8.95099 41.9565 8.5142 42.6554 8.20312C43.3543 7.88778 44.1426 7.73011 45.0205 7.73011C45.9068 7.73011 46.6888 7.88565 47.3663 8.19673C48.0482 8.50781 48.5851 8.93608 48.9771 9.48153C49.3692 10.0227 49.5737 10.6449 49.5908 11.348H47.6859ZM57.4597 11.1818V12.7159H52.0968V11.1818H57.4597ZM53.535 8.82955H55.4462V18.1172C55.4462 18.4879 55.5016 18.767 55.6124 18.9545C55.7232 19.1378 55.8659 19.2635 56.0407 19.3317C56.2196 19.3956 56.4135 19.4276 56.6223 19.4276C56.7757 19.4276 56.91 19.4169 57.025 19.3956C57.1401 19.3743 57.2296 19.3572 57.2935 19.3445L57.6387 20.9233C57.5279 20.9659 57.3702 21.0085 57.1657 21.0511C56.9611 21.098 56.7054 21.1236 56.3986 21.1278C55.8958 21.1364 55.427 21.0469 54.9924 20.8594C54.5577 20.6719 54.2061 20.3821 53.9377 19.9901C53.6692 19.598 53.535 19.1058 53.535 18.5135V8.82955ZM63.3311 21.2173C62.709 21.2173 62.1465 21.1023 61.6436 20.8722C61.1408 20.6378 60.7423 20.299 60.4483 19.8558C60.1585 19.4126 60.0136 18.8693 60.0136 18.2259C60.0136 17.6719 60.1202 17.2159 60.3332 16.858C60.5463 16.5 60.834 16.2166 61.1962 16.0078C61.5584 15.799 61.9632 15.6413 62.4107 15.5348C62.8581 15.4283 63.3141 15.3473 63.7786 15.2919C64.3666 15.2237 64.8439 15.1683 65.2104 15.1257C65.5768 15.0788 65.8432 15.0043 66.0094 14.902C66.1756 14.7997 66.2587 14.6335 66.2587 14.4034V14.3587C66.2587 13.8004 66.101 13.3679 65.7857 13.0611C65.4746 12.7543 65.0101 12.6009 64.3922 12.6009C63.7487 12.6009 63.2416 12.7436 62.8709 13.0291C62.5044 13.3104 62.2509 13.6236 62.1102 13.9688L60.3141 13.5597C60.5271 12.9631 60.8382 12.4815 61.2473 12.1151C61.6607 11.7443 62.1358 11.4759 62.6727 11.3097C63.2097 11.1392 63.7743 11.054 64.3666 11.054C64.7587 11.054 65.1741 11.1009 65.6131 11.1946C66.0563 11.2841 66.4696 11.4503 66.8531 11.6932C67.2409 11.9361 67.5584 12.2834 67.8055 12.7351C68.0527 13.1825 68.1763 13.7642 68.1763 14.4801V21H66.3098V19.6577H66.2331C66.1095 19.9048 65.9241 20.1477 65.677 20.3864C65.4298 20.625 65.1124 20.8232 64.7246 20.9808C64.3368 21.1385 63.8723 21.2173 63.3311 21.2173ZM63.7466 19.6832C64.275 19.6832 64.7267 19.5788 65.1017 19.37C65.481 19.1612 65.7686 18.8885 65.9646 18.5518C66.1649 18.2109 66.2651 17.8466 66.2651 17.4588V16.1932C66.1969 16.2614 66.0648 16.3253 65.8688 16.3849C65.677 16.4403 65.4575 16.4893 65.2104 16.532C64.9632 16.5703 64.7224 16.6065 64.4881 16.6406C64.2537 16.6705 64.0577 16.696 63.9 16.7173C63.5293 16.7642 63.1905 16.843 62.8837 16.9538C62.5811 17.0646 62.3382 17.2244 62.155 17.4332C61.976 17.6378 61.8865 17.9105 61.8865 18.2514C61.8865 18.7244 62.0612 19.0824 62.4107 19.3253C62.7601 19.5639 63.2054 19.6832 63.7466 19.6832ZM71.6219 21V11.1818H73.4692V12.7415H73.5715C73.7505 12.2131 74.0658 11.7976 74.5175 11.495C74.9735 11.1882 75.4891 11.0348 76.0644 11.0348C76.1837 11.0348 76.3243 11.0391 76.4863 11.0476C76.6525 11.0561 76.7824 11.0668 76.8762 11.0795V12.9077C76.7995 12.8864 76.6631 12.8629 76.4671 12.8374C76.2711 12.8075 76.075 12.7926 75.879 12.7926C75.4273 12.7926 75.0246 12.8885 74.6709 13.0803C74.3215 13.2678 74.0445 13.5298 73.84 13.8665C73.6354 14.1989 73.5331 14.5781 73.5331 15.0043V21H71.6219ZM84.5933 11.1818V12.7159H79.2304V11.1818H84.5933ZM80.6686 8.82955H82.5798V18.1172C82.5798 18.4879 82.6352 18.767 82.746 18.9545C82.8568 19.1378 82.9995 19.2635 83.1743 19.3317C83.3532 19.3956 83.5471 19.4276 83.7559 19.4276C83.9093 19.4276 84.0436 19.4169 84.1586 19.3956C84.2737 19.3743 84.3632 19.3572 84.4271 19.3445L84.7723 20.9233C84.6615 20.9659 84.5038 21.0085 84.2993 21.0511C84.0947 21.098 83.839 21.1236 83.5322 21.1278C83.0294 21.1364 82.5606 21.0469 82.126 20.8594C81.6913 20.6719 81.3397 20.3821 81.0713 19.9901C80.8028 19.598 80.6686 19.1058 80.6686 18.5135V8.82955ZM91.7335 21.1982C90.7662 21.1982 89.9331 20.9915 89.2342 20.5781C88.5396 20.1605 88.0027 19.5746 87.6234 18.8203C87.2484 18.0618 87.0609 17.1733 87.0609 16.1548C87.0609 15.1491 87.2484 14.2628 87.6234 13.4957C88.0027 12.7287 88.5311 12.13 89.2087 11.6996C89.8905 11.2692 90.6874 11.054 91.5993 11.054C92.1533 11.054 92.6902 11.1456 93.2101 11.3288C93.73 11.5121 94.1966 11.7997 94.6099 12.1918C95.0233 12.5838 95.3493 13.093 95.5879 13.7195C95.8266 14.3416 95.9459 15.098 95.9459 15.9886V16.6662H88.1412V15.2344H94.073C94.073 14.7315 93.9707 14.2862 93.7662 13.8984C93.5616 13.5064 93.274 13.1974 92.9033 12.9716C92.5368 12.7457 92.1064 12.6328 91.6121 12.6328C91.0751 12.6328 90.6064 12.7649 90.2058 13.0291C89.8095 13.2891 89.5027 13.63 89.2854 14.0518C89.0723 14.4695 88.9658 14.9233 88.9658 15.4134V16.532C88.9658 17.1882 89.0808 17.7464 89.3109 18.2067C89.5453 18.6669 89.8713 19.0185 90.2889 19.2614C90.7065 19.5 91.1945 19.6193 91.7527 19.6193C92.1149 19.6193 92.4452 19.5682 92.7435 19.4659C93.0418 19.3594 93.2996 19.2017 93.5169 18.9929C93.7342 18.7841 93.9004 18.5263 94.0155 18.2195L95.8244 18.5455C95.6795 19.0781 95.4196 19.5447 95.0446 19.9453C94.6739 20.3416 94.2072 20.6506 93.6447 20.8722C93.0865 21.0895 92.4494 21.1982 91.7335 21.1982ZM102.642 21.1918C101.849 21.1918 101.142 20.9893 100.52 20.5845C99.9018 20.1754 99.416 19.5937 99.0623 18.8395C98.7129 18.081 98.5382 17.1712 98.5382 16.1101C98.5382 15.049 98.715 14.1413 99.0687 13.3871C99.4267 12.6328 99.9167 12.0554 100.539 11.6548C101.161 11.2543 101.866 11.054 102.655 11.054C103.264 11.054 103.754 11.1562 104.125 11.3608C104.5 11.5611 104.79 11.7955 104.994 12.0639C105.203 12.3324 105.365 12.5689 105.48 12.7734H105.595V7.90909H107.506V21H105.64V19.4723H105.48C105.365 19.6811 105.199 19.9197 104.981 20.1882C104.768 20.4567 104.474 20.6911 104.099 20.8913C103.724 21.0916 103.238 21.1918 102.642 21.1918ZM103.064 19.5618C103.613 19.5618 104.078 19.4169 104.457 19.1271C104.841 18.8331 105.131 18.4261 105.327 17.9062C105.527 17.3864 105.627 16.7812 105.627 16.0909C105.627 15.4091 105.529 14.8125 105.333 14.3011C105.137 13.7898 104.849 13.3913 104.47 13.1058C104.091 12.8203 103.622 12.6776 103.064 12.6776C102.488 12.6776 102.009 12.8267 101.626 13.125C101.242 13.4233 100.952 13.8303 100.756 14.3459C100.564 14.8615 100.469 15.4432 100.469 16.0909C100.469 16.7472 100.567 17.3374 100.763 17.8615C100.959 18.3857 101.248 18.8011 101.632 19.108C102.02 19.4105 102.497 19.5618 103.064 19.5618Z" fill="#4733AC"/>
<path d="M193 10.5999L199.52 14.2221C200.29 14.6499 200.29 15.3499 199.52 15.7777L193 19.3999" stroke="#4733AC" stroke-width="1.5" stroke-miterlimit="10" stroke-linecap="square"/>
<rect x="181" y="1" width="28" height="28" rx="14" stroke="#4733AC" stroke-width="2"/>
<path d="M126.151 14L196.849 14C198.572 14 200 14.4533 200 15C200 15.5467 198.572 16 196.849 16L126.151 16C124.428 16 123 15.5467 123 15C123 14.4533 124.428 14 126.151 14Z" fill="#4733AC"/>
</svg>
