<svg width="30" height="30" viewBox="0 0 30 30" fill="none" xmlns="http://www.w3.org/2000/svg">
<path d="M7.77263 23.1818H4.29538C2.34538 23.1818 1.36353 22.2 1.36353 20.25V4.2955C1.36353 2.3455 2.34538 1.36365 4.29538 1.36365H10.159C12.109 1.36365 13.0908 2.3455 13.0908 4.2955V6.81819" stroke="#4733AC" stroke-width="1.5" stroke-miterlimit="10" stroke-linecap="round" stroke-linejoin="round"/>
<path d="M22.3227 10.1182V25.3364C22.3227 27.5318 21.2318 28.6364 19.0364 28.6364H11.0727C8.87723 28.6364 7.77271 27.5318 7.77271 25.3364V10.1182C7.77271 7.9227 8.87723 6.81818 11.0727 6.81818H19.0364C21.2318 6.81818 22.3227 7.9227 22.3227 10.1182Z" stroke="#4733AC" stroke-width="1.5" stroke-miterlimit="10" stroke-linecap="round" stroke-linejoin="round"/>
<path d="M16.9089 6.81819V4.2955C16.9089 2.3455 17.8907 1.36365 19.8407 1.36365H25.7043C27.6543 1.36365 28.6362 2.3455 28.6362 4.2955V20.25C28.6362 22.2 27.6543 23.1818 25.7043 23.1818H22.3225" stroke="#4733AC" stroke-width="1.5" stroke-miterlimit="10" stroke-linecap="round" stroke-linejoin="round"/>
<path d="M12.2727 13.6364H17.7273" stroke="#4733AC" stroke-width="1.5" stroke-miterlimit="10" stroke-linecap="round" stroke-linejoin="round"/>
<path d="M12.2727 17.7273H17.7273" stroke="#4733AC" stroke-width="1.5" stroke-miterlimit="10" stroke-linecap="round" stroke-linejoin="round"/>
<path d="M15 28.6364V24.5455" stroke="#4733AC" stroke-width="1.5" stroke-miterlimit="10" stroke-linecap="round" stroke-linejoin="round"/>
</svg>
