<svg width="237" height="237" viewBox="0 0 237 237" fill="none" xmlns="http://www.w3.org/2000/svg">
<rect width="237" height="237" rx="118.5" fill="#4733AC" fill-opacity="0.1"/>
<rect x="19" y="18" width="200" height="200" rx="100" fill="#4733AC" fill-opacity="0.1"/>
<rect x="39" y="38" width="160" height="160" rx="80" fill="#4733AC" fill-opacity="0.1"/>
<path d="M150.648 115.744C147.912 115.024 144.696 114.64 140.856 114.64C135.528 114.64 133.56 115.936 130.824 118C130.68 118.096 130.536 118.24 130.392 118.384L125.832 123.232C121.992 127.264 115.08 127.312 111.24 123.184L106.68 118.384C106.536 118.24 106.392 118.096 106.248 118C103.512 115.936 101.544 114.64 96.216 114.64C92.376 114.64 89.16 115.024 86.424 115.744C75 118.816 75 127.888 75 135.856V140.32C75 152.368 75 166 100.68 166H136.392C153.432 166 162.072 157.36 162.072 140.32V135.856C162.072 127.888 162.072 118.816 150.648 115.744ZM129.72 148.72H107.352C105.528 148.72 104.04 147.232 104.04 145.36C104.04 143.488 105.528 142 107.352 142H129.72C131.544 142 133.032 143.488 133.032 145.36C133.032 147.232 131.544 148.72 129.72 148.72Z" fill="#4733AC"/>
<path d="M121.754 73.216C121.754 71.44 120.314 70 118.538 70C116.762 70 115.322 71.44 115.322 73.216V79.6H121.802V73.216H121.754Z" fill="#4733AC"/>
<path d="M153.146 100.816V108.976C152.954 108.88 152.714 108.832 152.522 108.784H152.474C149.066 107.872 145.274 107.44 140.858 107.44C133.466 107.44 129.962 109.6 126.794 112C126.122 112.48 125.642 112.96 125.162 113.44L120.602 118.288C120.122 118.768 119.354 119.056 118.538 119.056C118.154 119.056 117.194 119.008 116.474 118.24L111.77 113.296C111.29 112.768 110.714 112.336 110.57 112.24C107.114 109.6 103.61 107.44 96.2177 107.44C91.8017 107.44 88.0097 107.872 84.5537 108.784C84.3617 108.832 84.1217 108.88 83.9297 108.976V100.816C83.9297 90.88 83.9297 79.6 105.146 79.6H115.322V96.16L112.202 93.04C110.906 91.744 108.89 91.744 107.594 93.04C106.346 94.288 106.346 96.352 107.594 97.6L116.234 106.24C116.282 106.288 116.33 106.288 116.33 106.336C116.618 106.576 116.954 106.816 117.29 106.96C117.722 107.104 118.106 107.2 118.538 107.2C118.97 107.2 119.354 107.104 119.786 106.96C120.17 106.816 120.506 106.576 120.842 106.24L129.482 97.6C130.73 96.352 130.73 94.288 129.482 93.04C128.186 91.744 126.17 91.744 124.874 93.04L121.754 96.16V79.6H131.93C153.146 79.6 153.146 90.88 153.146 100.816Z" fill="#4733AC"/>
</svg>
