<svg width="30" height="30" viewBox="0 0 30 30" fill="none" xmlns="http://www.w3.org/2000/svg">
<path d="M7.86 0H5.01C1.725 0 0 1.725 0 4.995V7.845C0 11.115 1.725 12.84 4.995 12.84H7.845C11.115 12.84 12.84 11.115 12.84 7.845V4.995C12.855 1.725 11.13 0 7.86 0Z" fill="#4733AC"/>
<path d="M25.0052 0H22.1552C18.8852 0 17.1602 1.725 17.1602 4.995V7.845C17.1602 11.115 18.8852 12.84 22.1552 12.84H25.0052C28.2752 12.84 30.0002 11.115 30.0002 7.845V4.995C30.0002 1.725 28.2752 0 25.0052 0Z" fill="#4733AC"/>
<path d="M25.0052 17.1449H22.1552C18.8852 17.1449 17.1602 18.8699 17.1602 22.1399V24.9899C17.1602 28.2599 18.8852 29.9849 22.1552 29.9849H25.0052C28.2752 29.9849 30.0002 28.2599 30.0002 24.9899V22.1399C30.0002 18.8699 28.2752 17.1449 25.0052 17.1449Z" fill="#4733AC"/>
<path d="M7.86 17.1449H5.01C1.725 17.1449 0 18.8699 0 22.1399V24.9899C0 28.2749 1.725 29.9999 4.995 29.9999H7.845C11.115 29.9999 12.84 28.2749 12.84 25.0049V22.1549C12.855 18.8699 11.13 17.1449 7.86 17.1449Z" fill="#4733AC"/>
</svg>
