<svg width="40" height="40" viewBox="0 0 40 40" fill="none" xmlns="http://www.w3.org/2000/svg">
<path d="M7.61905 24.762C5.82857 24.762 4.17143 25.3905 2.85714 26.4382C1.10476 27.8286 0 29.981 0 32.381C0 33.8096 0.4 35.162 1.10476 36.3048C2.41905 38.5143 4.8381 40.0001 7.61905 40.0001C9.54286 40.0001 11.2952 39.2953 12.6286 38.0953C13.219 37.6001 13.7333 36.9905 14.1333 36.3048C14.8381 35.162 15.2381 33.8096 15.2381 32.381C15.2381 28.1715 11.8286 24.762 7.61905 24.762ZM11.5619 31.562L7.50476 35.3143C7.2381 35.562 6.87619 35.6953 6.53333 35.6953C6.17143 35.6953 5.80952 35.562 5.52381 35.2762L3.6381 33.3905C3.08571 32.8382 3.08571 31.9239 3.6381 31.3715C4.19048 30.8191 5.10476 30.8191 5.65714 31.3715L6.57143 32.2858L9.61905 29.4667C10.1905 28.9334 11.1048 28.9715 11.6381 29.5429C12.1714 30.1143 12.1333 31.0286 11.5619 31.562Z" fill="#1D60D1"/>
<path d="M26.3809 3.71451V10.9526H23.5238V3.71451C23.5238 3.20022 23.0666 2.9526 22.7619 2.9526C22.6666 2.9526 22.5714 2.97165 22.4762 3.00974L7.3714 8.70498C6.36188 9.08594 5.71426 10.0383 5.71426 11.124V12.4002C3.98093 13.6955 2.85712 15.7717 2.85712 18.1145V11.124C2.85712 8.85736 4.24759 6.83832 6.36188 6.03832L21.4857 0.324031C21.9047 0.17165 22.3428 0.095459 22.7619 0.095459C24.6666 0.095459 26.3809 1.63832 26.3809 3.71451Z" fill="#1D60D1"/>
<path d="M39.0482 23.8096V25.7143C39.0482 26.2286 38.6482 26.6477 38.1149 26.6667H35.3339C34.3244 26.6667 33.4101 25.9238 33.3339 24.9334C33.2768 24.3429 33.5053 23.7905 33.8863 23.4096C34.2291 23.0477 34.7053 22.8572 35.2196 22.8572H38.0958C38.6482 22.8762 39.0482 23.2953 39.0482 23.8096Z" fill="#1D60D1"/>
<path d="M35.2 20.8572H37.1428C38.1904 20.8572 39.0476 20 39.0476 18.9524V18.1143C39.0476 14.1714 35.8285 10.9524 31.8857 10.9524H10.019C8.39997 10.9524 6.91426 11.4857 5.71426 12.4C3.98093 13.6953 2.85712 15.7714 2.85712 18.1143V21.5048C2.85712 22.2286 3.61902 22.6857 4.30474 22.4572C5.3714 22.0953 6.49521 21.9048 7.61902 21.9048C13.3905 21.9048 18.0952 26.6095 18.0952 32.381C18.0952 33.7524 17.7333 35.2572 17.1619 36.5905C16.8571 37.2762 17.3333 38.0953 18.0762 38.0953H31.8857C35.8285 38.0953 39.0476 34.8762 39.0476 30.9333V30.5714C39.0476 29.5238 38.1904 28.6667 37.1428 28.6667H35.4857C33.6571 28.6667 31.9047 27.5429 31.4285 25.7714C31.0476 24.3238 31.5047 22.9143 32.4571 22C33.1619 21.2762 34.1333 20.8572 35.2 20.8572ZM24.7619 20.4762H15.2381C14.4571 20.4762 13.8095 19.8286 13.8095 19.0476C13.8095 18.2667 14.4571 17.6191 15.2381 17.6191H24.7619C25.5428 17.6191 26.1905 18.2667 26.1905 19.0476C26.1905 19.8286 25.5428 20.4762 24.7619 20.4762Z" fill="#1D60D1"/>
</svg>
