<svg width="36" height="36" viewBox="0 0 36 36" fill="none" xmlns="http://www.w3.org/2000/svg">
<path d="M13.5139 31.4954C14.5725 30.4368 15.1806 29.0854 15.3383 27.6889C15.5522 25.8308 14.9328 23.905 13.5139 22.486C12.6692 21.6414 11.6332 21.0783 10.5408 20.8193C8.45737 20.29 6.14872 20.8418 4.50451 22.486C3.36708 23.6235 2.74769 25.0762 2.66886 26.574C2.61255 27.216 2.66886 27.8804 2.83778 28.5223C3.0968 29.6147 3.65989 30.6508 4.50451 31.4954C6.99335 33.9842 11.025 33.9842 13.5139 31.4954ZM11.3967 25.8195C12.0499 25.8195 12.5904 26.3601 12.5904 27.0132C12.5792 27.6777 12.0499 28.207 11.3854 28.2182L10.2029 28.207L10.2142 29.3444C10.2029 30.0089 9.67363 30.5382 9.00919 30.5494C8.34475 30.5382 7.81545 30.0089 7.80419 29.3444L7.81545 28.207L6.63298 28.2182C5.96853 28.207 5.43924 27.6777 5.42797 27.0132C5.43924 26.6867 5.57437 26.3939 5.78835 26.1799C6.00232 25.9659 6.29512 25.8308 6.62171 25.8195L7.81545 25.8195L7.81545 24.5807C7.81545 24.2429 7.95059 23.9501 8.16457 23.7361C8.37854 23.5221 8.67134 23.387 9.00919 23.387C9.66237 23.387 10.2029 23.9275 10.2029 24.5807L10.2029 25.8195L11.3967 25.8195Z" fill="#4733AC"/>
<path d="M24.6985 3.02603V9.07808H22.3095V3.02603C22.3095 2.59601 21.9273 2.38897 21.6724 2.38897C21.5928 2.38897 21.5132 2.40489 21.4335 2.43675L8.80386 7.19876C7.95976 7.51728 7.41826 8.31361 7.41826 9.22141V10.2885C5.96896 11.3715 5.0293 13.1075 5.0293 15.0664V9.22141C5.0293 7.32617 6.19193 5.63796 7.95976 4.96905L20.6054 0.191118C20.9557 0.063706 21.3221 0 21.6724 0C23.2651 0 24.6985 1.29004 24.6985 3.02603Z" fill="#4733AC"/>
<path d="M35.2911 19.8298V21.4224C35.2911 21.8524 34.9566 22.2028 34.5107 22.2187H32.1854C31.3413 22.2187 30.5768 21.5976 30.5131 20.7694C30.4654 20.2757 30.6565 19.8138 30.975 19.4953C31.2617 19.1927 31.6598 19.0334 32.0899 19.0334H34.4948C34.9566 19.0494 35.2911 19.3998 35.2911 19.8298Z" fill="#4733AC"/>
<path d="M32.0724 17.3585H33.6969C34.5729 17.3585 35.2896 16.6418 35.2896 15.7659V15.0651C35.2896 11.7684 32.598 9.07678 29.3012 9.07678H11.0176C9.66389 9.07678 8.42163 9.52272 7.41826 10.2872C5.96896 11.3702 5.0293 13.1062 5.0293 15.0651V17.9C5.0293 18.5052 5.66635 18.8875 6.23971 18.6964C7.13159 18.3938 8.07125 18.2345 9.01091 18.2345C13.8366 18.2345 17.7705 22.1683 17.7705 26.994C17.7705 28.1407 17.4679 29.3989 16.9901 30.5138C16.7352 31.0871 17.1334 31.772 17.7545 31.772H29.3012C32.598 31.772 35.2896 29.0804 35.2896 25.7836V25.481C35.2896 24.6051 34.5729 23.8884 33.6969 23.8884H32.3113C30.7824 23.8884 29.3171 22.9487 28.919 21.4676C28.6004 20.2571 28.9827 19.0786 29.779 18.3141C30.3683 17.7089 31.1805 17.3585 32.0724 17.3585ZM23.3447 17.04H15.3815C14.7285 17.04 14.187 16.4985 14.187 15.8455C14.187 15.1925 14.7285 14.651 15.3815 14.651H23.3447C23.9977 14.651 24.5392 15.1925 24.5392 15.8455C24.5392 16.4985 23.9977 17.04 23.3447 17.04Z" fill="#4733AC"/>
</svg>
