<svg width="129" height="24" viewBox="0 0 129 24" fill="none" xmlns="http://www.w3.org/2000/svg">
<g clip-path="url(#clip0_1601_3571)">
<path d="M11.3097 23.2525C4.11782 23.2179 -0.135031 18.8959 0.00327271 11.8078C0.141577 5.03089 4.53273 0.812622 11.3442 0.847198C18.4323 0.916349 22.8926 5.30751 22.7543 12.0844C22.616 19.2071 18.4323 23.3216 11.3097 23.2525ZM2.66563 7.83154C3.28799 7.93529 3.5646 7.5895 3.87579 7.34751C6.53817 5.27293 9.51166 4.51226 12.9001 5.10005C16.4269 5.72242 18.4323 8.45394 17.6716 11.6695C17.0493 14.2281 13.2459 16.026 10.3415 15.0925C9.78826 14.9196 9.37335 14.6776 9.37335 14.0898C9.37335 13.3983 9.85744 13.0871 10.4798 13.0179C11.2059 12.9488 11.9665 12.9834 12.7272 12.9488C14.2832 12.8796 15.355 12.1536 15.6316 10.563C15.8391 9.18001 14.9401 7.69324 13.5571 7.20921C12.4506 6.7943 11.3097 6.75968 10.1686 6.86342C6.50355 7.14003 4.1524 8.79967 3.21884 11.7386C2.35444 14.4701 3.288 17.6511 5.50086 19.4491C9.26967 22.4918 16.4615 21.5928 19.3313 17.7549C19.6079 17.3745 20.1265 17.0288 19.7116 16.4064C19.0892 16.4064 18.8126 16.8905 18.4323 17.2016C15.597 19.2762 12.4852 19.7257 9.13136 18.8959C5.91578 18.066 4.25612 15.1962 5.22425 12.2573C6.05408 9.76779 9.96118 8.07359 12.5889 9.04171C13.1076 9.24919 13.4879 9.56036 13.4533 10.1481C13.4188 10.7705 12.9693 11.0471 12.4161 11.0817C11.7246 11.1509 11.033 11.1509 10.3415 11.1854C8.40523 11.2892 7.36799 12.119 7.19507 13.6749C7.0222 15.1962 8.09406 16.5793 9.71914 17.0633C11.5516 17.582 13.3496 17.2708 15.1476 16.7867C17.6716 16.0952 19.2275 14.4701 19.7462 12.0153C20.2994 9.3875 19.7808 6.86342 17.6716 4.99632C13.4188 1.33126 4.80934 2.576 2.66563 7.83154Z" fill="white"/>
<path d="M115.072 9.18001C115.072 8.14277 115.038 7.24377 115.072 6.34479C115.107 5.757 115.314 5.20378 116.041 5.13463C116.905 5.10006 117.112 5.68785 117.112 6.34479C117.147 9.45662 117.182 12.5685 117.078 15.6803C117.044 17.0633 116.283 17.3054 115.245 16.3718C114.865 16.026 114.727 16.026 114.277 16.2335C112.168 17.2708 110.647 17.0288 109.575 15.6111C108.365 14.0552 108.365 11.0126 109.54 9.56036C110.716 8.10815 112.41 7.93529 114.485 9.00715C114.588 9.07627 114.692 9.07627 115.072 9.18001ZM114.934 12.6722C114.969 11.0471 114.07 9.87153 112.825 9.90609C111.649 9.94071 110.82 11.0817 110.82 12.603C110.82 14.0898 111.719 15.2654 112.86 15.3C114.07 15.3345 114.934 14.2627 114.934 12.6722Z" fill="white"/>
<path d="M33.4031 17.0288C31.6051 16.925 30.0492 16.441 29.3231 14.6776C28.5624 12.8796 28.6316 11.1163 29.9455 9.56036C31.1211 8.14272 32.7807 7.93529 34.4749 8.38476C35.5814 8.66137 36.3766 9.3875 36.8261 10.4247C37.5522 12.1536 36.999 13.0179 35.1665 13.0871C34.1292 13.1217 33.0919 13.1217 32.0892 13.0871C31.0519 13.0871 31.0865 13.5712 31.4668 14.2627C32.0546 15.4037 33.3339 15.7494 34.5441 15.0579C34.9244 14.8505 35.2702 14.5047 35.6159 14.2281C36.0308 13.9169 36.4458 13.8132 36.8261 14.2281C37.1719 14.5739 36.999 14.9542 36.7915 15.3C35.9963 16.5793 34.717 16.8905 33.4031 17.0288ZM33.0919 12.0844C33.5414 11.4275 34.8207 12.6722 34.9244 11.3237C34.9936 10.3211 34.1292 9.69867 33.1265 9.69867C32.0892 9.69867 31.2939 10.3902 31.2939 11.3237C31.2939 12.5685 32.4695 11.6003 33.0919 12.0844Z" fill="white"/>
<path d="M74.2035 13.1217C73.8574 13.1217 73.5118 13.0526 73.1661 13.1217C72.6127 13.2254 71.6795 12.7414 71.61 13.6058C71.5411 14.4702 72.1635 15.1963 73.1314 15.3691C74.0994 15.5766 74.9295 15.1963 75.6207 14.5393C76.0358 14.159 76.5198 13.6403 77.0732 14.2281C77.6956 14.8505 77.1421 15.4037 76.7276 15.8186C75.3446 17.3054 72.2324 17.3746 70.5726 15.9569C68.9134 14.5393 68.7403 11.3237 70.1923 9.59492C71.5064 8.00447 74.2377 7.72786 75.9669 8.97259C76.4851 9.35294 76.8654 9.83697 77.1421 10.3902C77.9376 12.1536 77.35 13.0526 75.3788 13.1217C75.0331 13.1563 74.6181 13.1217 74.2035 13.1217ZM73.3387 12.0153C73.961 11.6003 75.1368 12.5339 75.2404 11.3237C75.3446 10.3211 74.4797 9.69867 73.4429 9.69867C72.4054 9.6641 71.61 10.3556 71.61 11.3237C71.61 12.5685 72.7858 11.6003 73.3387 12.0153Z" fill="white"/>
<path d="M104.319 13.1217C103.8 13.1217 103.454 13.0525 103.109 13.1217C102.556 13.2254 101.657 12.7068 101.553 13.6403C101.484 14.4702 102.106 15.1271 102.97 15.3345C104.008 15.6111 104.872 15.1962 105.633 14.5047C106.048 14.0898 106.532 13.6749 107.085 14.2281C107.638 14.7813 107.119 15.3 106.774 15.7149C105.494 17.2362 102.313 17.3745 100.654 16.026C98.8907 14.6085 98.6829 11.3237 100.204 9.56036C101.622 7.93529 104.457 7.69324 106.117 9.07627C107.085 9.90609 107.776 11.0125 107.327 12.2227C106.774 13.7786 105.218 12.8796 104.319 13.1217ZM103.454 12.0498C103.939 11.4966 105.114 12.5339 105.184 11.3583C105.252 10.3556 104.423 9.69867 103.385 9.69867C102.348 9.69867 101.518 10.3902 101.587 11.3583C101.657 12.5339 102.798 11.6003 103.454 12.0498Z" fill="white"/>
<path d="M50.7953 8.24646C53.3885 8.21189 55.221 10.0444 55.1865 12.6376C55.1865 15.1962 53.4231 16.9596 50.8991 17.0288C48.3059 17.0633 46.5079 15.2308 46.5425 12.603C46.577 9.94071 48.2367 8.24646 50.7953 8.24646ZM48.7553 12.4993C48.7208 14.1935 49.4814 15.3 50.7261 15.3691C52.04 15.4383 52.9044 14.401 52.939 12.7068C52.9736 10.978 52.2475 9.90609 50.9682 9.83697C49.6543 9.80241 48.7899 10.8051 48.7553 12.4993Z" fill="white"/>
<path d="M87.2033 8.21189C88.5863 8.21189 89.7968 8.66136 90.6264 9.80241C91.0067 10.3556 91.1451 11.0125 90.5228 11.462C89.9352 11.877 89.4854 11.4966 89.0708 11.0471C87.722 9.69867 86.6851 9.56036 85.7513 10.5976C84.7834 11.6695 84.9218 14.1244 86.0628 14.9196C87.238 15.7494 88.2065 15.3691 89.0361 14.3318C89.4854 13.7786 89.8657 12.8451 90.73 13.6749C91.5602 14.4356 90.9378 15.1271 90.4191 15.7494C89.2434 17.0633 86.7193 17.3745 84.9907 16.4756C83.2962 15.6111 82.4666 13.4675 83.0542 11.3237C83.5729 9.35288 85.0595 8.24645 87.2033 8.21189Z" fill="white"/>
<path d="M126.621 16.9942C124.788 17.0288 124.027 16.3373 123.924 14.6776C123.889 13.7786 123.924 12.8796 123.924 11.9807C123.924 11.6349 123.82 11.2546 123.958 10.978C124.442 9.80241 122.091 9.97527 122.852 8.97259C123.37 8.28102 124.131 7.86611 123.958 6.82886C123.854 6.1719 124.097 5.54953 124.926 5.48038C125.86 5.41123 126.067 6.06817 126.102 6.79424C126.171 7.5895 125.964 8.45394 127.277 8.59224C128.004 8.66136 128.004 9.6641 127.347 9.76779C125.825 10.0098 126.171 11.0126 126.171 11.9115C126.136 12.6376 126.171 13.3637 126.171 14.1244C126.171 14.7468 126.344 15.3 127.139 15.1962C127.727 15.1271 128.418 15.0579 128.453 15.8186C128.488 16.6139 127.761 16.7522 127.139 16.8905C126.897 16.9942 126.655 16.9942 126.621 16.9942Z" fill="white"/>
<path d="M64.418 14.2973C65.1098 12.4993 65.6627 10.978 66.2508 9.45662C66.527 8.76511 66.8037 7.93529 67.8064 8.3502C68.6365 8.69593 68.3946 9.42206 68.1178 10.1136C67.3224 11.9807 66.5964 13.8823 65.8357 15.784C65.559 16.441 65.1787 17.0288 64.3491 16.9942C63.6231 16.9596 63.2769 16.4064 63.035 15.8186C62.2401 13.8824 61.4794 11.9461 60.684 10.0098C60.3725 9.28376 60.3725 8.6268 61.2368 8.3502C62.0323 8.07359 62.3779 8.6268 62.5857 9.28376C63.1733 10.8051 63.7268 12.3956 64.418 14.2973Z" fill="white"/>
<path d="M41.8402 14.401C42.5663 12.3956 43.1195 10.8743 43.7073 9.3875C43.9493 8.76511 44.2259 7.96985 45.1595 8.3502C45.9893 8.69593 45.8164 9.45662 45.5744 10.1136C44.8138 12.0498 44.0185 13.9861 43.2232 15.9224C42.9812 16.5101 42.5663 17.0288 41.8402 17.0288C41.1141 17.0288 40.7338 16.5101 40.4917 15.8877C39.6965 13.9515 38.9012 12.0153 38.106 10.079C37.8294 9.42206 37.7256 8.69593 38.5555 8.3502C39.4544 8.00441 39.7656 8.69598 40.0076 9.35288C40.5955 10.8397 41.1487 12.3956 41.8402 14.401Z" fill="white"/>
<path d="M56.8118 11.1163C56.8118 9.59492 56.7771 8.07359 56.8118 6.55226C56.846 5.82615 57.0538 5.13463 57.987 5.1692C58.8861 5.20378 59.0939 5.86072 59.0939 6.62138C59.0939 9.56036 59.0939 12.4993 59.0939 15.4383C59.0939 16.2681 58.8519 17.0288 57.9181 16.9942C56.9844 16.9596 56.8118 16.1643 56.8118 15.3691C56.7771 13.9169 56.8118 12.4993 56.8118 11.1163Z" fill="white"/>
<path d="M92.874 12.5685C92.874 11.5658 92.8398 10.5285 92.874 9.5258C92.9087 8.7651 93.4964 7.86611 94.0151 8.31563C95.0525 9.24919 95.7095 8.45394 96.505 8.24645C97.0926 8.10815 97.6454 8.28102 98.13 8.55768C98.5792 8.79967 98.8559 9.14545 98.6829 9.6641C98.5103 10.1481 98.0605 10.3556 97.5765 10.1827C95.6748 9.5258 95.2256 10.6668 95.1219 12.119C95.0177 13.2254 95.0177 14.3664 94.9836 15.5075C94.9836 16.2681 94.7416 16.925 93.8767 16.8905C93.1507 16.8559 92.8398 16.2681 92.8398 15.5766C92.874 14.6085 92.874 13.5712 92.874 12.5685Z" fill="white"/>
<path d="M119.221 12.5339C119.221 11.4966 119.187 10.4939 119.221 9.45662C119.256 8.79967 119.567 8.21189 120.362 8.24645C121.123 8.28102 121.434 8.83423 121.434 9.5258C121.434 11.5658 121.434 13.6058 121.434 15.6458C121.434 16.3373 121.088 16.925 120.362 16.9596C119.498 16.9942 119.221 16.3373 119.187 15.5766C119.187 14.5739 119.221 13.5366 119.221 12.5339Z" fill="white"/>
<path d="M121.468 6.27563C121.365 6.93255 120.984 7.3129 120.327 7.3129C119.67 7.27833 119.221 6.89799 119.256 6.24105C119.29 5.61869 119.74 5.20378 120.397 5.20378C121.019 5.23835 121.4 5.65326 121.468 6.27563Z" fill="white"/>
</g>
<defs>
<clipPath id="clip0_1601_3571">
<rect width="128.836" height="22.4063" fill="white" transform="translate(0 0.846987)"/>
</clipPath>
</defs>
</svg>
