<svg width="32" height="32" viewBox="0 0 32 32" fill="none" xmlns="http://www.w3.org/2000/svg">
<path d="M13.76 3.44C13.76 3.744 13.504 4 13.2 4H11.392C7.936 4 5.12 6.816 5.12 10.272V25.04C5.12 25.344 4.864 25.6 4.56 25.6H3.44C1.536 25.6 0 24.064 0 22.16V3.44C0 1.536 1.536 0 3.44 0H10.32C12.224 0 13.76 1.536 13.76 3.44Z" fill="#4733AC"/>
<path d="M32 3.44V22.16C32 24.064 30.464 25.6 28.56 25.6H27.552C27.248 25.6 26.992 25.344 26.992 25.04V10.272C26.992 6.816 24.176 4 20.72 4H18.8C18.496 4 18.24 3.744 18.24 3.44C18.24 1.536 19.776 0 21.68 0H28.56C30.464 0 32 1.536 32 3.44Z" fill="#4733AC"/>
<path d="M20.72 6.40002H11.392C9.248 6.40002 7.52 8.12802 7.52 10.272V28.128C7.52 30.272 9.248 32 11.392 32H14C14.448 32 14.8 31.648 14.8 31.2V27.2C14.8 26.544 15.344 26 16 26C16.656 26 17.2 26.544 17.2 27.2V31.2C17.2 31.648 17.552 32 18 32H20.736C22.864 32 24.592 30.272 24.592 28.144V10.272C24.592 8.12802 22.864 6.40002 20.72 6.40002ZM19.2 20.4H12.8C12.144 20.4 11.6 19.856 11.6 19.2C11.6 18.544 12.144 18 12.8 18H19.2C19.856 18 20.4 18.544 20.4 19.2C20.4 19.856 19.856 20.4 19.2 20.4ZM19.2 15.6H12.8C12.144 15.6 11.6 15.056 11.6 14.4C11.6 13.744 12.144 13.2 12.8 13.2H19.2C19.856 13.2 20.4 13.744 20.4 14.4C20.4 15.056 19.856 15.6 19.2 15.6Z" fill="#4733AC"/>
</svg>
