<svg width="30" height="30" viewBox="0 0 30 30" fill="none" xmlns="http://www.w3.org/2000/svg">
<path d="M28.6363 12.2727V16.3636C28.6363 21.8182 25.909 24.5455 20.4544 24.5455H19.7726C19.3499 24.5455 18.9408 24.75 18.6817 25.0909L16.6363 27.8182C15.7363 29.0182 14.2635 29.0182 13.3635 27.8182L11.3181 25.0909C11.0999 24.7909 10.5953 24.5455 10.2272 24.5455H9.54534C4.0908 24.5455 1.36353 23.1818 1.36353 16.3636V9.54547C1.36353 4.09092 4.0908 1.36365 9.54534 1.36365H17.7272" stroke="#4733AC" stroke-width="1.5" stroke-miterlimit="10" stroke-linecap="round" stroke-linejoin="round"/>
<path d="M25.2272 8.18183C27.11 8.18183 28.6363 6.65553 28.6363 4.77274C28.6363 2.88995 27.11 1.36365 25.2272 1.36365C23.3444 1.36365 21.8181 2.88995 21.8181 4.77274C21.8181 6.65553 23.3444 8.18183 25.2272 8.18183Z" fill="#4733AC" stroke="#4733AC" stroke-width="1.5" stroke-linecap="round" stroke-linejoin="round"/>
<path d="M20.4497 13.6364H20.462" stroke="#4733AC" stroke-width="2" stroke-linecap="round" stroke-linejoin="round"/>
<path d="M14.9937 13.6364H15.0059" stroke="#4733AC" stroke-width="2" stroke-linecap="round" stroke-linejoin="round"/>
<path d="M9.53785 13.6364H9.5501" stroke="#4733AC" stroke-width="2" stroke-linecap="round" stroke-linejoin="round"/>
</svg>
