<svg width="30" height="30" viewBox="0 0 30 30" fill="none" xmlns="http://www.w3.org/2000/svg">
<path d="M28.1727 12.8728L26.8363 18.5728C25.6909 23.4955 23.4272 25.4864 19.1727 25.0773C18.4909 25.0228 17.7545 24.9 16.9636 24.7091L14.6727 24.1637C8.98632 22.8137 7.22723 20.0046 8.56359 14.3046L9.89996 8.59095C10.1727 7.43186 10.5 6.42277 10.909 5.59095C12.5045 2.29095 15.2181 1.40459 19.7727 2.48186L22.05 3.01368C27.7636 4.35004 29.509 7.17277 28.1727 12.8728Z" stroke="#4733AC" stroke-width="1.5" stroke-linecap="round" stroke-linejoin="round"/>
<path d="M19.1727 25.0773C18.3272 25.65 17.2636 26.1273 15.9681 26.55L13.8136 27.2591C8.39995 29.0046 5.54995 27.5455 3.79086 22.1319L2.04541 16.7455C0.299955 11.3319 1.74541 8.46821 7.15904 6.72276L9.31359 6.01367C9.87268 5.8364 10.4045 5.6864 10.909 5.59094C10.5 6.42276 10.1727 7.43185 9.89995 8.59094L8.56359 14.3046C7.22723 20.0046 8.98632 22.8137 14.6727 24.1637L16.9636 24.7091C17.7545 24.9 18.4909 25.0228 19.1727 25.0773Z" stroke="#4733AC" stroke-width="1.5" stroke-linecap="round" stroke-linejoin="round"/>
</svg>
