<svg width="22" height="24" viewBox="0 0 22 24" fill="none" xmlns="http://www.w3.org/2000/svg">
<path d="M10.9092 5.93451V9.56724" stroke="#D63434" stroke-width="1.5" stroke-miterlimit="10" stroke-linecap="round"/>
<path d="M10.9312 1.09088C6.91661 1.09088 3.6657 4.34179 3.6657 8.35634V10.6472C3.6657 11.3891 3.36024 12.5018 2.97843 13.1345L1.59297 15.4472C0.742062 16.8763 1.33115 18.4691 2.90206 18.9927C8.11661 20.7272 13.7566 20.7272 18.9712 18.9927C20.4439 18.5018 21.0766 16.7782 20.2802 15.4472L18.8948 13.1345C18.513 12.5018 18.2075 11.3782 18.2075 10.6472V8.35634C18.1966 4.36361 14.9239 1.09088 10.9312 1.09088Z" stroke="#D63434" stroke-width="1.5" stroke-miterlimit="10" stroke-linecap="round"/>
<path d="M14.5418 19.4399C14.5418 21.4363 12.9055 23.0727 10.9091 23.0727C9.91637 23.0727 9 22.6581 8.34546 22.0036C7.69091 21.349 7.27637 20.4327 7.27637 19.4399" stroke="#D63434" stroke-width="1.5" stroke-miterlimit="10"/>
</svg>
