<svg width="341" height="255" viewBox="0 0 341 255" fill="none" xmlns="http://www.w3.org/2000/svg">
<g clip-path="url(#clip0_1907_3604)">
<rect width="341" height="255" rx="10" fill="#4733AC"/>
<path d="M-13.147 -16.0254C-14.9623 -15.3239 -17.0502 -13.0991 -16.677 -6.51444C-16.2499 0.900195 -11.576 0.847162 -6.62036 0.801259C-5.7521 0.788 -4.85407 0.78901 -3.96848 0.820614C-1.98754 0.892999 -0.409148 0.708446 0.709592 0.276125C1.95498 -0.205138 2.67872 -1.00044 2.85781 -2.07512C3.4194 -5.42455 -1.49382 -10.4482 -3.63562 -12.4435C-7.07588 -15.6645 -10.6351 -16.9961 -13.147 -16.0254ZM2.30806 -2.21073C2.01417 -0.460047 -0.122098 0.352595 -3.96732 0.227199C-4.86346 0.199673 -5.77206 0.202743 -6.64031 0.216002C-11.4985 0.262925 -15.7045 0.302698 -16.0967 -6.51954C-16.3815 -11.4626 -15.2839 -14.5551 -12.9303 -15.4646C-10.619 -16.3578 -7.28246 -15.069 -4.00465 -12.0173C0.306837 -7.98581 2.65814 -4.31827 2.30806 -2.21073Z" fill="white" fill-opacity="0.1"/>
<path d="M-15.0699 -86.1041C-15.4177 -88.5736 -15.7631 -91.0054 -16.1358 -93.4138L-16.674 -93.2058C-16.3081 -90.8464 -15.9696 -88.4635 -15.6286 -86.043C-14.9916 -81.5067 -14.3342 -76.8236 -13.4479 -72.113C-10.4937 -56.4324 -5.4104 -36.3409 7.81073 -20.0516C13.1848 -13.4272 21.6838 -9.60876 29.1728 -6.23794C35.8411 -3.23317 41.5993 -0.637253 42.5908 3.02724C43.0461 4.70756 42.4865 6.58671 40.8852 8.75238C40.142 9.74854 38.5958 10.707 36.2739 11.6043C28.1683 14.7365 12.4087 16.4567 0.3772 16.7749C-12.7088 17.1267 -29.3949 16.0725 -34.6155 9.09222C-36.2742 6.87151 -36.6795 4.12771 -35.7966 0.950593C-34.6696 -3.13297 -33.222 -6.88922 -31.8285 -10.5344C-29.0764 -17.6951 -26.4755 -24.4623 -26.3411 -33.0607C-26.1563 -45.3267 -29.9169 -56.5965 -37.5123 -66.5519C-39.3528 -68.9603 -41.1108 -71.1555 -42.6718 -73.0917C-44.9673 -75.9558 -46.9759 -78.4539 -48.6109 -80.8642L-49.1597 -80.6521C-47.4925 -78.1898 -45.4517 -75.6397 -43.0985 -72.7206C-41.5481 -70.7803 -39.7838 -68.6003 -37.9539 -66.1879C-30.4527 -56.3507 -26.7441 -45.2155 -26.9239 -33.0933C-27.0507 -24.601 -29.633 -17.8797 -32.3707 -10.776C-33.7747 -7.12679 -35.2242 -3.34402 -36.3636 0.770128C-37.2914 4.14505 -36.8634 7.07338 -35.0782 9.46437C-29.7076 16.6445 -12.8136 17.7344 0.395258 17.3866C12.4733 17.0634 28.3006 15.33 36.4695 12.1732C38.8864 11.2392 40.5189 10.2216 41.3249 9.13677C43.0392 6.82427 43.6313 4.77791 43.1235 2.89876C42.0552 -1.05835 36.1779 -3.71137 29.3651 -6.7763C21.9356 -10.1186 13.5068 -13.9125 8.22253 -20.4299C-4.9087 -36.6121 -9.96786 -56.6098 -12.9023 -72.2078C-13.78 -76.896 -14.4373 -81.5791 -15.0699 -86.1041Z" fill="white" fill-opacity="0.1"/>
<path d="M-1.13967 210.01C-1.30764 211.145 -1.46562 212.212 -1.64695 213.03C-3.8971 223.09 -7.47985 232.621 -11.5854 243.154C-12.1428 244.568 -12.7126 246.013 -13.2929 247.462C-16.7252 256.033 -20.2863 264.898 -20.9393 274.007C-21.1902 277.532 -20.7319 280.037 -19.5904 281.233C-19.0752 281.781 -18.4461 282.028 -17.7181 281.966C-17.4239 281.942 -17.1005 281.869 -16.7733 281.742C-15.4752 281.241 -14.0043 279.899 -12.5267 277.884C-9.5925 273.863 -7.08421 269.336 -4.65736 264.943C-2.67248 261.353 -0.616751 257.633 1.66834 254.223C10.8647 240.447 16.9376 231.333 14.4324 213.235C13.9145 209.478 11.3642 201.466 7.54524 199.023C6.22471 198.18 4.88304 198.067 3.5159 198.672C0.334566 200.108 -0.513402 205.824 -1.13967 210.01ZM3.88866 198.915C5.06018 198.462 6.24109 198.599 7.37429 199.334C11.0803 201.705 13.5786 209.582 14.096 213.275C16.5851 231.237 10.5371 240.29 1.38056 254.012C-0.910744 257.437 -2.96649 261.157 -4.95758 264.763C-7.37821 269.14 -9.88649 273.667 -12.8039 277.669C-14.5786 280.108 -16.3623 281.519 -17.755 281.619C-18.3794 281.667 -18.9129 281.448 -19.3575 280.988C-20.4029 279.884 -20.8437 277.424 -20.6042 274.058C-19.955 265.002 -16.4064 256.167 -12.9908 247.616C-12.4105 246.167 -11.8301 244.718 -11.2728 243.304C-7.16097 232.756 -3.58256 223.213 -1.31565 213.134C-1.12809 212.3 -0.970105 211.234 -0.802133 210.099C-0.19208 205.996 0.637794 200.39 3.65459 199.031C3.74091 198.972 3.81479 198.944 3.88866 198.915Z" fill="white" fill-opacity="0.1"/>
<path d="M-59.9688 300.64C-69.9365 271.079 -59.9415 240.882 -51.9086 216.624L-51.2751 214.716C-41.7281 185.839 -45.4122 178.471 -57.2901 172.877C-70.31 166.745 -90.5601 157.787 -115.958 150.857C-124.637 148.487 -133.067 146.511 -141.065 144.962L-140.814 145.612C-132.928 147.154 -124.619 149.099 -116.091 151.424C-90.7331 158.344 -70.5129 167.288 -57.5078 173.413C-45.9724 178.842 -42.4166 186.066 -51.8086 214.497L-52.4421 216.405C-60.5017 240.75 -70.5403 271.055 -60.4946 300.818C-51.0835 328.75 -57.6981 340.574 -63.5878 345.454L-63.3625 346.037C-57.3014 341.13 -50.3558 329.126 -59.9688 300.64Z" fill="white" fill-opacity="0.1"/>
<path d="M-1.99145 188.878C-6.15663 191.88 -7.5637 200.261 -8.70986 206.995C-9.10857 209.353 -9.48729 211.575 -9.92818 213.228C-12.3848 222.44 -15.7944 231.195 -19.1006 239.653C-19.9603 241.854 -21.1238 244.431 -22.3433 247.145C-25.9917 255.219 -30.5251 265.273 -30.1992 272.739C-29.9219 279.013 -26.7742 283.894 -23.7318 288.597C-21.2305 292.464 -18.6412 296.465 -17.6166 301.251C-16.9763 304.226 -17.5038 307.601 -18.0761 311.174C-18.7502 315.456 -19.4444 319.875 -18.0671 323.816C-17.5979 325.156 -16.9051 326.383 -15.9975 327.476C-12.9964 331.099 -10.7944 332.465 -9.06357 331.796C-7.32213 331.124 -6.21818 328.518 -5.243 322.818C-4.31646 317.368 -5.26287 311.843 -6.17592 306.498C-7.09764 301.131 -8.04217 295.579 -7.10318 290.098C-5.31381 279.662 1.19654 269.953 6.94186 261.403C7.42907 260.686 7.9014 259.963 8.38239 259.261C17.9006 245 25.4203 233.728 22.465 212.363C21.6869 206.708 16.2541 193.622 8.68446 188.787C4.99765 186.435 1.36765 186.459 -1.99145 188.878ZM8.39232 189.287C15.1761 193.626 21.0079 206.081 21.8915 212.417C24.8215 233.56 17.3541 244.747 7.90483 258.904C7.43873 259.613 6.95152 260.33 6.46431 261.046C0.679216 269.65 -5.87089 279.413 -7.67402 289.971C-8.63111 295.561 -7.66926 301.158 -6.74697 306.59C-5.8407 311.885 -4.90108 317.362 -5.80953 322.701C-6.46027 326.511 -7.3762 330.513 -9.27595 331.247C-10.7324 331.81 -12.786 330.451 -15.5708 327.105C-16.4356 326.06 -17.0832 324.918 -17.5307 323.634C-18.8473 319.851 -18.1737 315.504 -17.5053 311.301C-16.9335 307.664 -16.3917 304.232 -17.0604 301.152C-18.1073 296.246 -20.7288 292.193 -23.258 288.285C-26.397 283.426 -29.3663 278.85 -29.6295 272.738C-29.9456 265.423 -25.4433 255.446 -21.824 247.421C-20.5983 244.692 -19.4305 242.127 -18.5689 239.899C-15.2608 231.414 -11.8451 222.644 -9.37599 213.401C-8.92266 211.718 -8.55261 209.473 -8.14335 207.111C-7.01528 200.487 -5.62819 192.243 -1.65676 189.368C-0.936991 188.845 -0.194993 188.442 0.543798 188.156C3.06002 187.197 5.70226 187.568 8.39232 189.287Z" fill="white" fill-opacity="0.1"/>
<path d="M-6.54561 162.652C-10.5441 159.775 -12.9195 160.126 -15.4452 160.496C-17.1775 160.753 -18.9819 161.012 -21.4562 160.228L-21.6882 160.099C-29.5456 155.775 -55.674 141.869 -61.7848 144.231C-62.5025 144.508 -62.9578 144.993 -63.1403 145.683C-63.5152 147.129 -62.5932 149.39 -60.3221 152.599C-58.9691 154.499 -52.734 155.441 -46.1235 156.445C-40.6243 157.271 -34.9322 158.127 -32.5776 159.511C-30.4699 160.759 -27.6439 162.516 -27.4834 163.434C-27.4346 163.686 -27.6253 163.914 -27.9546 164.286C-28.7032 165.143 -29.8333 166.456 -27.7081 169.695C-26.2356 171.936 -23.8703 173.82 -21.588 175.645C-19.4553 177.334 -17.4397 178.94 -16.1784 180.76C-12.6951 185.756 -17.288 199.171 -20.3258 208.041C-21.3295 210.968 -22.197 213.495 -22.6616 215.337C-24.5245 222.696 -27.5716 230.035 -30.5129 237.114C-36.2356 250.902 -42.145 265.148 -40.0969 280.869C-37.0213 304.366 -30.7371 323.736 -21.4058 338.434C-16.4318 346.283 -6.02903 355.876 -0.382565 353.694C3.13197 352.336 3.96296 346.858 2.06933 337.406C-5.20487 301.004 6.52514 283.426 17.881 266.418C27.9387 251.355 37.4339 237.128 33.8257 211.091C32.4562 201.269 23.8571 188.685 16.6647 182.661C13.4536 179.97 10.3377 178.97 7.31747 177.997C4.66884 177.138 2.16476 176.34 -0.26634 174.444C-1.983 173.109 -2.58183 170.994 -3.21968 168.779C-3.83699 166.491 -4.51441 164.11 -6.54561 162.652ZM-0.694562 175.125C1.8432 177.109 4.41739 177.932 7.14668 178.811C10.0863 179.763 13.132 180.739 16.2172 183.323C23.2838 189.242 31.7304 201.589 33.0684 211.204C36.6335 236.909 27.2241 251.012 17.2478 265.941C5.8105 283.083 -6.02826 300.82 1.31886 337.568C3.0951 346.433 2.40885 351.751 -0.662403 352.938C-5.45399 354.79 -15.3905 346.435 -20.7295 338.018C-29.9815 323.431 -36.2329 304.177 -39.282 280.812C-41.3154 265.317 -35.439 251.174 -29.7598 237.494C-26.8061 230.384 -23.7528 223.029 -21.8693 215.598C-21.4128 213.798 -20.5516 211.286 -19.5541 208.374C-16.2705 198.791 -11.7852 185.662 -15.5258 180.315C-16.877 178.388 -18.9266 176.756 -21.1127 175.023C-23.3522 173.246 -25.6492 171.413 -27.0425 169.283C-28.8113 166.59 -28.0291 165.694 -27.3414 164.9C-26.9661 164.459 -26.5697 164.009 -26.6815 163.343C-26.8396 162.463 -27.8105 161.395 -32.1897 158.82C-34.6721 157.356 -40.4405 156.491 -46.0203 155.644C-51.88 154.763 -58.516 153.757 -59.6589 152.149C-62.2622 148.489 -62.5505 146.769 -62.3393 145.966C-62.2266 145.536 -61.939 145.244 -61.4535 145.057C-56.8414 143.274 -38.0521 152.062 -22.0097 160.868C-21.8118 160.972 -21.7033 161.033 -21.6927 161.029C-18.9932 161.893 -17.0176 161.607 -15.2852 161.35C-12.8272 160.993 -10.7057 160.676 -6.96083 163.367C-5.18329 164.639 -4.57579 166.776 -3.93549 169.029C-3.30386 171.26 -2.63944 173.608 -0.694562 175.125Z" fill="white" fill-opacity="0.1"/>
<path d="M-145.772 132.782C-101.914 140.429 -50.4015 159.659 -36.8744 173.883C-28.7576 182.426 -34.2274 198.5 -41.1508 218.848C-49.0262 241.975 -58.8176 270.754 -49.8719 297.293C-38.9584 329.647 -48.7483 348.447 -59.1277 356.996L-58.8113 357.815C-48.1575 349.16 -37.9894 330.02 -49.1201 297.042C-57.9786 270.791 -48.2282 242.157 -40.4026 219.152C-33.3821 198.521 -27.8359 182.237 -36.3246 173.297C-49.9522 158.969 -101.951 139.58 -146.101 131.93L-145.772 132.782Z" fill="white" fill-opacity="0.1"/>
<path d="M-25.6719 -89.6514C-25.6595 -89.682 -25.6576 -89.7085 -25.6451 -89.7391L-26.0778 -89.5718C-26.4524 -88.5634 -26.8139 -87.5214 -26.8362 -86.1979C-26.8793 -82.4172 -25.1923 -79.1504 -23.5593 -75.9916C-22.6479 -74.2297 -21.7044 -72.4158 -21.0693 -70.5214C-20.0648 -67.5452 -19.4645 -64.2967 -18.8672 -61.1501C-18.3743 -58.5562 -17.8721 -55.8757 -17.1489 -53.345C-12.7658 -37.9845 -6.35783 -25.0436 1.88964 -14.8761C3.60249 -12.7665 8.09779 -10.2368 12.8549 -7.56344C18.9338 -4.13756 25.2255 -0.600547 26.6123 2.48582C26.9275 3.1761 26.9711 3.79092 26.7496 4.37924C26.1163 6.06772 23.2099 7.46155 18.0957 8.50974C14.3874 9.27242 10.4331 9.0216 6.61223 8.77079C4.38497 8.62602 2.07083 8.47614 -0.150403 8.53529C-0.777233 8.54549 -1.42085 8.57506 -2.09423 8.59036C-10.0619 8.84632 -20.9708 9.18182 -24.6331 3.81662C-26.3754 1.25434 -26.3317 -2.46215 -24.499 -7.2309C-21.6144 -14.7393 -18.6241 -22.5078 -18.4753 -32.6071C-18.3356 -42.2903 -20.7387 -60.0918 -25.6335 -68.3323C-26.6373 -70.0197 -27.8169 -70.969 -28.958 -71.8815C-30.4873 -73.1081 -31.9292 -74.2654 -32.5832 -77.1193C-33.0592 -79.2299 -32.7817 -80.6777 -32.5323 -81.9471C-32.2386 -83.4786 -31.9966 -84.8612 -33.0014 -86.8964L-33.318 -86.774C-32.3522 -84.8398 -32.5824 -83.552 -32.8655 -82.0246C-33.123 -80.7134 -33.4086 -79.2238 -32.9066 -77.0459C-32.226 -74.0604 -30.7308 -72.8593 -29.1525 -71.6001C-28.0306 -70.7059 -26.8852 -69.7822 -25.9135 -68.1467C-21.051 -59.9582 -18.6615 -42.2547 -18.808 -32.6203C-18.9573 -22.5853 -21.9352 -14.8474 -24.8073 -7.36956C-26.6792 -2.48254 -26.7155 1.34713 -24.894 4.02055C-21.1306 9.55296 -10.1032 9.21032 -2.04864 8.95947C-1.37959 8.93295 -0.731642 8.91459 -0.104812 8.9044C2.10587 8.84933 4.40512 8.99206 6.62182 9.14091C10.4638 9.38357 14.433 9.64152 18.1878 8.87373C20.1984 8.45772 21.8887 7.99787 23.2186 7.48398C25.3927 6.64381 26.6572 5.67823 27.0771 4.53626C27.3254 3.86025 27.2745 3.13225 26.9289 2.36346C25.4882 -0.830982 19.1475 -4.40062 13.009 -7.85505C8.28174 -10.5142 3.81622 -13.0296 2.15048 -15.08C-6.06909 -25.2068 -12.4491 -38.1069 -16.8212 -53.4072C-17.5357 -55.9154 -18.0379 -58.596 -18.5264 -61.1787C-19.1175 -64.3405 -19.7327 -67.5961 -20.7459 -70.5948C-21.3896 -72.5117 -22.3419 -74.348 -23.2575 -76.1211C-24.9445 -79.388 -26.5429 -82.457 -26.4905 -86.151C-26.4645 -87.5275 -26.0694 -88.6083 -25.6719 -89.6514Z" fill="white" fill-opacity="0.1"/>
<path d="M5.50142 219.536L5.42754 219.565C3.92886 220.144 3.18921 222.75 2.65313 224.659C2.53174 225.066 2.43335 225.44 2.33006 225.737C1.77496 227.408 1.27752 229.135 0.809305 230.811C0.501118 231.897 0.199149 232.967 -0.128261 234.035L-0.163134 234.164C-1.24677 237.638 -1.4342 239.696 -0.749729 240.463C-0.559391 240.673 -0.205846 240.897 0.390084 240.744C0.478851 240.723 0.563286 240.69 0.647719 240.657L0.700493 240.637C4.88315 238.905 6.73372 233.523 7.46943 230.467C8.16405 227.556 8.33117 224.63 7.94775 222.445C7.8607 221.937 7.48987 220.224 6.57623 219.649C6.23568 219.458 5.86893 219.42 5.50142 219.536ZM7.38103 222.548C7.75523 224.646 7.58944 227.482 6.91103 230.309C6.20831 233.262 4.43237 238.46 0.467019 240.095L0.533155 240.392L0.424801 240.112C0.361477 240.136 0.298147 240.161 0.230488 240.174C-0.166798 240.276 -0.299472 240.121 -0.342251 240.073C-0.579703 239.804 -0.974667 238.719 0.376625 234.368L0.422047 234.235C0.745122 233.156 1.05764 232.081 1.36583 230.995C1.83838 229.33 2.32526 227.608 2.8847 225.948C2.98799 225.651 3.0926 225.262 3.20966 224.843C3.68409 223.152 4.40941 220.602 5.70757 220.101C5.92299 220.03 6.11165 220.048 6.30331 220.167C6.8423 220.526 7.22729 221.679 7.38103 222.548Z" fill="white" fill-opacity="0.1"/>
<path d="M160.757 290.135C174.108 283.029 182.465 259.987 177.012 245.311C168.656 222.81 149.638 209.599 131.239 196.831C128.12 194.66 124.887 192.415 121.792 190.183L119.927 188.841C111.159 182.535 101.214 175.383 95.1849 165.84C90.0796 157.746 79.5764 138.382 79.7147 130.233C79.8213 124.263 84.6551 119.004 89.3273 113.925C92.554 110.409 95.6023 107.091 97.2675 103.522L97.3465 103.349C103.034 91.1353 103.034 91.1353 109.122 88.525C110.964 87.7358 113.251 86.7488 116.408 85.1552C120.64 83.017 122.972 81.3295 124.681 80.1019C125.763 79.3229 126.548 78.7489 127.318 78.4512C129.218 77.717 131.366 78.5368 138.462 81.2347C159.443 89.2273 168.561 113.702 177.393 137.372C188.489 167.154 199.969 197.961 235.296 195.46C240.372 195.097 245.071 194.106 249.251 192.49C261.124 187.902 269.045 178.357 272.178 164.901C276.77 145.144 270.168 119.645 255.733 101.44C222.428 59.4217 176.392 45.8233 128.173 34.5506C84.3404 24.3027 48.7878 30.552 18.8917 37.2194C16.7272 37.7078 14.7245 38.3013 12.9303 38.9946C1.47907 43.4198 -1.57442 51.7154 -5.4367 62.2184C-6.91368 66.2439 -8.45098 70.3957 -10.6123 74.879C-13.0963 80.0026 -17.0672 84.3859 -20.9208 88.6336C-27.1971 95.5578 -33.1274 102.091 -32.99 111.486C-32.699 131.419 -11.6086 138.879 7.00891 145.465C15.624 148.516 23.7589 151.393 29.3714 155.244C51.5936 170.53 60.8864 207.196 55.6168 231.855C53.9708 239.556 49.2005 250.126 44.154 261.332C35.7937 279.876 26.3178 300.902 28.5178 314.631C29.5465 321.091 31.4966 325.133 34.4546 326.98C36.9314 328.524 40.0934 328.514 44.1251 326.956C50.7637 324.391 59.1398 317.815 68.0104 310.855C78.854 302.346 91.1491 292.697 103.033 288.104C108.701 285.914 113.757 285.03 118.481 285.422C123.92 285.872 129.039 287.568 133.986 289.227C142.158 291.947 149.873 294.522 158.148 291.324C159.024 290.986 159.899 290.583 160.757 290.135ZM118.518 284.827C113.707 284.431 108.579 285.317 102.827 287.539C90.869 292.16 78.5361 301.838 67.6651 310.37C58.8219 317.306 50.4731 323.858 43.9084 326.395C40.0456 327.888 37.0467 327.912 34.7424 326.47C31.9463 324.727 30.0886 320.83 29.087 314.566C26.9203 301.017 36.3589 280.083 44.6733 261.608C49.7365 250.383 54.5149 239.771 56.1752 232.014C61.4897 207.156 52.1009 170.179 29.6679 154.755C24.0021 150.86 15.8225 147.963 7.16705 144.901C-11.255 138.382 -32.1394 130.983 -32.4265 111.501C-32.5554 102.346 -26.7071 95.8841 -20.5041 89.0527C-16.6232 84.7815 -12.6187 80.3594 -10.1036 75.1594C-7.92556 70.6568 -6.38638 66.4784 -4.89884 62.4489C-1.08199 52.0794 1.92797 43.8908 13.1576 39.5513C14.9307 38.8661 16.9122 38.2808 19.0451 37.8047C48.8735 31.1506 84.3585 24.9145 128.085 35.139C176.198 46.3882 222.134 59.9478 255.321 101.818C269.642 119.887 276.199 145.171 271.645 164.746C268.561 178.016 260.743 187.418 249.049 191.937C244.922 193.531 240.284 194.525 235.251 194.871C219.606 195.98 207.336 190.564 197.768 178.328C189.192 167.372 183.479 152.023 177.95 137.183C169.081 113.385 159.911 88.7756 138.671 80.6769C128.528 76.8106 128.273 76.78 124.367 79.6043C122.679 80.8238 120.354 82.496 116.164 84.6178C113.028 86.2034 110.741 87.1903 108.909 87.9754C102.636 90.6703 102.636 90.6703 96.8528 103.076L96.7738 103.248C95.1502 106.737 92.1292 110.032 88.9255 113.513C84.1756 118.674 79.2685 124.025 79.1618 130.215C79.0184 138.508 89.5884 158.013 94.7303 166.171C100.813 175.821 110.807 183.007 119.629 189.356L121.494 190.697C124.589 192.93 127.821 195.175 130.952 197.342C149.271 210.063 168.213 223.201 176.499 245.522C181.861 259.963 173.634 282.62 160.496 289.617C159.659 290.057 158.805 290.451 157.961 290.778C149.866 293.906 142.246 291.359 134.174 288.677C129.172 287.001 124.019 285.28 118.518 284.827Z" fill="white" fill-opacity="0.1"/>
<path d="M340.793 22.061C340.095 21.854 338.977 21.4095 337.555 20.8375C332.105 18.6637 322.977 15.0369 318.238 16.8682C316.38 17.586 315.366 19.0736 315.218 21.2964C315.031 24.0759 319.563 28.6152 322.567 31.6179C323.3 32.353 323.932 32.9852 324.356 33.4532C325.226 34.4188 326.026 35.2956 326.713 36.1001C331.36 41.4714 336.17 47.012 340.595 53.3458C341.056 54.0055 341.556 54.7661 342.074 55.5716C344.309 59.0006 347.07 63.2575 350.377 64.5962C351.659 65.1193 352.802 65.3476 353.786 65.2895C354.235 65.2579 354.652 65.1743 355.042 65.0234C357.913 63.914 358.547 59.6857 359.162 55.594C359.3 54.6641 359.446 53.6924 359.612 52.8033L359.77 51.956C362.495 37.3806 364.137 28.5732 346.956 23.882C345.276 23.3967 343.085 22.7482 340.793 22.061ZM359.201 51.802L359.043 52.6493C358.875 53.565 358.725 54.5254 358.591 55.4665C357.998 59.3951 357.396 63.4562 354.821 64.4514C354.483 64.5819 354.124 64.6563 353.732 64.6788C352.846 64.7379 351.778 64.5187 350.571 64.0313C347.438 62.767 344.722 58.5958 342.539 55.2372C342.007 54.4246 341.517 53.6599 341.056 53.0002C336.612 46.648 331.793 41.085 327.131 35.7066C326.434 34.9062 325.64 34.014 324.759 33.0525C324.321 32.5774 323.684 31.934 322.947 31.1876C320.201 28.4459 315.611 23.8515 315.789 21.3596C315.926 19.3601 316.798 18.0693 318.455 17.429C322.993 15.6752 331.996 19.2601 337.371 21.3983C338.804 21.9662 339.937 22.4179 340.665 22.6391C342.956 23.3263 345.152 23.986 346.833 24.4448C363.461 28.9892 361.855 37.5764 359.201 51.802Z" fill="white" fill-opacity="0.1"/>
<path d="M344.584 6.13158C341.554 5.22719 338.452 4.10563 335.169 2.92493C325.122 -0.69466 313.744 -4.8057 306.082 -1.84471C304.572 -1.26148 303.245 -0.426423 302.025 0.71555C290.596 11.3838 298.411 25.8307 304.08 33.5012C307.55 38.1802 311.415 42.6553 315.157 46.9713C319.515 52.0031 324.025 57.2082 327.914 62.7824C330.267 66.14 332.233 69.8789 334.137 73.4873C339.985 84.5695 345.507 95.0297 360.071 89.4014C361.222 88.9568 362.441 88.4082 363.687 87.772C365.275 86.9522 366.532 86.1569 367.542 85.3157C370.904 82.4954 371.098 79.5457 371.389 75.089C371.475 73.741 371.578 72.2188 371.79 70.5384C372.102 67.9557 372.563 65.4444 373.107 62.9913L372.882 62.408C372.295 65.0325 371.791 67.7151 371.451 70.4762C371.243 72.1678 371.144 73.7013 371.048 75.0533C370.758 79.4193 370.574 82.3007 367.321 85.0272C366.333 85.8602 365.096 86.6473 363.526 87.4477C362.29 88.0799 361.081 88.6244 359.941 89.0649C345.651 94.5872 340.46 84.7336 334.437 73.3201C332.528 69.7005 330.547 65.9544 328.185 62.5744C324.278 56.9818 319.767 51.7767 315.394 46.7378C311.652 42.4218 307.796 37.9692 304.331 33.3014C298.726 25.7349 291.006 11.4705 302.231 0.996966C303.418 -0.106261 304.713 -0.92909 306.18 -1.496C313.726 -4.41213 325.044 -0.329642 335.037 3.27261C338.324 4.46453 341.436 5.58202 344.467 6.4864C346.758 7.17361 348.773 7.77415 350.263 8.17791C350.873 8.34207 351.482 8.50623 352.091 8.67038L351.935 8.26662C351.407 8.12285 350.867 7.98317 350.339 7.8394C348.876 7.41219 346.861 6.81165 344.584 6.13158Z" fill="white" fill-opacity="0.1"/>
<path d="M249.32 -144.522C247.937 -143.988 246.582 -143.477 245.248 -142.974C243.966 -142.492 242.706 -142.018 241.471 -141.541C234.273 -138.759 228.703 -136.13 223.176 -131.661C220.284 -129.318 217.837 -126.452 215.469 -123.668C211.521 -119.036 207.781 -114.651 202.134 -112.469C201.195 -112.106 200.219 -111.807 199.234 -111.593C194.818 -110.622 190.695 -112.032 186.701 -113.389C182.217 -114.917 177.972 -116.358 173.487 -114.625C173.075 -114.466 172.672 -114.284 172.268 -114.076C169.609 -112.701 166.199 -108.341 162.896 -104.112C160.768 -101.395 158.763 -98.8287 157.194 -97.3972C154.91 -95.3029 153.089 -94.0192 151.769 -93.0709C147.77 -90.2364 147.371 -89.6052 148.562 -80.0882C148.899 -77.4596 149.333 -75.0492 149.747 -72.7214C151.308 -64.069 152.541 -57.2366 146.812 -48.0488C142.943 -41.8618 136.802 -37.194 128.021 -33.8007C119.324 -30.44 109.492 -28.8575 100.807 -27.4738C96.2705 -26.7519 91.9771 -26.0596 88.9174 -25.251C87.1339 -24.781 84.4477 -23.8847 81.7459 -22.8406C73.9991 -19.847 66.0884 -13.3225 67.1238 -8.75972C67.6215 -6.59304 70.3077 -4.09907 80.3602 -4.51613L81.4823 -4.56304C119.789 -6.10179 149.215 -0.173863 183.04 15.9135C192.373 20.3508 198.7 21.6569 202.932 20.0214C203.925 19.638 204.832 19.068 205.612 18.3543C209.429 14.8295 210.376 7.51582 211.481 -0.955139C212.049 -5.32521 212.694 -10.2795 213.807 -15.2471C219.179 -39.2631 232.078 -60.2835 250.133 -74.4277C255.459 -78.6 260.999 -81.8107 266.582 -83.9683C284.809 -91.0118 301.341 -86.495 317.291 -81.4439L317.018 -82.1505C301.102 -87.1761 284.613 -91.5808 266.365 -84.529C260.729 -82.3511 255.151 -79.1128 249.777 -74.9089C231.619 -60.6863 218.645 -39.5465 213.248 -15.4051C212.129 -10.4223 211.493 -5.44552 210.919 -1.06016C209.832 7.30068 208.893 14.5083 205.229 17.8965C204.498 18.5787 203.655 19.0976 202.716 19.4606C198.621 21.0431 192.442 19.7441 183.258 15.3782C149.344 -0.751993 119.837 -6.7003 81.4369 -5.15135L80.3148 -5.10445C72.7945 -4.78936 68.3075 -6.13625 67.6906 -8.86269C66.8313 -12.6557 73.6397 -19.0507 81.9774 -22.2727C84.6582 -23.3087 87.319 -24.208 89.0813 -24.6699C92.12 -25.4703 96.4028 -26.1585 100.929 -26.8764C109.634 -28.2682 119.503 -29.8517 128.252 -33.2327C137.139 -36.6668 143.377 -41.3979 147.31 -47.7001C153.156 -57.0877 151.905 -64.0292 150.322 -72.802C149.908 -75.1298 149.468 -77.5248 149.146 -80.1463C147.947 -89.6215 148.347 -89.905 152.119 -92.5744C153.464 -93.5195 155.291 -94.8185 157.602 -96.9363C159.206 -98.4066 161.227 -100.992 163.361 -103.725C166.471 -107.698 170.001 -112.22 172.548 -113.54C172.931 -113.74 173.324 -113.917 173.714 -114.068C178.02 -115.732 182.169 -114.319 186.564 -112.833C190.628 -111.452 194.832 -110.021 199.394 -111.023C200.411 -111.249 201.422 -111.55 202.383 -111.921C208.156 -114.152 212.114 -118.788 215.927 -123.265C218.284 -126.019 220.709 -128.877 223.557 -131.176C229.035 -135.614 234.558 -138.212 241.703 -140.973C242.938 -141.45 244.187 -141.92 245.469 -142.402C246.803 -142.905 248.158 -143.416 249.541 -143.95C255.989 -146.442 262.06 -147.873 268.122 -148.32C275.773 -148.892 283.619 -148.585 291.661 -147.8L291.423 -148.417C283.45 -149.178 275.666 -149.483 268.061 -148.916C261.938 -148.47 255.81 -147.03 249.32 -144.522Z" fill="white" fill-opacity="0.1"/>
<path d="M348.647 15.8931C347.072 15.4577 344.921 14.8195 342.67 14.1425C339.444 13.1718 336.247 12.0227 332.839 10.8002C332.078 10.5269 331.224 10.1996 330.329 9.86216C324.594 7.67001 316.739 4.67239 311.378 6.74427C309.9 7.31526 308.684 8.24922 307.772 9.52986C300.859 19.2009 312.048 31.5831 318.728 38.9793C319.536 39.8786 320.312 40.7259 320.971 41.4896C325.477 46.6835 330.14 52.0619 334.298 58.0216C335.081 59.137 335.951 60.4768 336.861 61.891C341.061 68.3635 346.808 77.2412 353.228 78.7564C354.283 79.0062 355.308 79.0225 356.258 78.8104C356.539 78.7533 356.828 78.6544 357.102 78.5483C363.308 76.1502 365.623 63.7445 367.32 54.671C367.632 53.0294 367.907 51.5438 368.19 50.2357L367.964 49.6524C367.653 51.0748 367.335 52.7317 366.987 54.5935C365.316 63.5794 363.009 75.879 356.972 78.2119C356.709 78.3138 356.447 78.3893 356.17 78.4576C355.267 78.6646 354.299 78.6391 353.289 78.4107C347.005 76.9333 341.298 68.13 337.141 61.7054C336.22 60.2953 335.361 58.9515 334.574 57.8248C330.4 51.858 325.734 46.4684 321.224 41.2632C320.565 40.4996 319.799 39.6482 318.98 38.753C312.367 31.4342 301.316 19.1917 308.058 9.76742C308.941 8.53674 310.098 7.63847 311.512 7.09195C316.758 5.06494 324.542 8.03809 330.222 10.2129C331.121 10.5616 331.971 10.8777 332.761 11.1652C336.154 12.3806 339.356 13.5409 342.593 14.5075C344.844 15.1845 346.995 15.8228 348.57 16.2581C350.685 16.8332 352.816 17.3889 355.083 17.9823C355.325 18.0434 355.552 18.0975 355.784 18.1627L355.628 17.759C355.466 17.7182 355.305 17.6774 355.129 17.6295C352.883 17.0279 350.762 16.4682 348.647 15.8931Z" fill="white" fill-opacity="0.1"/>
<path d="M324.546 116.691C325.468 117.288 327.025 117.989 329.938 117.146C340.837 113.992 357.317 109.209 375.81 117.041L376.025 117.126C382.352 119.811 388.272 124.02 393.62 129.636C395.102 131.178 396.748 131.766 398.152 131.224C398.532 131.077 398.892 130.848 399.218 130.529L399.062 130.125C398.755 130.462 398.412 130.737 398.022 130.887C396.755 131.377 395.234 130.83 393.853 129.392C388.467 123.739 382.501 119.509 376.13 116.802L375.915 116.717C357.308 108.838 340.76 113.635 329.819 116.806C327.036 117.61 325.559 116.957 324.7 116.399C322.636 115.044 321.357 112.238 321.163 111.295C319.977 103.864 318.501 94.612 314.204 85.5344C306.938 70.1535 295.718 58.8532 284.882 47.9199C276.181 39.1523 266.321 29.208 266.03 23.0557C265.521 12.102 273.378 -6.93121 276.771 -14.5977C278.929 -19.4664 282.43 -22.8688 287.158 -24.696C289.86 -25.7401 292.427 -26.0358 294.11 -26.1061C305.103 -26.5385 321.791 -24.222 341.16 -19.6797L341.004 -20.0835C321.705 -24.6013 305.061 -26.8964 294.079 -26.4681C292.381 -26.4049 289.768 -26.1041 287.024 -25.0437C282.211 -23.1839 278.66 -19.7233 276.465 -14.7629C273.059 -7.06579 265.178 12.0285 265.691 23.0577C265.992 29.361 275.905 39.3491 284.653 48.1758C295.466 59.0795 306.652 70.3544 313.907 85.6751C318.186 94.7078 319.65 103.926 320.846 111.353C321.043 112.334 322.388 115.282 324.546 116.691Z" fill="white" fill-opacity="0.1"/>
<path d="M340.482 98.8542C343.431 99.3263 346.953 98.6482 350.362 97.9885C352.89 97.5012 355.497 96.9964 357.776 96.9923C359.219 96.9893 360.883 97.184 362.645 97.3798C366.285 97.7907 370.413 98.2709 373.537 97.0636C374.138 96.8312 374.693 96.5396 375.19 96.1929C375.324 96.1021 375.444 96.0043 375.575 95.9023C379.504 92.7598 379.583 85.8713 379.526 79.6027L379.175 78.6943C379.177 78.732 379.18 78.7697 379.172 78.8115C379.24 85.2045 379.321 92.4438 375.358 95.625C375.239 95.7229 375.114 95.8095 374.99 95.8962C374.521 96.2194 373.987 96.5029 373.407 96.7272C370.357 97.9059 366.269 97.4358 362.665 97.0239C360.888 96.821 359.213 96.6304 357.761 96.6375C355.446 96.6426 352.817 97.1555 350.274 97.6357C346.886 98.2873 343.385 98.9572 340.503 98.4984C334.114 97.4737 332.513 91.6986 330.808 85.5901C330.141 83.2052 329.45 80.7265 328.451 78.6119C319.877 60.475 307.595 48.0898 295.718 36.1277C290.331 30.6942 287.346 23.5977 287.326 16.1678C287.308 8.11794 290.755 0.276082 296.785 -5.341C298.665 -7.09882 300.803 -8.44065 303.157 -9.35016C313.341 -13.2859 326.111 -8.68138 337.374 -4.61622C340.561 -3.46305 343.573 -2.38431 346.387 -1.53804C347.116 -1.31679 347.774 -1.12001 348.392 -0.93342L348.232 -1.34841C347.684 -1.51053 347.095 -1.68282 346.463 -1.87655C343.664 -2.71568 340.651 -3.79442 337.464 -4.94759C326.146 -9.03008 313.311 -13.6479 303.02 -9.67133C300.635 -8.74959 298.459 -7.38024 296.552 -5.59897C290.451 0.0843845 286.966 8.01803 286.987 16.1698C287 23.7058 290.03 30.8879 295.494 36.3949C307.356 48.3498 319.615 60.7054 328.152 78.7791C329.138 80.8601 329.824 83.3276 330.487 85.7012C332.159 91.6293 333.871 97.7867 340.482 98.8542Z" fill="white" fill-opacity="0.1"/>
<path d="M253.698 -133.195C244.822 -129.765 236.045 -124.414 226.731 -118.727C216.259 -112.334 205.422 -105.722 193.021 -100.93C192.124 -100.583 191.233 -100.252 190.38 -99.9482C186.03 -98.3964 182.088 -97.7366 178.614 -97.1544C175.606 -96.6497 173.005 -96.2245 170.694 -95.3313C165.205 -93.2105 162.361 -88.5794 160.864 -79.3641C160.143 -74.9217 160.268 -69.9816 160.386 -65.219C160.602 -56.7817 160.823 -48.0497 156.53 -41.1704C155.054 -38.8079 151.532 -36.055 147.809 -33.1338C141.299 -28.0397 133.919 -22.2748 134.825 -16.5405C135.977 -9.35427 152.306 -5.23612 161.084 -3.02053C162.712 -2.60555 164.123 -2.24868 165.068 -1.96931C175.588 1.2098 183.89 2.82278 190.244 0.367528C191.109 0.0330913 191.944 -0.379858 192.724 -0.874374C197.417 -3.79661 200.545 -9.38818 202.571 -18.4597C208.53 -45.1002 222.883 -68.4484 242.982 -84.2076C249.156 -89.0427 255.621 -92.7786 262.207 -95.3235C280.413 -102.359 296.911 -99.7498 311.863 -95.5246L311.703 -95.9396C296.76 -100.142 280.283 -102.695 262.077 -95.66C255.47 -93.1069 248.977 -89.3475 242.776 -84.489C222.607 -68.69 208.22 -45.2766 202.244 -18.5525C200.24 -9.57985 197.158 -4.05761 192.541 -1.19043C191.778 -0.715289 190.964 -0.310515 190.109 0.0198431C183.84 2.44247 175.6 0.831526 165.15 -2.32312C164.201 -2.6137 162.778 -2.96649 161.15 -3.38147C152.454 -5.57666 136.271 -9.66117 135.153 -16.6027C134.278 -22.13 141.576 -27.8246 148.015 -32.8523C151.77 -35.7858 155.312 -38.5469 156.814 -40.9705C161.169 -47.9386 160.942 -56.7195 160.73 -65.2098C160.605 -69.9572 160.488 -74.8748 161.197 -79.2866C162.67 -88.3765 165.451 -92.9189 170.813 -94.9908C173.093 -95.8717 175.669 -96.3 178.665 -96.8006C182.155 -97.3757 186.118 -98.0436 190.489 -99.6036C191.352 -99.9115 192.243 -100.243 193.14 -100.59C205.573 -105.394 216.421 -112.009 226.92 -118.426C236.207 -124.09 244.969 -129.448 253.813 -132.866C259.28 -134.978 264.359 -136.181 269.358 -136.553C277.928 -137.196 286.975 -136.606 296.414 -135.471L296.267 -135.852C286.868 -136.977 277.862 -137.557 269.313 -136.922C264.311 -136.523 259.186 -135.316 253.698 -133.195Z" fill="white" fill-opacity="0.1"/>
<path d="M335.99 107.537C338.375 107.273 340.679 106.989 342.917 106.691C355.005 105.139 365.435 103.816 378.507 109.296L378.766 109.402C381.776 110.662 383.891 111.018 385.263 110.488C385.474 110.406 385.677 110.302 385.855 110.169C387.729 108.865 387.576 105.392 387.175 100.996C387.116 100.31 387.072 99.6311 387.013 98.9449L386.588 97.8458C386.657 98.9021 386.74 99.9656 386.83 101.014C387.213 105.3 387.374 108.667 385.656 109.872C384.414 110.739 382.236 110.472 378.878 109.063L378.618 108.957C365.458 103.433 354.985 104.773 342.85 106.33C340.618 106.613 338.308 106.912 335.934 107.172C327.4 108.098 325.718 99.8537 324.098 91.8946C323.386 88.4187 322.657 84.8073 321.354 82.0625C313.437 65.3092 301.69 53.4644 290.322 42.002C288.968 40.6306 287.567 39.3286 286.226 38.0551C279.227 31.4653 273.175 25.7861 274.647 15.3432C275.749 7.49217 279.107 0.110159 282.345 -7.01899C282.929 -8.30167 283.513 -9.58435 284.075 -10.8589C285.315 -13.6455 287.665 -15.7265 291.053 -17.0357C304.056 -22.0604 329.738 -15.0854 344.666 -10.6705L344.505 -11.0855C329.501 -15.5095 303.947 -22.4051 290.923 -17.3722C287.451 -16.0304 285.04 -13.8871 283.758 -11.02C283.196 -9.74544 282.612 -8.46277 282.028 -7.1801C278.778 -0.0203546 275.414 7.37696 274.297 15.2851C272.802 25.9176 279.208 31.9496 285.991 38.3263C287.343 39.5957 288.733 40.9018 290.088 42.2732C301.421 53.7101 313.155 65.5213 321.04 82.2225C322.315 84.9266 323.046 88.5115 323.75 91.9649C325.42 100.085 327.131 108.499 335.99 107.537Z" fill="white" fill-opacity="0.1"/>
<path d="M176.294 354.888C175.28 360.204 174.01 366.805 176.582 370.039C177.627 371.363 179.242 372.028 181.373 372.016C181.773 372.016 182.19 371.933 182.601 371.774C186.675 370.199 190.547 361.008 193.966 352.906C196.134 347.75 198.195 342.88 199.867 341.086C207.87 332.541 220.572 325.042 231.769 318.42C236.194 315.808 240.372 313.343 244.154 310.888C252.793 305.307 261.474 300.805 269.97 297.522C297.769 286.779 325.213 288.394 351.552 302.309C354.509 303.873 357.934 303.916 361.766 302.435C373.671 297.835 389.334 277.628 394.889 249.249C398.216 232.275 399.924 199.531 373.977 171.027C363.582 159.602 353.427 156.333 342.018 160.742C333.342 164.094 324.752 171.307 314.807 179.662C302.574 189.944 288.7 201.597 271.497 208.245C258.103 213.42 244.538 214.886 230.028 212.745C185.255 206.122 169.518 168.569 160.8 136.592C157.415 124.159 151.752 115.467 144.437 111.449C139.265 108.614 133.584 108.257 127.99 110.418C117.394 114.513 107.546 128.361 109.233 146.916C110.824 164.373 126.989 174.562 145.703 186.357C166.815 199.649 190.736 214.716 198.584 244.129C202.473 258.714 202.859 273.995 199.601 285.025C197.133 293.391 192.974 295.655 188.564 298.056C185.195 299.886 181.719 301.783 178.542 306.337C176.114 309.815 176.546 313.979 176.998 318.381C177.31 321.418 177.626 324.558 176.955 327.498C176.583 329.111 175.182 329.975 173.712 330.878C171.763 332.082 169.547 333.441 169.405 336.809C169.305 339.155 171.38 341.073 173.383 342.929C175.06 344.473 176.783 346.075 177.131 347.823C177.378 349.248 176.874 351.867 176.294 354.888ZM173.777 342.442C171.813 340.623 169.944 338.895 170.031 336.89C170.163 333.874 172.133 332.661 174.033 331.489C175.562 330.55 177.14 329.579 177.566 327.7C178.266 324.645 177.94 321.446 177.631 318.355C177.191 314.078 176.785 310.045 179.065 306.78C182.156 302.349 185.573 300.487 188.868 298.686C193.396 296.214 197.666 293.894 200.215 285.265C203.502 274.12 203.127 258.68 199.205 243.979C191.274 214.289 167.225 199.142 146.011 185.774C127.459 174.084 111.427 163.986 109.877 146.886C108.222 128.667 117.856 115.082 128.231 111.073C133.645 108.981 139.149 109.316 144.137 112.055C151.279 115.972 156.821 124.504 160.158 136.75C168.933 168.937 184.791 206.74 229.949 213.42C244.576 215.58 258.245 214.1 271.744 208.884C289.042 202.199 302.95 190.508 315.22 180.198C325.117 171.875 333.67 164.69 342.25 161.374C353.532 157.014 363.169 160.135 373.494 171.472C399.231 199.747 397.527 232.219 394.235 249.063C388.913 276.192 373.415 297.173 361.499 301.778C357.858 303.185 354.596 303.156 351.821 301.689C325.315 287.685 297.687 286.064 269.718 296.872C261.191 300.167 252.468 304.685 243.791 310.294C240.015 312.733 235.837 315.198 231.422 317.806C220.183 324.444 207.455 331.967 199.38 340.579C197.63 342.454 195.648 347.151 193.358 352.587C189.992 360.577 186.177 369.632 182.346 371.112C182.008 371.243 181.67 371.309 181.346 371.318C179.406 371.32 178.013 370.762 177.09 369.598C174.73 366.63 175.958 360.2 176.946 355.036C177.541 351.931 178.05 349.26 177.748 347.726C177.35 345.753 175.535 344.07 173.777 342.442Z" fill="white" fill-opacity="0.1"/>
<path d="M401.797 179.767C403.514 180.16 405.904 179.817 408.553 178.793C410.907 177.884 413.533 176.392 416.125 174.281L415.809 173.463C413.225 175.596 410.603 177.098 408.25 178.008C405.78 178.962 403.487 179.307 401.942 178.95C394.111 177.142 388.504 170.763 382.563 164.022C377.44 158.203 372.13 152.185 365.195 149.181L365.093 148.949L364.876 149.046C356.999 145.864 348.202 146.234 337.965 150.19C327.98 154.048 318.463 160.653 310.819 165.952C305.598 169.581 301.08 172.706 297.872 173.946C295.993 174.672 294.682 174.702 293.882 174.044C292.816 173.167 292.472 170.864 292.863 167.232C294.687 150.26 296.383 110.829 289.963 97.2612C284.905 86.5573 275.524 77.0984 266.449 67.9596C253.314 54.7179 239.743 41.0389 238.903 23.265C237.959 2.99199 251.951 -39.3078 269.678 -49.2776C270.715 -49.8588 271.866 -50.3941 273.101 -50.8713C285.323 -55.5942 306.182 -54.7602 329.139 -50.7543L328.814 -51.5955C305.855 -55.5749 285.019 -56.3793 272.798 -51.6564C271.531 -51.167 270.348 -50.6194 269.284 -50.0148C251.331 -39.9063 237.151 2.81458 238.107 23.2762C238.954 41.3825 252.66 55.19 265.904 68.5571C274.921 77.6408 284.244 87.0447 289.24 97.6181C294.959 109.717 294.306 146.23 292.066 167.115C291.634 171.175 292.047 173.594 293.399 174.708C294.44 175.582 296.005 175.583 298.169 174.747C301.462 173.474 306.007 170.326 311.266 166.669C318.878 161.382 328.358 154.805 338.257 150.979C348.368 147.072 357.036 146.713 364.75 149.881C371.589 152.794 376.864 158.786 381.975 164.572C388.02 171.426 393.724 177.898 401.797 179.767Z" fill="white" fill-opacity="0.1"/>
<path d="M415.434 233.356C415.257 241.184 415.084 248.586 413.886 255.404C406.861 295.076 387.265 308.874 366.514 323.481C364.931 324.595 363.255 325.72 361.638 326.809C354.654 331.493 347.442 336.342 342.71 343.275C341.231 345.445 340.219 347.409 339.667 349.182L340.353 348.917C340.918 347.333 341.853 345.579 343.177 343.636C347.846 336.792 355.02 331.97 361.956 327.317C363.584 326.224 365.26 325.1 366.843 323.985C387.676 309.309 407.368 295.447 414.436 255.539C415.653 248.675 415.821 241.263 416.002 233.381C416.284 220.897 416.618 206.756 421.995 199.986C423.035 199.004 424.042 198.125 425.024 197.307L424.798 196.724C423.762 197.589 422.694 198.53 421.589 199.563C416.046 206.5 415.719 220.754 415.434 233.356Z" fill="white" fill-opacity="0.1"/>
<path d="M330.105 338.879C340.269 328.171 350.436 321.019 360.274 314.084C380.032 300.172 397.089 288.154 403.331 252.922C404.385 246.985 404.542 240.014 404.708 232.628C405.056 217.206 405.42 201.261 413.771 191.511C416.159 189.248 418.394 187.34 420.551 185.733L420.238 184.926C417.995 186.592 415.658 188.578 413.164 190.947C404.64 200.905 404.275 217.005 403.911 232.575C403.742 239.924 403.587 246.867 402.544 252.736C396.349 287.653 379.417 299.584 359.8 313.391C349.941 320.334 339.74 327.524 329.522 338.279C322.875 345.282 319.165 351.846 318.67 357.284L319.494 356.966C320.111 351.815 323.742 345.578 330.105 338.879Z" fill="white" fill-opacity="0.1"/>
<path d="M239.51 271.342C240.043 271.433 240.555 271.377 241.04 271.189C242.919 270.463 244.001 267.802 244.974 265.454C245.528 264.093 246.061 262.804 246.646 262.152C247.409 261.303 248.205 260.725 249.081 260.386C250.759 259.738 252.513 260.04 254.541 260.39C255.266 260.51 256.022 260.643 256.81 260.738C258.704 260.96 260.396 260.757 261.99 260.141C263.594 259.522 264.92 258.558 266.337 257.547C267.808 256.488 269.327 255.398 271.284 254.591L271.537 254.493C275.548 252.943 280.074 253.733 284.454 254.49C288.809 255.243 293.311 256.03 297.289 254.493C299.2 253.754 300.845 252.551 302.317 250.835C303.493 249.453 304.252 248.025 304.912 246.752C305.993 244.684 306.931 242.904 309.316 241.982C310.012 241.713 310.801 241.524 311.717 241.415C319.151 240.501 324.695 245.965 330.052 251.255C332.564 253.739 335.153 256.296 337.874 258.094C343.329 261.696 348.946 262.671 353.696 260.835L353.939 260.742C358.664 258.813 362.155 254.254 363.781 247.915C365.978 239.319 366.216 213.974 358.37 204.438C356.056 201.619 353.209 200.373 349.925 200.727C348.761 200.855 347.734 201.084 346.773 201.455C343.691 202.646 341.948 205.009 339.932 207.734C339.478 208.348 339.007 208.981 338.504 209.626C334.347 214.971 329.245 217.716 323.834 220.632C321.715 221.773 319.517 222.958 317.358 224.308C314.956 225.816 312.986 227.686 311.087 229.49C308.583 231.862 306.222 234.102 303.13 235.297C301.04 236.105 298.795 236.354 296.26 236.07C291.032 235.474 285.482 235.208 280.247 237.231C278.517 237.9 276.889 238.773 275.3 239.903C274.576 240.415 273.867 240.934 273.179 241.445C270.466 243.434 267.905 245.313 265.002 246.435C262.649 247.344 260.233 247.685 257.622 247.456L256.515 247.356C251.767 246.934 246.861 246.51 242.649 248.138C240.317 249.039 238.408 250.473 236.785 252.518C234.749 255.097 233.744 263.013 235.508 267.578C236.339 269.758 237.725 271.052 239.51 271.342ZM237.223 252.929C238.779 250.961 240.622 249.578 242.86 248.714C246.965 247.127 251.8 247.553 256.487 247.972L257.593 248.073C260.277 248.3 262.775 247.953 265.213 247.011C268.179 245.865 270.767 243.962 273.507 241.949C274.195 241.439 274.894 240.924 275.618 240.412C277.169 239.31 278.744 238.456 280.443 237.8C285.572 235.817 291.05 236.086 296.202 236.673C298.828 236.973 301.151 236.707 303.326 235.866C306.513 234.635 308.918 232.352 311.455 229.94C313.338 228.156 315.28 226.309 317.64 224.818C319.788 223.472 321.966 222.295 324.084 221.154C329.538 218.222 334.698 215.441 338.918 210.008C339.421 209.362 339.898 208.714 340.352 208.1C342.322 205.444 344.015 203.14 346.95 202.006C347.857 201.655 348.849 201.427 349.955 201.308C353.042 200.979 355.715 202.151 357.892 204.803C365.605 214.184 365.348 239.227 363.173 247.724C361.596 253.877 358.223 258.3 353.656 260.168L353.424 260.257C348.843 262.027 343.405 261.074 338.111 257.577C335.439 255.812 332.985 253.383 330.38 250.819C324.924 245.425 319.279 239.859 311.57 240.815C310.607 240.929 309.787 241.13 309.048 241.415C306.473 242.41 305.498 244.282 304.354 246.439C303.667 247.736 302.971 249.074 301.829 250.418C300.418 252.072 298.848 253.22 297.022 253.926C293.18 255.41 288.953 254.672 284.477 253.888C280.026 253.107 275.423 252.308 271.276 253.911L271.012 254.013C268.992 254.845 267.456 255.954 265.957 257.036C264.572 258.035 263.263 258.979 261.733 259.571C260.203 260.162 258.635 260.342 256.807 260.133C256.033 260.046 255.293 259.919 254.578 259.796C252.55 259.445 250.644 259.125 248.839 259.822C247.878 260.194 247.018 260.823 246.193 261.734C245.541 262.463 244.995 263.783 244.423 265.19C243.505 267.427 242.461 269.97 240.804 270.61C240.414 270.761 240.006 270.803 239.564 270.728C237.971 270.467 236.773 269.345 236.011 267.371C234.229 262.761 235.503 255.102 237.223 252.929Z" fill="white" fill-opacity="0.1"/>
<path d="M186.758 337.295C187.507 337.225 188.755 336.845 190.296 336.25C193.505 335.01 205.225 329.901 221.289 316.191C234.718 304.736 251.731 294.707 269.177 287.966C297.905 276.864 318.755 274.066 352.997 289.567C355.423 290.666 358.113 290.658 360.973 289.553C371.654 285.425 383.036 266.822 386.88 247.199C389.884 231.871 391.451 202.339 368.16 176.754C358.131 165.741 351.141 166.393 345.083 168.734C337.589 171.629 329.457 178.459 320.035 186.379C307.345 197.046 292.947 209.132 274.561 216.237C259.902 221.902 245.058 223.513 229.182 221.166C178.996 213.747 161.637 170.491 152.954 138.604C150.264 128.725 145.967 121.749 140.874 118.96C137.812 117.282 134.504 117.103 131.064 118.433C123.243 121.455 116.008 132.05 117.318 146.458C118.501 159.471 132.947 168.571 149.672 179.111C171.044 192.573 197.642 209.326 206.397 242.153C208.904 251.561 209.961 261.013 209.519 270.259C208.816 284.982 205.592 298.486 199.925 310.409C196.183 318.274 191.775 324.476 188.559 328.993C185.628 333.117 183.856 335.593 184.489 336.728C184.775 337.249 185.496 337.421 186.758 337.295ZM188.845 329.231C192.067 324.699 196.486 318.492 200.24 310.596C205.926 298.628 209.168 285.077 209.88 270.313C210.33 261.026 209.266 251.524 206.75 242.094C197.949 209.117 171.283 192.313 149.851 178.823C133.21 168.341 118.843 159.288 117.671 146.463C116.38 132.228 123.498 121.769 131.202 118.792C134.548 117.499 137.754 117.665 140.738 119.297C145.752 122.038 149.972 128.941 152.643 138.711C161.366 170.699 178.776 214.09 229.171 221.544C245.112 223.904 260.013 222.284 274.715 216.603C293.153 209.478 307.568 197.372 320.286 186.682C329.68 178.785 337.785 171.979 345.236 169.1C351.189 166.8 358.054 166.17 367.936 177.021C391.107 202.485 389.55 231.884 386.566 247.14C382.809 266.329 371.268 285.213 360.862 289.235C358.076 290.311 355.483 290.321 353.132 289.257C336.535 281.749 322.476 278.326 308.869 278.492C297.162 278.646 285.251 281.38 269.04 287.645C251.552 294.403 234.508 304.444 221.051 315.922C205.032 329.589 193.353 334.682 190.156 335.917C188.646 336.501 187.415 336.861 186.701 336.93C185.626 337.036 184.973 336.915 184.773 336.554C184.278 335.649 186.184 332.953 188.845 329.231Z" fill="white" fill-opacity="0.1"/>
<path d="M134.059 126.184C128.402 128.37 124.534 136.851 124.608 143.1C124.657 147.245 128.079 153.025 133.76 158.59C139.109 163.832 144.862 167.229 148.062 167.037C148.547 167.004 149.021 166.911 149.443 166.748C149.918 166.565 150.358 166.291 150.747 165.948C153.895 163.171 152.883 160.804 150.676 155.624C149.311 152.439 147.456 148.077 145.734 141.769C143.427 133.288 139.823 127.54 137.456 126.25C136.696 125.822 135.758 125.527 134.059 126.184ZM145.18 141.905C146.909 148.262 148.784 152.643 150.157 155.85C152.369 161.041 153.205 162.987 150.364 165.49C149.702 166.068 148.908 166.4 147.996 166.456C144.95 166.641 139.372 163.318 134.133 158.175C128.572 152.732 125.221 147.104 125.176 143.126C125.104 137.069 128.823 128.864 134.275 126.745C135.763 126.17 136.562 126.415 137.205 126.76C139.456 128.004 142.917 133.601 145.18 141.905Z" fill="white" fill-opacity="0.1"/>
<path d="M324.627 239.352C325.968 239.401 326.8 239.544 327.85 239.718C328.265 239.789 328.707 239.864 329.235 239.943C334.541 240.742 339.157 241.858 342.596 243.159C344.544 243.902 345.969 244.073 346.95 243.694C348.396 243.135 348.738 241.507 348.947 240.009C349.716 234.401 349.235 230.487 347.871 223.821C347.703 223.01 347.308 221.925 346.412 221.395C345.279 220.724 343.705 221.139 341.74 222.646C335.812 227.205 331.652 229.844 326.388 233.206C325.464 233.795 324.518 234.393 323.518 235.037C322.507 235.686 321.994 236.838 322.267 237.828C322.39 238.27 322.867 239.285 324.627 239.352ZM323.87 235.636C324.86 234.995 325.816 234.394 326.731 233.808C332.004 230.443 336.181 227.785 342.131 223.217C342.869 222.648 343.539 222.247 344.141 222.015C344.932 221.709 345.595 221.697 346.087 221.997C346.762 222.394 347.068 223.281 347.205 223.95C348.555 230.518 349.029 234.382 348.273 239.895C348.045 241.504 347.691 242.66 346.678 243.051C345.844 243.373 344.563 243.198 342.774 242.523C339.291 241.201 334.624 240.078 329.278 239.269C328.76 239.186 328.308 239.116 327.903 239.04C326.828 238.863 325.981 238.713 324.594 238.669C323.672 238.638 323.042 238.263 322.869 237.66C322.698 236.965 323.112 236.122 323.87 235.636Z" fill="white" fill-opacity="0.1"/>
<path d="M232.261 288.62C233.232 288.245 234.39 287.694 235.809 286.94C236.422 286.612 251.034 278.877 267.467 272.527C273.873 270.052 279.692 268.125 284.763 266.81C310.098 260.204 335.855 264.391 350.137 271.466C352.764 272.772 355.364 272.94 357.876 271.969C363.502 269.795 368.414 261.916 371.371 250.357C376.548 230.104 368.218 198.376 357.989 188.575C355.274 185.976 352.545 185.097 350.096 186.043C349.896 186.121 349.689 186.213 349.487 186.317C345.24 188.513 339.818 192.812 332.969 198.256C320.133 208.45 302.549 222.4 281.013 231.147C262.617 238.63 238.433 239.017 229.796 238.075C226.97 237.762 225.242 237.811 224.187 238.218C222.034 239.05 222.786 241.248 224.019 244.909C224.997 247.818 226.351 251.794 226.757 256.767C227.51 265.809 227.187 273.011 226.952 278.271C226.696 284.106 226.528 287.626 228.074 288.833C228.916 289.474 230.214 289.411 232.261 288.62ZM227.284 278.284C227.516 273.013 227.844 265.796 227.083 256.731C226.66 251.713 225.303 247.7 224.32 244.78C223.111 241.212 222.45 239.25 224.297 238.536C225.29 238.153 227.022 238.115 229.756 238.412C238.256 239.343 261.73 238.973 280.052 231.892C280.411 231.754 280.78 231.611 281.135 231.461C302.712 222.697 320.313 208.729 333.167 198.515C340.009 193.087 345.41 188.795 349.635 186.608C352.145 185.316 354.879 186.051 357.737 188.801C367.893 198.541 376.16 230.073 371.012 250.213C368.088 261.668 363.238 269.459 357.718 271.592C355.302 272.526 352.788 272.363 350.25 271.1C335.909 263.997 310.075 259.8 284.652 266.428C279.57 267.747 273.741 269.677 267.324 272.157C250.881 278.511 236.252 286.266 235.634 286.582C234.226 287.332 233.079 287.879 232.118 288.25C230.208 288.988 228.976 289.064 228.247 288.496C226.884 287.449 227.032 284.002 227.284 278.284Z" fill="white" fill-opacity="0.1"/>
<path d="M213.609 310.6C214.59 310.221 215.742 309.466 216.865 308.478C229.534 297.318 245.651 288.047 266.137 280.131C291.646 270.273 317.881 262.984 358.197 281.9C359.354 282.445 360.61 282.462 361.919 281.957C369.951 278.853 378.471 256.766 379.062 245.207C379.116 244.154 379.18 243.034 379.259 241.856C380.148 227.488 381.623 203.431 362.487 182.415C354.838 174.014 351.271 175.393 348.115 176.612C341.782 179.059 334.091 185.525 325.189 193C312.051 204.045 297.15 216.558 277.604 224.111C260.876 230.576 246.084 232.541 229.618 230.486C227.069 230.169 224.562 229.707 222.347 229.313C217.914 228.512 214.418 227.878 212.592 228.584C211.167 229.134 210.878 230.458 211.687 232.646C211.821 232.993 212.076 233.527 212.449 234.272C222.628 254.805 222.551 277.677 212.227 302.253C210.428 306.544 210.018 309.281 211.017 310.39C211.555 310.968 212.448 311.049 213.609 310.6ZM212.539 302.403C219.181 286.598 221.624 271.293 219.789 256.907C218.317 245.346 214.413 237.471 212.753 234.116C212.384 233.382 212.129 232.849 212.004 232.523C211.034 229.92 211.951 229.218 212.722 228.92C214.463 228.247 218.101 228.904 222.302 229.665C224.521 230.071 227.034 230.518 229.598 230.842C246.115 232.903 260.957 230.944 277.738 224.459C297.338 216.885 312.255 204.353 325.421 193.284C334.302 185.817 341.976 179.371 348.255 176.945C351.306 175.766 354.767 174.428 362.25 182.648C381.266 203.543 379.798 227.494 378.913 241.809C378.839 242.998 378.771 244.108 378.721 245.171C378.135 256.651 369.715 278.557 361.789 281.62C360.565 282.093 359.395 282.081 358.328 281.578C339.6 272.793 322.257 269.002 305.323 269.976C290.23 270.846 277.627 275.304 266.007 279.795C245.489 287.723 229.345 297.017 216.638 308.205C215.543 309.17 214.418 309.901 213.479 310.264C212.761 310.541 211.797 310.746 211.264 310.153C210.766 309.585 210.259 307.834 212.539 302.403Z" fill="white" fill-opacity="0.1"/>
<path d="M103.02 221.272C102.048 220.861 101.289 220.78 100.698 221.009C99.2209 221.58 98.958 223.976 98.5619 227.596C98.1458 231.354 97.5851 236.495 95.4207 242.32L94.7811 244.023C92.2958 250.681 91.1554 253.726 92.1239 254.757C92.5579 255.221 93.3393 255.202 94.6374 254.701C95.7456 254.273 97.3059 253.476 99.8623 252.024C100.916 251.424 102.026 250.905 103.155 250.468C112.305 246.932 122.042 249.434 129.154 251.262C133.316 252.335 136.602 253.179 138.449 252.466C139.22 252.168 139.727 251.598 139.951 250.764C142.721 240.541 113.479 225.673 103.02 221.272ZM139.409 250.586C139.239 251.245 138.849 251.679 138.237 251.916C136.548 252.569 133.343 251.745 129.271 250.688C122.09 248.836 112.257 246.306 102.938 249.908C101.788 250.352 100.651 250.895 99.5761 251.503C97.0514 252.943 95.5016 253.735 94.4251 254.151C93.4119 254.543 92.7707 254.61 92.527 254.356C91.8301 253.62 93.2187 249.899 95.3234 244.265L95.9629 242.561C98.1521 236.675 98.7272 231.477 99.1346 227.697C99.5113 224.277 99.7585 222.029 100.93 221.577C101.384 221.401 102.009 221.482 102.836 221.832C115.817 227.297 141.856 241.507 139.409 250.586Z" fill="white" fill-opacity="0.1"/>
<path d="M106.782 230.568C103.088 231.996 100.72 240.026 101.835 242.973C102.288 244.177 103.268 244.611 104.512 244.156C109.997 242.152 117.166 243.597 122.402 244.654C125.504 245.273 127.745 245.735 128.811 245.323C129.148 245.193 129.38 244.974 129.483 244.677C129.617 244.303 129.548 243.84 129.276 243.262C126.8 238.018 112.991 230.941 108.284 230.375C107.775 230.314 107.278 230.377 106.782 230.568ZM128.558 243.603C128.772 244.062 128.757 244.274 128.726 244.35C128.714 244.381 128.687 244.469 128.497 244.542C127.631 244.877 125.264 244.399 122.512 243.839C117.184 242.765 109.898 241.301 104.223 243.378C103.385 243.689 102.866 243.477 102.578 242.699C101.585 240.066 103.792 232.626 107.085 231.354C107.465 231.207 107.844 231.151 108.215 231.201C113.293 231.816 126.32 238.848 128.558 243.603Z" fill="white" fill-opacity="0.1"/>
<path d="M54.4156 133.886C55.3232 133.535 55.5227 131.886 55.0466 128.551C53.2705 116.076 56.1645 97.542 66.6463 84.236C77.2474 70.7679 85.5893 65.108 90.0803 62.0706C92.3122 60.5636 93.4237 59.7988 93.4549 59.0005C93.4713 58.6976 93.3077 58.3999 92.9896 58.1103C91.3289 56.638 70.3808 53.0929 45.0698 60.4506L44.0008 60.7605C41.7213 61.4223 39.746 61.9922 37.9201 62.6978C31.5243 65.1694 27.1064 69.0552 19.2484 84.5054C18.0075 86.9443 16.6766 89.2762 15.3918 91.5387C11.4098 98.5302 7.96363 104.554 10.0895 109.082C11.7211 112.551 16.4152 114.81 24.8525 116.178C34.1976 117.697 42.2654 124.763 47.5991 129.43C50.9651 132.397 53.2019 134.355 54.4156 133.886ZM24.8664 115.837C16.6625 114.509 11.9218 112.254 10.3658 108.95C8.32416 104.608 11.7243 98.6536 15.669 91.7538C16.9538 89.4913 18.2952 87.1554 19.5319 84.7052C27.3314 69.3549 31.7114 65.4967 38.0228 63.0577C39.8381 62.3562 41.8029 61.7904 44.0824 61.1286L45.1514 60.8186C69.8813 53.6211 91.1753 56.9939 92.7485 58.3969C93.0667 58.6864 93.1 58.8669 93.0862 58.9882C93.0578 59.6051 91.8598 60.429 89.8596 61.782C85.3624 64.8347 76.9889 70.5069 66.3542 84.0137C55.8202 97.4044 52.9019 116.063 54.6934 128.61C55.1226 131.666 54.9865 133.292 54.2688 133.569C53.2345 133.969 50.829 131.856 47.7749 129.195C42.4301 124.467 34.3133 117.369 24.8664 115.837Z" fill="white" fill-opacity="0.1"/>
<path d="M63.8519 152.373C64.7701 152.018 64.9526 150.607 64.4251 147.924C61.201 131.419 58.6914 107.252 74.0362 87.9163C78.7726 81.9352 84.6058 76.4069 91.8421 70.9937C93.3003 69.9017 94.5606 67.9838 95.7917 66.1159C97.3697 63.7014 99.0147 61.2095 101.104 60.4019C101.347 60.3081 101.599 60.2367 101.838 60.196C103.096 59.9676 104.249 60.3469 105.362 60.7159C106.615 61.134 107.799 61.5276 109.044 61.0463C109.508 60.8668 109.955 60.5783 110.385 60.1541C111.129 59.4414 111.311 58.5329 111.482 57.655C111.729 56.4121 111.956 55.2416 113.815 54.7165C115.66 54.1842 117.179 55.2599 118.782 56.3938C119.901 57.186 121.069 58.0108 122.352 58.2239C123.285 58.3789 124.844 58.331 126.057 57.862C126.902 57.5357 127.412 57.0677 127.568 56.4661C127.711 55.8951 127.527 55.2313 127.009 54.5166C125.289 52.1389 119.006 51.731 114.837 51.4598C113.606 51.3813 112.549 51.313 111.843 51.2121C105.442 50.2822 99.2304 49.8081 94.0002 49.4574C71.9393 47.9923 52.8337 49.2781 35.606 53.3832C33.6637 53.8501 32.0224 54.3426 30.5764 54.9014C22.5131 58.0174 17.7126 64.1779 10.0301 81.2748C8.14582 85.4705 6.00187 89.2768 3.93935 92.9484C-0.690444 101.183 -4.35052 107.689 -2.06979 113.214C-0.265256 117.57 5.13484 120.872 14.9437 123.591C30.7313 127.97 44.2212 138.677 53.1554 145.756C58.624 150.114 62.2583 152.989 63.8519 152.373ZM14.985 123.227C5.29713 120.538 -0.0409628 117.303 -1.7916 113.055C-4.00732 107.698 -0.38269 101.257 4.20545 93.1034C6.27419 89.4164 8.41813 85.6102 10.3086 81.3992C17.9538 64.394 22.7102 58.2763 30.6786 55.1971C32.1139 54.6424 33.7447 54.154 35.666 53.6951C52.8576 49.5911 71.9315 48.3176 93.9564 49.7837C99.1867 50.1344 105.388 50.6126 111.773 51.5353C112.494 51.6434 113.562 51.7076 114.794 51.7861C118.886 52.0481 125.082 52.4509 126.699 54.6879C127.147 55.3139 127.323 55.8645 127.198 56.3254C127.042 56.927 126.395 57.293 125.889 57.4888C124.791 57.9129 123.277 57.9823 122.355 57.8232C121.152 57.6305 120.029 56.8271 118.929 56.0532C117.327 54.9194 115.675 53.753 113.674 54.3199C111.616 54.896 111.372 56.2408 111.116 57.5256C110.942 58.3922 110.781 59.2018 110.12 59.8442C109.712 60.2337 109.319 60.5018 108.886 60.669C107.757 61.1054 106.618 60.7333 105.425 60.3438C104.271 59.9645 103.073 59.5638 101.741 59.8207C101.481 59.8697 101.208 59.9492 100.955 60.0471C98.7704 60.8913 97.1068 63.4292 95.4953 65.8824C94.2349 67.8003 93.0374 69.6295 91.6338 70.6746C84.3659 76.1 78.5308 81.6548 73.7671 87.6594C58.3322 107.108 60.8491 131.388 64.0886 147.963C64.5612 150.411 64.4458 151.744 63.7176 152.026C62.2928 152.576 58.5283 149.584 53.3158 145.449C44.3667 138.363 30.8321 127.635 14.985 123.227Z" fill="white" fill-opacity="0.1"/>
<path d="M157.22 278.031C164.101 274.366 168.861 266.468 169.362 257.909C169.811 250.091 167.086 238.176 151.543 225.827C144.869 220.517 137.804 215.293 130.974 210.237C111.438 195.782 92.9854 182.12 81.234 165.804C67.9515 147.347 65.7025 128.752 74.1728 107.29C81.5098 88.7022 95.1576 74.3918 111.633 68.0253C124.013 63.2412 136.853 63.6031 147.772 69.0386C159.772 75.0105 169.216 86.894 175.058 103.392C176.417 107.224 177.761 111.204 179.185 115.423C184.247 130.405 189.973 147.387 197.58 160.418C206.331 175.406 216.256 182.914 227.914 183.385C234.162 183.639 239.678 182.848 244.333 181.049C252.787 177.782 258.468 171.075 260.764 161.667C264.658 145.66 258.411 123.247 245.225 105.887C216.918 68.6407 178.14 54.8669 124.752 44.6893C84.1998 36.9639 54.163 41.3524 27.7505 47.2408C25.7846 47.6782 23.9551 48.2176 22.3193 48.8498C11.8918 52.8793 9.11138 60.4377 5.59252 70.0089C4.23749 73.6907 2.83893 77.4796 0.858558 81.5835C-1.4215 86.2932 -3.73994 89.5223 -5.79055 92.3772C-9.08209 96.9492 -11.9132 100.892 -13.5374 109.151C-16.7403 125.535 -2.51238 129.331 12.5414 133.349C20.4939 135.471 28.7287 137.664 34.3104 141.875C69.3742 168.325 75.0026 208.818 68.5665 237.898C66.7332 246.212 62.7304 254.939 58.4863 264.172C53.3051 275.468 47.943 287.144 46.6351 298.387C46.0759 303.218 46.5275 306.176 48.019 307.43C49.1135 308.348 50.7551 308.358 53.0242 307.481C57.077 305.915 62.8259 301.644 69.4858 296.685C78.8268 289.75 90.4445 281.109 101.948 276.664C108.038 274.311 113.661 273.324 118.657 273.726C123.631 274.137 128.309 275.694 132.835 277.206C140.285 279.69 147.303 282.031 154.839 279.119C155.656 278.816 156.447 278.446 157.22 278.031ZM118.688 273.366C113.575 272.944 108.067 273.913 101.84 276.319C90.3039 280.777 78.6546 289.429 69.3074 296.38C62.6642 301.319 56.9321 305.571 52.9153 307.136C50.7622 307.968 49.233 307.966 48.2346 307.14C46.8498 305.974 46.4415 303.128 46.9807 298.434C48.2786 287.259 53.624 275.603 58.8033 264.333C63.0492 255.074 67.0626 246.343 68.9041 237.987C72.6773 220.944 72.0198 203.422 66.9968 187.316C61.2653 168.906 50.331 153.512 34.5006 141.583C28.8698 137.339 20.6053 135.132 12.6124 133C-2.27999 129.022 -16.3422 125.278 -13.2042 109.228C-11.6111 101.046 -8.78188 97.1296 -5.52389 92.5964C-3.46272 89.7374 -1.13806 86.493 1.15444 81.7528C3.14537 77.6448 4.54582 73.8294 5.90086 70.1475C9.39295 60.6641 12.159 53.1628 22.4387 49.1903C24.0535 48.5663 25.8724 48.031 27.8234 47.5864C54.2042 41.7103 84.205 37.3228 124.692 45.035C177.995 55.1809 216.707 68.9415 244.939 106.088C258.069 123.366 264.29 145.648 260.418 161.556C258.15 170.85 252.547 177.475 244.188 180.705C239.576 182.488 234.101 183.263 227.904 183.015C216.37 182.548 206.543 175.105 197.86 160.233C190.266 147.235 184.545 130.264 179.491 115.304C178.067 111.085 176.723 107.106 175.364 103.274C169.483 86.6748 159.987 74.7209 147.898 68.7062C136.89 63.2279 123.963 62.8609 111.498 67.6776C94.9388 74.0767 81.2195 88.4534 73.8452 107.133C69.3491 118.538 67.9184 129.055 69.4675 139.311C70.8587 148.467 74.6055 157.19 80.9477 166.005C92.7314 182.373 111.199 196.042 130.769 210.522C137.599 215.579 144.664 220.802 151.333 226.101C166.756 238.356 169.453 250.139 169.006 257.866C168.519 266.304 163.828 274.098 157.044 277.7C156.281 278.11 155.496 278.465 154.715 278.767C147.295 281.634 140.318 279.303 132.938 276.844C128.405 275.347 123.698 273.776 118.688 273.366Z" fill="white" fill-opacity="0.1"/>
<path d="M158.769 261.448C160.706 258.237 161.175 254.615 160.145 250.694C157.14 239.184 141.718 226.646 129.427 219.42C114.088 210.394 98.485 200.465 88.2794 188.966C87.781 188.398 86.6772 186.672 85.2878 184.489C80.587 177.127 72.7338 164.81 68.8287 166.319C68.4699 166.457 68.1438 166.712 67.876 167.086C66.6451 168.735 66.9503 170.937 68.7841 173.799C70.2851 176.146 72.6133 178.623 74.6699 180.806C76.8461 183.111 78.7211 185.106 79.2201 186.46C80.5171 189.942 79.5868 192.055 78.6813 194.106C77.9773 195.706 77.2547 197.351 77.6238 199.594C78.1065 202.475 79.9166 204.083 81.6691 205.636C83.2913 207.071 84.9563 208.555 85.584 211.058C86.7192 215.66 79.7601 236.512 73.6372 254.914C68.5561 270.142 64.1769 283.294 65.0509 285.147C65.1178 285.289 65.2139 285.381 65.3287 285.427C66.389 285.816 67.9438 285.602 70.1074 284.766C73.5164 283.449 77.9432 280.81 83.0778 277.743C89.2997 274.037 96.3475 269.831 102.902 267.298C108.02 265.32 112.151 264.613 115.521 265.141C117.353 265.426 119.43 265.809 121.617 266.227C131.367 268.041 143.502 270.313 151.798 267.107C154.886 265.901 157.233 264.001 158.769 261.448ZM115.573 264.773C112.141 264.243 107.949 264.948 102.788 266.942C96.2131 269.483 89.1548 273.693 82.9118 277.407C77.7939 280.455 73.3672 283.094 69.9898 284.399C67.9107 285.203 66.4173 285.419 65.442 285.061C65.4271 285.054 65.3973 285.039 65.3608 284.976C64.5493 283.253 69.127 269.547 73.9579 255.022C80.11 236.57 87.073 215.665 85.9242 210.965C85.2743 208.342 83.5603 206.826 81.8996 205.353C80.113 203.775 78.4331 202.284 77.977 199.534C77.6152 197.406 78.2986 195.878 79.0088 194.263C79.9392 192.15 80.9006 189.961 79.5516 186.345C79.0266 184.923 77.1176 182.903 74.9134 180.557C72.8717 178.382 70.5522 175.926 69.0642 173.614C67.3227 170.897 67.0229 168.834 68.147 167.317C68.3794 167.008 68.657 166.785 68.9631 166.666C72.6148 165.255 80.6764 177.892 85.0015 184.69C86.4554 186.977 87.5033 188.622 88.0359 189.215C98.2694 200.755 113.902 210.698 129.271 219.738C141.502 226.935 156.839 239.378 159.815 250.783C160.81 254.614 160.365 258.137 158.479 261.264C156.978 263.751 154.692 265.589 151.684 266.751C143.484 269.92 131.394 267.67 121.68 265.855C119.492 265.437 117.416 265.054 115.573 264.773Z" fill="white" fill-opacity="0.1"/>
<path d="M149.721 248.767C147.089 239.162 132.18 228.269 125.372 224.493C113.625 217.985 104.853 211.952 99.055 207.966C93.3061 204.013 90.1312 201.824 88.8225 202.33C87.9254 202.677 87.9061 204.102 88.7746 207.26C95.2981 230.984 86.1789 248.727 80.7246 259.316C78.336 263.965 76.7637 267.021 77.3386 268.823C77.502 269.34 77.8529 269.746 78.3784 270.007C79.4677 270.566 80.8163 270.509 82.6422 269.803C84.6897 269.012 87.0804 267.508 89.8524 265.766C93.4416 263.503 97.5238 260.946 102.03 259.204C108.173 256.83 113.751 256.544 119.096 258.32C126.626 260.824 137.015 262.597 143.633 260.04C146.018 259.118 147.808 257.692 148.96 255.777C150.186 253.769 150.436 251.404 149.721 248.767ZM143.496 259.719C136.963 262.243 126.655 260.491 119.19 258C113.761 256.192 108.111 256.481 101.905 258.879C97.3665 260.632 93.278 263.205 89.6677 265.477C86.9168 267.21 84.5323 268.699 82.5165 269.478C80.7856 270.147 79.5133 270.213 78.5239 269.693C78.0834 269.463 77.8032 269.146 77.6639 268.723C77.1348 267.071 78.7674 263.888 81.0249 259.497C86.4934 248.85 95.6586 231.038 89.0936 207.175C88.3062 204.321 88.2665 202.932 88.9419 202.671C90.0923 202.226 93.3951 204.495 98.8649 208.259C104.667 212.256 113.45 218.285 125.201 224.804C131.964 228.558 146.777 239.36 149.376 248.849C150.063 251.38 149.825 253.651 148.656 255.585C147.554 257.442 145.818 258.821 143.496 259.719Z" fill="white" fill-opacity="0.1"/>
<path d="M204.234 121.638C209.926 139.599 219.332 149.848 226.237 153.431C229.394 155.073 232.334 155.523 234.518 154.678C237.589 153.492 238.908 150.03 238.224 144.932C233.83 112.122 197.05 89.9575 193.019 88.473C191.859 88.0448 191.218 88.1763 191.006 88.7871C190.615 89.8791 191.872 92.474 194.15 97.1754C196.838 102.75 200.915 111.164 204.234 121.638ZM191.544 89.0175C191.57 88.9298 191.614 88.887 191.699 88.8543C191.847 88.7972 192.166 88.7768 192.861 89.0368C196.862 90.5071 233.323 112.473 237.676 144.989C238.315 149.782 237.13 153.025 234.312 154.114C232.286 154.897 229.499 154.465 226.49 152.895C219.69 149.361 210.418 139.242 204.785 121.464C201.449 110.945 197.374 102.504 194.671 96.9225C192.678 92.8329 191.242 89.8689 191.544 89.0175Z" fill="white" fill-opacity="0.1"/>
<path d="M256.732 -125.344C248.478 -122.155 239.98 -116.963 230.967 -111.469C220.21 -104.902 209.089 -98.1164 196.055 -93.0795C195.094 -92.7084 194.14 -92.3525 193.234 -92.0283C192.444 -91.7489 191.676 -91.4777 190.907 -91.2065C188.912 -90.4999 187.033 -89.8381 185.239 -89.1448C174.009 -84.8052 167.994 -79.6837 168.368 -65.094C168.61 -55.8676 168.866 -45.4094 163.286 -36.4337C161.709 -33.8908 160.032 -31.6058 158.549 -29.5758C155.12 -24.8865 152.414 -21.1853 153.512 -17.9358C154.521 -14.9483 158.683 -12.4962 166.993 -9.9839C174.971 -7.5756 180.903 -7.1994 185.146 -8.83896C185.525 -8.98578 185.907 -9.15911 186.264 -9.3355C192.193 -12.323 194.237 -19.339 196.824 -28.2147C197.994 -32.2504 199.335 -36.8162 201.201 -41.4045C209.28 -61.2717 222.02 -78.4023 238.037 -90.9466C244.797 -96.2405 251.905 -100.354 259.177 -103.164C277.14 -110.105 293.653 -108.559 308.201 -105.002L308.045 -105.406C293.51 -108.929 277 -110.438 259.047 -103.5C251.744 -100.678 244.604 -96.5525 237.827 -91.2393C221.766 -78.6521 208.986 -61.4674 200.888 -41.5543C199.016 -36.9508 197.679 -32.3737 196.499 -28.334C193.928 -19.5419 191.909 -12.5871 186.113 -9.66383C185.756 -9.48743 185.395 -9.32224 185.026 -9.17949C180.857 -7.56849 174.987 -7.94267 167.079 -10.3265C158.89 -12.8082 154.805 -15.1869 153.838 -18.0357C152.798 -21.1017 155.459 -24.7336 158.83 -29.3494C160.314 -31.3795 161.997 -33.6797 163.584 -36.2267C169.227 -45.2911 168.96 -55.8094 168.722 -65.0889C168.354 -79.4747 174.287 -84.5259 185.379 -88.8124C187.173 -89.5057 189.053 -90.1675 191.037 -90.87C191.795 -91.1371 192.575 -91.4124 193.364 -91.6918C194.281 -92.0201 195.224 -92.3719 196.195 -92.7471C209.251 -97.7922 220.389 -104.597 231.156 -111.169C240.148 -116.654 248.646 -121.846 256.868 -125.023C261.638 -126.867 266.013 -127.913 270.27 -128.23C279.407 -128.912 289.36 -128.079 299.842 -126.664L299.695 -127.045C289.258 -128.439 279.345 -129.262 270.228 -128.588C265.945 -128.247 261.523 -127.196 256.732 -125.344Z" fill="white" fill-opacity="0.1"/>
<path d="M195.674 123.785C201.025 141.272 209.514 153.822 219.57 159.127C224.827 161.903 230.191 162.473 234.676 160.74C241.072 158.268 244.356 151.572 243.065 143.679C239.256 120.608 224.954 104.065 213.634 94.2343C200.322 82.6984 186.504 76.23 180.455 74.7006C178.252 74.147 176.733 73.8574 175.994 74.1429C175.719 74.249 175.547 74.4315 175.463 74.6833C175.132 75.6489 176.192 77.6372 178.283 81.5729C181.974 88.5511 188.876 101.546 195.674 123.785ZM175.767 74.8108C175.814 74.6507 175.929 74.5416 176.109 74.4723C176.763 74.2194 178.297 74.5161 180.379 75.0392C194.026 78.4925 235.847 102.086 242.713 143.712C243.986 151.431 240.78 157.981 234.542 160.392C230.141 162.093 224.875 161.524 219.711 158.801C209.749 153.55 201.326 141.078 196 123.685C189.188 101.412 182.278 88.3951 178.556 81.4026C176.657 77.8054 175.498 75.6234 175.767 74.8108Z" fill="white" fill-opacity="0.1"/>
<path d="M190.031 127.229C197 148.873 207.277 164.134 218.978 170.183C225.027 173.311 231.106 173.849 236.573 171.737C247.022 167.699 252.395 155.297 249.962 140.872C246.363 119.601 235.399 101.524 217.383 87.1393C199.128 72.5762 179.231 66.2914 168.988 63.8301C163.776 62.5831 161.554 62.0754 161.212 63.2C160.93 64.134 162.088 66.0325 164.375 69.8153C169.348 78.0384 179.687 95.0935 190.031 127.229ZM161.54 63.357C161.581 63.2123 161.679 63.1225 161.859 63.0532C162.714 62.7228 165.055 63.2877 168.93 64.2135C203.042 72.3784 242.153 96.8388 249.613 140.942C252.027 155.194 246.727 167.439 236.437 171.415C231.065 173.491 225.073 172.958 219.113 169.873C207.501 163.867 197.291 148.683 190.346 127.133C179.984 94.9528 169.637 77.8753 164.657 69.6674C162.568 66.2079 161.311 64.1156 161.54 63.357Z" fill="white" fill-opacity="0.1"/>
<path d="M41.3809 103.797C44.3677 102.643 45.327 98.7534 45.8402 93.2699C46.737 83.6936 53.5919 76.5716 57.2713 72.7521C59.133 70.821 59.8362 70.0981 59.4706 69.4659C59.1589 68.9418 58.4874 68.9306 55.2978 69.9054C45.6868 72.846 28.3675 90.4314 28.7071 98.4985C28.7849 100.363 29.7772 101.707 31.5833 102.363C36.4026 104.161 39.3334 104.589 41.3809 103.797ZM29.5015 98.5138C29.1892 91.1451 45.2389 74.669 54.5793 71.0596C54.9065 70.9331 55.2275 70.822 55.5422 70.7262C57.4201 70.1552 58.2848 69.9757 58.6553 69.9615C58.3669 70.408 57.519 71.29 56.6878 72.1526C52.937 76.0384 45.9603 83.2848 45.0323 93.1567C44.447 99.3641 43.3317 102.128 41.0626 103.005C39.2156 103.719 36.4437 103.295 31.8074 101.593C30.3221 101.046 29.5721 100.046 29.5015 98.5138Z" fill="white" fill-opacity="0.1"/>
<path d="M50.407 99.8452C52.2157 83.149 63.4789 73.2149 73.0816 66.4232C74.0057 65.7696 73.884 65.1721 73.7353 64.8815C72.6065 62.7138 60.9661 62.2235 46.0953 67.9701C44.4171 68.6185 42.7185 69.3394 41.0626 70.1082C34.4348 73.1722 22.3056 89.4351 19.4359 99.1163C18.687 101.636 18.6313 103.501 19.2707 104.684C20.868 107.625 23.9825 107.994 27.6059 108.424C31.4328 108.879 35.7686 109.395 39.2475 113.155C41.2724 115.351 43.1199 116.145 44.7452 115.517C47.485 114.445 49.3938 109.183 50.407 99.8452ZM39.6357 112.747C36.0198 108.821 31.5674 108.286 27.6387 107.819C24.1829 107.414 21.1956 107.06 19.7532 104.395C19.2042 103.382 19.2778 101.627 19.9713 99.309C22.8124 89.742 34.7843 73.6687 41.311 70.6568C42.9669 69.888 44.6444 69.1753 46.312 68.5308C60.9295 62.8821 72.3309 63.4133 73.2336 65.1528C73.3779 65.4321 72.9953 65.7604 72.7469 65.9338C63.0473 72.7887 51.6791 82.8279 49.8386 99.7555C48.3097 113.817 44.8574 118.412 39.6357 112.747Z" fill="white" fill-opacity="0.1"/>
<path d="M226.434 142.359C226.444 142.355 226.444 142.355 226.434 142.359C226.993 142.142 227.318 141.54 227.418 140.573C227.894 135.684 222.373 121.524 213.584 115.008C212.443 114.159 211.476 114.701 211.241 116.416C210.641 120.953 214.379 133.198 223.98 141.438C224.991 142.297 225.811 142.599 226.434 142.359ZM212.051 116.567C212.135 115.967 212.303 115.554 212.525 115.468C212.715 115.395 213 115.568 213.156 115.689C221.559 121.929 227.08 135.87 226.635 140.463C226.571 141.081 226.399 141.483 226.145 141.581C225.818 141.707 225.212 141.426 224.487 140.804C215.263 132.882 211.487 120.819 212.051 116.567Z" fill="white" fill-opacity="0.1"/>
<path d="M308.39 150.25C309.586 151.115 311.624 150.895 315.18 149.52C317.407 148.66 319.983 147.446 322.972 146.046C326.667 144.308 330.867 142.337 335.321 140.616C349.431 135.163 360.182 134.67 369.178 139.082C376.941 141.625 383.23 148.231 388.784 154.065C395.536 161.149 401.357 167.266 408.017 164.692C408.724 164.419 409.439 164.039 410.134 163.578C410.597 163.27 411.079 162.916 411.569 162.52L411.343 161.937C410.83 162.367 410.311 162.749 409.82 163.08C409.152 163.518 408.469 163.885 407.805 164.142C401.493 166.581 395.796 160.597 389.187 153.664C383.58 147.787 377.233 141.126 369.37 138.544C360.255 134.074 349.367 134.557 335.108 140.067C330.633 141.796 326.434 143.767 322.717 145.512C319.739 146.908 317.163 148.123 314.957 148.975C311.686 150.239 309.697 150.492 308.706 149.78C308.164 149.383 307.881 148.68 307.844 147.612C307.184 125.94 303.478 99.6186 300.056 92.3946C294.074 79.7402 283.936 69.5166 274.124 59.6315C262.128 47.5481 250.803 36.1336 250.194 23.1947C249.359 5.21275 262.95 -31.8146 275.353 -38.799C275.951 -39.1334 276.641 -39.4516 277.401 -39.7452C287.638 -43.7013 308.688 -42.8766 334.107 -37.901L333.855 -38.5515C308.475 -43.4904 287.453 -44.2744 277.184 -40.306C276.393 -40.0001 275.682 -39.6738 275.066 -39.32C262.524 -32.2561 248.777 5.08938 249.618 23.211C250.235 36.3915 261.642 47.8907 273.724 60.0699C283.497 69.9183 293.592 80.094 299.535 92.6475C302.528 98.9803 306.552 124.367 307.259 147.606C307.308 148.863 307.683 149.737 308.39 150.25Z" fill="white" fill-opacity="0.1"/>
<path d="M318.679 129.476C321.799 131.712 326.077 130.446 331.99 128.702C332.634 128.518 333.295 128.314 333.971 128.117C335.847 127.573 337.773 126.906 339.809 126.209C349.269 122.941 359.996 119.246 373.118 124.797L373.278 124.864C380.479 127.741 386.979 135.206 392.725 141.79C398.504 148.426 403.506 154.15 407.347 152.665C407.464 152.62 407.582 152.549 407.693 152.493L407.563 152.156C407.452 152.212 407.338 152.295 407.222 152.34C403.591 153.743 398.681 148.099 392.977 141.564C387.207 134.95 380.669 127.448 373.394 124.536L373.234 124.469C359.997 118.872 349.206 122.591 339.694 125.88C337.658 126.577 335.732 127.243 333.867 127.784C333.191 127.981 332.525 128.173 331.885 128.369C326.061 130.091 321.847 131.333 318.863 129.199C316.041 127.17 314.316 121.984 313.304 112.398C312.36 103.52 310.334 95.8597 307.086 88.9937C300.462 74.9893 289.792 64.2365 279.473 53.8252C268.699 42.9582 258.513 32.702 258.065 23.1298C257.316 7.19022 270.419 -26.5162 279.309 -31.5114C279.507 -31.6266 279.853 -31.7989 280.401 -32.011C288.264 -35.0495 308.746 -34.972 337.61 -28.8657L337.458 -29.2582C308.622 -35.3238 288.155 -35.3941 280.271 -32.3474C279.712 -32.1313 279.345 -31.9508 279.136 -31.8315C270.181 -26.7854 256.972 7.1168 257.726 23.1319C258.184 32.8549 268.413 43.1591 279.245 54.0812C289.54 64.4628 300.186 75.1861 306.778 89.1385C310.013 95.9709 312.037 103.594 312.963 112.426C314.015 122.242 315.725 127.357 318.679 129.476Z" fill="white" fill-opacity="0.1"/>
<path d="M165.429 305.268C180.407 297.288 191.453 270.217 190.606 253.116C189.141 223.428 165.466 208.213 142.567 193.498C120.473 179.297 99.5953 165.889 97.4398 140.567C95.5651 118.514 110.111 100.595 124.75 94.9381C132.644 91.8874 140.611 92.2248 147.206 95.8893C155.037 100.237 160.903 109.172 164.177 121.725C175.422 164.856 191.481 210.587 239.965 207.165C245.526 206.769 250.733 205.646 255.45 203.823C273.698 196.771 281.049 181.169 284.001 169.316C289.667 146.592 283.708 118.176 269.164 98.6214C256.836 82.0384 239.729 67.9342 216.892 55.5154C182.938 37.0544 142.021 25.7185 91.8081 20.8367L89.6374 20.6186C68.5116 18.56 46.6673 16.4312 25.4469 18.8049C24.19 18.9426 22.7848 19.0731 21.2865 19.2138C14.6839 19.8317 6.47928 20.6046 0.125681 23.0599C-2.41787 24.0428 -4.48932 25.2429 -6.01915 26.6204C-8.36015 28.7239 -9.12957 31.3157 -9.88278 33.824C-10.4467 35.6919 -11.0207 37.6282 -12.2554 39.3299C-13.0527 40.4372 -14.813 42.0972 -16.6572 43.854C-19.661 46.6905 -22.7593 49.6281 -23.3568 51.5347C-24.5213 55.2074 -23.2485 56.6491 -22.0247 58.0582C-21.1412 59.0574 -20.3111 60.0128 -20.2017 61.8654L-20.1105 63.3255C-19.4467 74.5545 -19.4467 74.5545 -25.938 79.6669C-27.1938 80.6549 -28.7545 81.8897 -30.5817 83.4079C-35.8572 87.8055 -37.1257 91.9309 -38.3489 95.9227C-39.2857 98.9917 -40.1795 101.889 -42.7895 104.961C-42.8782 104.982 -42.9838 105.023 -43.0893 105.064C-46.8888 106.532 -74.9215 119.685 -74.2297 128.067C-74.0362 130.326 -71.8991 132.026 -67.8462 133.129C-62.7764 134.508 -59.6596 133.69 -57.7493 132.952C-56.8205 132.593 -56.0109 132.177 -55.2285 131.785C-54.558 131.448 -53.9296 131.128 -53.3069 130.887C-50.985 129.99 -48.3733 129.78 -41.9098 136.963C-40.3165 138.732 -39.0499 140.189 -37.9972 141.407C-32.8279 147.375 -32.7088 147.433 -25.2773 147.861C-23.4317 147.96 -21.1367 148.091 -18.1841 148.355C-8.49333 149.199 -5.07478 153.086 -0.744862 158.013C1.5441 160.609 4.14119 163.563 8.03227 166.506C12.1962 169.654 16.4914 171.823 20.6483 173.916C28.0153 177.63 34.9761 181.141 40.0079 189.547C48.728 204.108 46.5154 222.082 42.8245 239.338C41.0382 247.711 35.0602 258.955 28.7322 270.862C17.9847 291.077 5.80798 313.997 11.4137 328.691C14.6091 337.086 19.119 342.729 24.815 345.478C31.0172 348.47 38.5673 348.169 47.9077 344.559C61.4487 339.327 76.2053 328.042 89.2348 318.096C99.4914 310.265 108.349 303.491 114.723 301.028C116.169 300.469 117.454 300.153 118.532 300.084C125.435 299.647 131.914 301.913 138.194 304.101C146.512 307.01 154.374 309.746 162.828 306.479C163.721 306.121 164.586 305.723 165.429 305.268ZM118.48 299.228C117.294 299.299 115.978 299.628 114.447 300.219C107.967 302.723 99.0719 309.525 88.7669 317.387C75.7753 327.306 61.0565 338.563 47.6211 343.755C38.4917 347.283 31.1409 347.597 25.1471 344.705C19.6596 342.056 15.2972 336.575 12.1736 328.398C6.71091 314.073 18.7876 291.334 29.4517 271.28C35.809 259.323 41.8056 248.033 43.6205 239.546C47.3395 222.112 49.5716 203.937 40.6903 189.116C35.5253 180.49 28.4603 176.93 20.9847 173.154C16.8576 171.075 12.5922 168.921 8.49649 165.824C4.67363 162.932 2.10877 160.03 -0.15042 157.448C-4.60868 152.378 -8.12768 148.388 -18.1343 147.511C-21.0975 147.251 -23.403 147.124 -25.2529 147.013C-32.4238 146.601 -32.4238 146.601 -37.4133 140.846C-38.466 139.628 -39.7369 138.16 -41.3303 136.391C-47.5091 129.536 -50.5117 128.892 -53.6041 130.087C-54.2585 130.34 -54.9079 130.668 -55.5952 131.024C-56.3565 131.408 -57.145 131.816 -58.0421 132.163C-60.0052 132.921 -62.8625 133.626 -67.6606 132.322C-71.3312 131.33 -73.2607 129.884 -73.4166 128.037C-74.0226 120.756 -48.1114 107.92 -42.771 105.856C-42.6444 105.807 -42.56 105.774 -42.5029 105.765L-42.5571 105.373L-42.2644 105.66C-39.4886 102.422 -38.5102 99.2721 -37.5796 96.2184C-36.3316 92.1654 -35.1558 88.3337 -30.0548 84.0808C-28.2381 82.5667 -26.6836 81.3472 -25.4278 80.3592C-18.6652 75.0389 -18.6178 74.8788 -19.2994 63.3215L-19.3905 61.8614C-19.5195 59.7069 -20.5357 58.5527 -21.4321 57.5199C-22.6002 56.1923 -23.6014 55.0453 -22.5832 51.8416C-22.0411 50.1368 -18.882 47.1371 -16.0924 44.4994C-14.2103 42.715 -12.4332 41.0357 -11.5856 39.8703C-10.2714 38.0605 -9.67255 36.0631 -9.09859 34.1268C-8.34538 31.6186 -7.6376 29.2439 -5.46679 27.2964C-3.99784 25.9811 -2.00648 24.8248 0.452637 23.8745C6.71125 21.456 14.8587 20.6923 21.4149 20.0795C22.9132 19.9388 24.3184 19.8082 25.5858 19.6665C46.7236 17.2989 68.5319 19.4288 89.6173 21.4771L91.7881 21.6953C141.885 26.5576 182.706 37.866 216.566 56.2729C239.294 68.6306 256.31 82.6543 268.563 99.1373C282.957 118.493 288.86 146.607 283.247 169.092C280.334 180.762 273.098 196.127 255.166 203.056C250.522 204.851 245.394 205.956 239.901 206.339C192.045 209.724 176.125 164.352 164.97 121.548C161.641 108.758 155.629 99.6343 147.586 95.1756C140.788 91.3959 132.586 91.0462 124.48 94.1785C109.578 99.9373 94.7679 118.177 96.6801 140.641C98.8669 166.39 120.897 180.551 142.211 194.241C164.919 208.837 188.412 223.928 189.848 253.164C190.676 270.027 179.811 296.719 165.084 304.563C164.257 304.999 163.424 305.385 162.59 305.707C154.39 308.876 146.663 306.178 138.475 303.322C132.098 301.068 125.537 298.782 118.48 299.228Z" fill="white" fill-opacity="0.1"/>
<path d="M137.087 -54.9131C134.545 -50.8499 130.155 -47.6453 123.654 -45.1329C116.023 -42.1842 106.772 -40.6975 98.6275 -39.3934C93.8202 -38.6185 89.2834 -37.8966 85.706 -36.9524C83.9542 -36.4946 79.2785 -35.1905 73.7271 -33.0452C63.4473 -29.0727 50.8268 -22.4941 49.1308 -13.7306C48.3826 -9.9223 49.7996 -6.03554 53.3237 -2.18957C54.981 -0.380784 57.5805 -0.0575632 60.093 0.260546C62.0819 0.510343 64.1365 0.773383 65.6108 1.76342C67.3537 2.94617 68.8941 4.95482 70.3768 6.90839C72.3586 9.49413 74.4005 12.1726 77.0844 13.1851C80.4184 14.4361 83.5296 14.4198 86.8963 13.1188C89.2288 12.2174 91.419 10.791 93.5334 9.4196C95.6268 8.05637 97.7896 6.65336 100.069 5.7724C102.254 4.92815 104.331 4.65387 106.426 4.92712C111.505 5.60718 114.474 8.01754 117.326 10.3443C121.062 13.3868 124.583 16.2539 132.174 15.3057C148.057 13.3061 153.492 15.537 166.6 20.9256C168.29 21.6261 170.106 22.3684 172.087 23.1627C176.782 25.0479 180.757 27.7397 184.601 30.3407C188.033 32.6623 191.568 35.0604 195.664 36.9324C200.689 39.2316 204.72 39.5559 208.613 39.8689C213.797 40.2889 218.706 40.6866 225.097 46.0803L226.093 46.9327C234.157 53.7681 242.016 59.948 244.95 58.8142C245.425 58.6306 245.752 58.285 245.938 57.7619C246.517 56.1203 245.541 52.7465 242.957 47.4414C241.439 44.3285 238.144 42.3016 234.948 40.3398C231.511 38.2262 228.262 36.2206 227.179 33.0425C225.89 29.2352 227.306 26.5608 228.811 23.7365C229.917 21.6717 231.055 19.5305 231.169 16.8439C231.448 10.407 230.125 5.25901 228.853 0.272083C227.068 -6.66944 225.389 -13.2133 228.243 -22.4633C233.336 -39.0106 243.661 -54.0092 257.309 -64.7101C261.852 -68.2706 266.328 -70.8767 270.983 -72.6753C286.793 -78.7849 301.66 -74.0244 317.407 -68.9978C319.193 -68.4248 320.99 -67.8558 322.797 -67.291L322.42 -68.2667C320.804 -68.7765 319.203 -69.2792 317.612 -69.7859C301.735 -74.8656 286.736 -79.6526 270.684 -73.4492C265.955 -71.6221 261.421 -68.9802 256.812 -65.3687C243.04 -54.5812 232.623 -39.4439 227.472 -22.7324C224.55 -13.25 226.262 -6.58991 228.069 0.471925C229.33 5.39869 230.641 10.4866 230.358 16.7837C230.252 19.2736 229.152 21.323 228.102 23.3143C226.574 26.1734 225.003 29.1394 226.421 33.3096C227.606 36.7835 231.141 38.9623 234.552 41.0729C237.64 42.9735 240.825 44.9393 242.227 47.8136C245.273 54.0617 245.514 56.5078 245.165 57.455C245.061 57.7527 244.889 57.9353 244.625 58.0372C241.723 59.1588 231.094 50.1434 226.564 46.2995L225.557 45.4512C218.968 39.8892 213.937 39.4875 208.621 39.041C204.789 38.73 200.83 38.4037 195.939 36.1687C191.918 34.3324 188.402 31.9527 184.999 29.6453C181.122 27.0188 177.112 24.3015 172.332 22.3847C170.351 21.5904 168.536 20.8481 166.846 20.1477C153.592 14.6989 148.113 12.4466 132.023 14.4747C124.758 15.3873 121.362 12.6262 117.778 9.69275C114.824 7.28953 111.778 4.80578 106.47 4.09818C104.244 3.79843 102.052 4.09106 99.7405 4.98426C97.3975 5.88968 95.1967 7.3202 93.0717 8.69567C90.989 10.0548 88.8218 11.4466 86.5632 12.3194C83.3864 13.547 80.4446 13.5623 77.2955 12.3816C74.8368 11.4497 72.8594 8.87521 70.9588 6.3741C69.4333 4.37261 67.8458 2.30483 65.9857 1.03848C64.3557 -0.0718714 62.1993 -0.347158 60.1236 -0.602053C57.6514 -0.909966 55.3063 -1.20258 53.8586 -2.78297C50.5397 -6.41176 49.1969 -10.0436 49.884 -13.5705C51.5239 -21.9772 63.9023 -28.3978 74.0026 -32.3009C79.5224 -34.4339 84.1558 -35.7217 85.8971 -36.1755C89.4323 -37.1033 93.9585 -37.8212 98.7404 -38.5991C106.932 -39.9084 116.214 -41.4072 123.919 -44.3845C130.579 -46.9581 135.089 -50.2606 137.718 -54.4737C144.27 -64.9849 137.577 -74.4255 131.103 -83.551C124.192 -93.3066 117.042 -103.396 125.602 -115.083C126.626 -116.483 128.278 -117.638 130.505 -118.498C137.312 -121.129 148.421 -120.884 159.166 -120.641C168.527 -120.43 177.361 -120.234 182.369 -122.027C183.095 -122.282 183.802 -122.556 184.52 -122.833C184.52 -122.833 184.52 -122.833 184.53 -122.837C195.19 -126.956 205.212 -133.072 214.907 -138.997C224.585 -144.903 234.586 -151.01 245.203 -155.113C252.633 -157.984 259.71 -159.636 266.819 -160.166C273.398 -160.659 280.117 -160.536 286.899 -160.062L286.569 -160.915C279.874 -161.383 273.236 -161.486 266.729 -160.995C259.537 -160.459 252.393 -158.794 244.9 -155.898C234.219 -151.771 224.176 -145.647 214.481 -139.722C204.813 -133.82 194.823 -127.717 184.227 -123.622C183.518 -123.322 182.808 -123.087 182.086 -122.821C177.205 -121.076 168.443 -121.274 159.158 -121.476C148.342 -121.717 137.157 -121.971 130.212 -119.287C127.806 -118.358 126.099 -117.156 124.962 -115.609C116.048 -103.424 123.38 -93.0833 130.474 -83.0758C137.107 -73.7281 143.343 -64.936 137.087 -54.9131Z" fill="white" fill-opacity="0.1"/>
</g>
<defs>
<clipPath id="clip0_1907_3604">
<rect width="341" height="255" rx="10" fill="white"/>
</clipPath>
</defs>
</svg>
