<svg width="24" height="24" viewBox="0 0 24 24" fill="none" xmlns="http://www.w3.org/2000/svg">
<path d="M18.8914 6.59429C18.8114 6.58286 18.7314 6.58286 18.6514 6.59429C16.88 6.53714 15.4743 5.08571 15.4743 3.30286C15.4743 1.48571 16.9486 0 18.7772 0C20.5943 0 22.08 1.47429 22.08 3.30286C22.0686 5.08571 20.6629 6.53714 18.8914 6.59429Z" fill="#4733AC"/>
<path d="M22.6172 14.5143C21.3372 15.3714 19.5429 15.6914 17.8857 15.4743C18.32 14.5371 18.5486 13.4971 18.56 12.4C18.56 11.2571 18.3086 10.1714 17.8286 9.22285C19.52 8.99428 21.3143 9.31428 22.6057 10.1714C24.4114 11.36 24.4114 13.3143 22.6172 14.5143Z" fill="#4733AC"/>
<path d="M6.21715 6.59429C6.29715 6.58286 6.37715 6.58286 6.45715 6.59429C8.22858 6.53714 9.63429 5.08571 9.63429 3.30286C9.63429 1.47429 8.16001 0 6.33144 0C4.51429 0 3.04001 1.47429 3.04001 3.30286C3.04001 5.08571 4.44572 6.53714 6.21715 6.59429Z" fill="#4733AC"/>
<path d="M6.34286 12.4C6.34286 13.5086 6.58286 14.56 7.01715 15.5086C5.40572 15.68 3.72572 15.3371 2.49143 14.5257C0.685717 13.3257 0.685717 11.3714 2.49143 10.1714C3.71429 9.34857 5.44 9.01714 7.06286 9.2C6.59429 10.16 6.34286 11.2457 6.34286 12.4Z" fill="#4733AC"/>
<path d="M12.7086 15.8514C12.6171 15.84 12.5143 15.84 12.4114 15.8514C10.3086 15.7829 8.62857 14.0571 8.62857 11.9314C8.64 9.76 10.3886 8 12.5714 8C14.7429 8 16.5029 9.76 16.5029 11.9314C16.4914 14.0571 14.8229 15.7829 12.7086 15.8514Z" fill="#4733AC"/>
<path d="M8.9943 18.2171C7.26858 19.3714 7.26858 21.2686 8.9943 22.4114C10.96 23.7257 14.1829 23.7257 16.1486 22.4114C17.8743 21.2571 17.8743 19.36 16.1486 18.2171C14.1943 16.9029 10.9714 16.9029 8.9943 18.2171Z" fill="#4733AC"/>
</svg>
