<svg width="35" height="36" viewBox="0 0 35 36" fill="none" xmlns="http://www.w3.org/2000/svg">
<path d="M32.0073 15.9382L29.7818 13.3528C29.3564 12.8619 29.0127 11.9455 29.0127 11.291V8.50914C29.0127 6.7746 27.5891 5.35096 25.8545 5.35096H23.0727C22.4345 5.35096 21.5018 5.00732 21.0109 4.58187L18.4255 2.35642C17.2964 1.39096 15.4473 1.39096 14.3018 2.35642L11.7327 4.59823C11.2418 5.00732 10.3091 5.35096 9.67091 5.35096H6.84C5.10545 5.35096 3.68182 6.7746 3.68182 8.50914V11.3073C3.68182 11.9455 3.33818 12.8619 2.92909 13.3528L0.719997 15.9546C-0.229094 17.0837 -0.229094 18.9164 0.719997 20.0455L2.92909 22.6473C3.33818 23.1382 3.68182 24.0546 3.68182 24.6928V27.491C3.68182 29.2255 5.10545 30.6491 6.84 30.6491H9.67091C10.3091 30.6491 11.2418 30.9928 11.7327 31.4182L14.3182 33.6437C15.4473 34.6091 17.2964 34.6091 18.4418 33.6437L21.0273 31.4182C21.5182 30.9928 22.4345 30.6491 23.0891 30.6491H25.8709C27.6055 30.6491 29.0291 29.2255 29.0291 27.491V24.7091C29.0291 24.071 29.3727 23.1382 29.7982 22.6473L32.0236 20.0619C32.9727 18.9328 32.9727 17.0673 32.0073 15.9382ZM23.1709 14.9073L15.2673 22.811C15.0382 23.04 14.7273 23.171 14.4 23.171C14.0727 23.171 13.7618 23.04 13.5327 22.811L9.57272 18.851C9.09818 18.3764 9.09818 17.591 9.57272 17.1164C10.0473 16.6419 10.8327 16.6419 11.3073 17.1164L14.4 20.2091L21.4364 13.1728C21.9109 12.6982 22.6964 12.6982 23.1709 13.1728C23.6455 13.6473 23.6455 14.4328 23.1709 14.9073Z" fill="#1A74E8"/>
</svg>
