<svg width="143" height="168" viewBox="0 0 143 168" fill="none" xmlns="http://www.w3.org/2000/svg">
<path d="M14.0117 70.2985C23.5832 77.457 33.1546 84.6155 42.7261 91.774C42.9242 90.2243 43.0562 88.6006 43.3203 86.977C33.8808 88.822 24.3093 90.667 14.8698 92.512C13.6156 92.7334 12.8895 94.4308 13.2195 95.6854C13.5496 97.0876 14.8038 97.7517 16.058 97.5303C25.4975 95.6854 35.069 93.8404 44.5085 91.9954C46.6868 91.6264 46.6207 88.3054 45.1025 87.1985C35.531 80.04 25.9596 72.8814 16.3881 65.7229C15.3319 64.9849 13.8137 65.5015 13.2196 66.7561C12.4935 68.0107 13.0215 69.4867 14.0117 70.2985Z" fill="#4733AC"/>
<path d="M36.389 69.1913C42.7919 75.4641 49.8549 80.999 57.3799 85.5745C61.1425 87.8622 65.103 89.9286 69.0636 91.8473C69.3276 91.9949 69.8557 92.4377 70.1197 92.4377C70.5158 92.4377 70.1857 92.6591 70.3177 92.2163C70.6478 91.4045 69.7237 92.29 69.3936 92.5114C67.4134 93.397 65.367 94.2088 63.2547 94.9468C58.6341 96.5704 53.9474 97.9726 49.2608 99.0795C46.2904 99.7437 47.4785 104.762 50.4489 104.098C55.0696 103.065 59.6903 101.736 64.2449 100.039C66.4232 99.2271 68.6015 98.4153 70.7798 97.456C72.7601 96.5704 75.0044 95.0944 75.0044 92.4377C75.0044 89.6333 73.0241 88.1574 70.9778 87.198C68.8656 86.1648 66.7532 85.1317 64.707 84.0247C60.4164 81.737 56.3238 79.0802 52.2972 76.2021C47.8746 73.0288 43.716 69.4127 39.7555 65.5752C38.8314 64.6897 37.3792 64.5421 36.455 65.5752C35.5969 66.387 35.5309 68.2319 36.389 69.1913Z" fill="#4733AC"/>
<path d="M69.7899 74.5048C73.9485 75.3165 77.645 77.9733 81.2755 80.1134C85.4341 82.5488 89.6587 84.9103 93.8173 87.3456C95.9296 88.5264 97.9098 89.7071 100.022 90.8879C100.352 91.1093 100.682 91.3307 101.078 91.4783C101.672 91.8473 101.21 91.7735 101.276 91.5521C101.21 91.6259 101.276 90.6665 101.276 90.6665C101.276 90.6665 99.56 91.5521 99.296 91.6997C94.9394 93.7661 90.5828 95.8324 86.2262 97.8987C81.2755 100.186 76.3908 102.548 71.4401 104.836C70.252 105.426 70.0539 107.271 70.516 108.378C71.1761 109.706 72.5623 109.928 73.6845 109.411C78.5031 107.123 83.3878 104.762 88.2725 102.548C93.0912 100.26 97.9758 98.1939 102.729 95.6848C104.775 94.5778 106.359 92.3639 105.567 89.7071C104.775 87.0504 101.87 86.0173 99.8901 84.8365C95.2695 82.1798 90.7148 79.5969 86.0942 76.9401C83.5858 75.4642 80.9455 73.9882 78.4371 72.5123C76.0608 71.1839 73.6184 69.9293 70.9781 69.3389C69.7239 69.1175 68.4697 69.7817 68.1397 71.1839C67.8096 72.586 68.6018 74.2096 69.7899 74.5048Z" fill="#4733AC"/>
<path d="M99.4944 70.8149C100.023 70.3721 100.419 70.5197 101.079 70.6673C102.201 71.0363 103.389 71.6267 104.511 72.1433C106.821 73.1026 109.132 74.2096 111.442 75.169C116.195 77.2353 120.947 79.3017 125.766 81.4418C128.208 82.5488 130.717 83.5819 133.159 84.6889C134.017 85.0579 134.809 85.3531 135.535 85.8697C135.8 86.0172 135.932 86.1649 136.196 86.46C136.196 86.46 136.526 86.829 136.328 86.6077C136.328 86.6077 136.262 86.5338 136.328 86.46C136.394 86.829 136.394 86.829 136.394 86.5338C137.054 86.2386 136.196 86.46 136.394 86.3862C136.262 86.3862 136.13 86.6814 136.064 86.7552C135.667 87.0504 135.337 87.2718 134.941 87.567C133.819 88.3788 132.697 89.1906 131.509 89.9285C129.463 91.3307 127.284 92.7329 125.172 94.0612C120.353 97.087 115.403 99.9651 110.32 102.548C109.132 103.138 108.868 104.91 109.396 106.09C110.056 107.419 111.442 107.64 112.564 107.123C117.713 104.467 122.664 101.589 127.548 98.4891C129.991 96.9393 132.433 95.3896 134.809 93.6184C136.988 92.0687 140.156 90.5927 140.816 87.4932C142.136 81.4418 134.149 79.3016 130.585 77.8257C125.172 75.4642 119.759 73.1026 114.347 70.7411C111.31 69.4127 108.274 68.0844 105.237 66.756C102.729 65.7228 99.6925 64.0993 97.1841 66.1656C96.194 66.9774 95.5999 68.3796 96.26 69.7079C96.9201 71.0363 98.4383 71.7004 99.4944 70.8149Z" fill="#4733AC"/>
</svg>
