<svg width="236" height="298" viewBox="0 0 236 298" fill="none" xmlns="http://www.w3.org/2000/svg">
<path d="M3.92012 346.965C-0.477031 315.419 9.74473 282.465 30.8877 258.682C54.4564 232.173 89.2962 223.267 120.49 209.181C135.298 202.479 149.86 194.354 161.535 182.865C167.35 177.14 172.281 170.643 176.149 163.457C180.228 155.844 183.144 147.692 185.648 139.46C190.708 122.755 194.327 105.53 202.517 89.9588C210.063 75.6143 220.639 62.8715 233.276 52.7252C260.325 30.9908 296.409 22.5289 330.384 29.4365C334.707 30.3176 339.006 31.4565 343.237 32.719C344.038 32.9645 344.507 31.7655 343.694 31.4901C310.905 19.9264 272.47 25.1736 243.259 43.6672C229.786 52.2079 218.048 63.4314 208.914 76.5065C204.291 83.104 200.347 90.1813 197.166 97.5875C193.672 105.759 191.154 114.293 188.766 122.839C183.927 140.142 179.448 158.097 168.486 172.711C158.295 186.297 143.881 195.994 128.891 203.589C98.0634 219.209 62.2816 226.716 36.4991 251.048C13.5405 272.719 0.60703 304.532 1.93003 336.075C2.08583 339.784 2.47461 343.471 3.03906 347.131C3.10317 347.699 3.99856 347.535 3.92012 346.965Z" fill="url(#paint0_linear_1159_3118)"/>
<path d="M65.0079 315.444C61.4419 304.743 63.4978 293.165 68.7539 283.392C74.2037 273.232 82.8711 265.484 92.7082 259.646C113.282 247.445 137.438 243.362 158.363 231.9C168.522 226.337 177.328 218.962 184.326 209.721C191.177 200.669 196.29 190.406 200.474 179.872C209.76 156.49 214.375 131.272 226.336 108.954C236.334 90.2993 253.094 73.0195 274.738 69.2582C277.246 68.8207 279.785 68.5159 282.336 68.3999C282.887 68.3774 282.84 67.4495 282.294 67.429C260.814 66.9759 241.903 82.3437 230.481 99.3403C216.173 120.638 210.926 146.289 202.607 170.163C198.731 181.273 194.163 192.221 187.863 202.203C181.496 212.295 173.348 220.999 163.268 227.45C142.602 240.682 117.73 244.7 96.2124 256.166C86.1888 261.511 76.8677 268.507 70.4661 278.018C64.5326 286.821 60.8676 297.677 62.2562 308.353C62.587 310.924 63.2419 313.422 64.1622 315.858C64.3539 316.453 65.2009 316.024 65.0079 315.444Z" fill="url(#paint1_linear_1159_3118)"/>
<path d="M261.872 124.303C249.14 126.718 238.271 135.191 230.09 144.903C221.228 155.448 215.066 167.896 210.241 180.726C204.603 195.69 200.416 211.203 193.983 225.865C190.893 232.904 187.312 239.798 182.754 245.997C178.707 251.492 173.929 256.444 168.555 260.65C158.12 268.801 144.998 274.082 131.596 272.41C129.94 272.203 128.293 271.895 126.669 271.503C125.906 271.319 125.445 272.432 126.231 272.676C139.065 276.65 152.803 273.012 163.895 266.06C169.709 262.414 174.938 257.906 179.513 252.791C184.362 247.369 188.275 241.285 191.627 234.847C199.1 220.51 203.613 204.896 208.828 189.663C213.46 176.094 218.834 162.78 227.225 151.053C234.89 140.342 244.836 131.382 257.294 126.733C258.847 126.152 260.423 125.644 262.008 125.196C262.586 125.031 262.46 124.183 261.872 124.303Z" fill="url(#paint2_linear_1159_3118)"/>
<defs>
<linearGradient id="paint0_linear_1159_3118" x1="15.6521" y1="173.575" x2="328.432" y2="201.821" gradientUnits="userSpaceOnUse">
<stop stop-color="white"/>
<stop offset="0.6103" stop-color="#3F4541"/>
<stop offset="1" stop-color="#313C40"/>
</linearGradient>
<linearGradient id="paint1_linear_1159_3118" x1="72.7147" y1="182.695" x2="270.389" y2="200.546" gradientUnits="userSpaceOnUse">
<stop stop-color="white"/>
<stop offset="0.6103" stop-color="#3F4541"/>
<stop offset="1" stop-color="#9747FF"/>
</linearGradient>
<linearGradient id="paint2_linear_1159_3118" x1="133.442" y1="193.405" x2="254.985" y2="204.381" gradientUnits="userSpaceOnUse">
<stop stop-color="white"/>
<stop offset="0.6103" stop-color="#9747FF"/>
<stop offset="1" stop-color="#313C40"/>
</linearGradient>
</defs>
</svg>
