<svg width="30" height="28" viewBox="0 0 30 28" fill="none" xmlns="http://www.w3.org/2000/svg">
<path d="M14.9998 18.0909C17.2592 18.0909 19.0908 16.2593 19.0908 14C19.0908 11.7406 17.2592 9.90906 14.9998 9.90906C12.7405 9.90906 10.9089 11.7406 10.9089 14C10.9089 16.2593 12.7405 18.0909 14.9998 18.0909Z" stroke="#4733AC" stroke-width="1.5" stroke-miterlimit="10" stroke-linecap="round" stroke-linejoin="round"/>
<path d="M1.36353 15.2V12.8C1.36353 11.3818 2.52262 10.2091 3.95443 10.2091C6.42262 10.2091 7.43171 8.46365 6.1908 6.32274C5.48171 5.09547 5.90443 3.50001 7.14534 2.79092L9.50443 1.44092C10.5817 0.800013 11.9726 1.18183 12.6135 2.2591L12.7635 2.51819C13.9908 4.6591 16.009 4.6591 17.2499 2.51819L17.3999 2.2591C18.0408 1.18183 19.4317 0.800013 20.509 1.44092L22.8681 2.79092C24.109 3.50001 24.5317 5.09547 23.8226 6.32274C22.5817 8.46365 23.5908 10.2091 26.059 10.2091C27.4772 10.2091 28.6499 11.3682 28.6499 12.8V15.2C28.6499 16.6182 27.4908 17.7909 26.059 17.7909C23.5908 17.7909 22.5817 19.5364 23.8226 21.6773C24.5317 22.9182 24.109 24.5 22.8681 25.2091L20.509 26.5591C19.4317 27.2 18.0408 26.8182 17.3999 25.7409L17.2499 25.4818C16.0226 23.3409 14.0044 23.3409 12.7635 25.4818L12.6135 25.7409C11.9726 26.8182 10.5817 27.2 9.50443 26.5591L7.14534 25.2091C5.90443 24.5 5.48171 22.9046 6.1908 21.6773C7.43171 19.5364 6.42262 17.7909 3.95443 17.7909C2.52262 17.7909 1.36353 16.6182 1.36353 15.2Z" stroke="#4733AC" stroke-width="1.5" stroke-miterlimit="10" stroke-linecap="round" stroke-linejoin="round"/>
</svg>
