<svg width="33" height="40" viewBox="0 0 33 40" fill="none" xmlns="http://www.w3.org/2000/svg">
<path d="M28.254 5.76375L18.254 2.0183C17.2176 1.63648 15.5267 1.63648 14.4903 2.0183L4.49031 5.76375C2.56304 6.49103 0.999405 8.74557 0.999405 10.8001V25.5274C0.999405 27.0001 1.96304 28.9456 3.14486 29.8183L13.1449 37.291C14.9085 38.6183 17.7994 38.6183 19.563 37.291L29.563 29.8183C30.7449 28.9274 31.7085 27.0001 31.7085 25.5274V10.8001C31.7267 8.74557 30.163 6.49103 28.254 5.76375ZM17.7267 21.5819V26.3638C17.7267 27.1092 17.1085 27.7274 16.363 27.7274C15.6176 27.7274 14.9994 27.1092 14.9994 26.3638V21.5819C13.163 21.0001 11.8176 19.291 11.8176 17.2728C11.8176 14.7638 13.854 12.7274 16.363 12.7274C18.8721 12.7274 20.9085 14.7638 20.9085 17.2728C20.9085 19.3092 19.563 21.0001 17.7267 21.5819Z" fill="#044E54"/>
</svg>
