<svg width="36" height="36" viewBox="0 0 36 36" fill="none" xmlns="http://www.w3.org/2000/svg">
<path d="M34.9528 11.8964L34.4782 7.36366C33.7909 2.42185 31.5491 0.409119 26.7546 0.409119H22.8928H20.4709H15.4964H13.0746H9.1473C4.33639 0.409119 2.11094 2.42185 1.4073 7.41276L0.965481 11.9128C0.801845 13.6637 1.27639 15.3655 2.3073 16.6909C3.55094 18.3109 5.46548 19.2273 7.59275 19.2273C9.65457 19.2273 11.6346 18.1964 12.8782 16.5437C13.9909 18.1964 15.8891 19.2273 18 19.2273C20.1109 19.2273 21.96 18.2455 23.0891 16.6091C24.3491 18.2291 26.2964 19.2273 28.3255 19.2273C30.5018 19.2273 32.4655 18.2618 33.6928 16.56C34.6746 15.2509 35.1164 13.5982 34.9528 11.8964Z" fill="#044E54"/>
<path d="M16.9364 25.6255C14.8583 25.8382 13.2874 27.6055 13.2874 29.7V34.1837C13.2874 34.6255 13.6474 34.9855 14.0892 34.9855H21.8946C22.3364 34.9855 22.6964 34.6255 22.6964 34.1837V30.2728C22.7128 26.8528 20.7001 25.2328 16.9364 25.6255Z" fill="#044E54"/>
<path d="M33.3328 21.9273V26.8036C33.3328 31.32 29.6674 34.9855 25.151 34.9855C24.7092 34.9855 24.3492 34.6255 24.3492 34.1836V30.2727C24.3492 28.1782 23.711 26.5418 22.4674 25.4291C21.371 24.4309 19.8819 23.94 18.0328 23.94C17.6237 23.94 17.2146 23.9564 16.7728 24.0055C13.8601 24.3 11.651 26.7545 11.651 29.7V34.1836C11.651 34.6255 11.291 34.9855 10.8492 34.9855C6.33281 34.9855 2.66736 31.32 2.66736 26.8036V21.96C2.66736 20.8146 3.79645 20.0455 4.86009 20.4218C5.3019 20.5691 5.74372 20.6836 6.2019 20.7491C6.39827 20.7818 6.61099 20.8146 6.80736 20.8146C7.06918 20.8473 7.33099 20.8636 7.59281 20.8636C9.49099 20.8636 11.3564 20.16 12.8292 18.9491C14.2364 20.16 16.0692 20.8636 18.0001 20.8636C19.9474 20.8636 21.7474 20.1927 23.1546 18.9818C24.6274 20.1764 26.4601 20.8636 28.3255 20.8636C28.6201 20.8636 28.9146 20.8473 29.1928 20.8146C29.3892 20.7982 29.5692 20.7818 29.7492 20.7491C30.2564 20.6836 30.7146 20.5364 31.1728 20.3891C32.2364 20.0291 33.3328 20.8146 33.3328 21.9273Z" fill="#044E54"/>
</svg>
