<svg width="36" height="28" viewBox="0 0 36 28" fill="none" xmlns="http://www.w3.org/2000/svg">
<path d="M24.6685 2.07427L27.0856 6.90856C27.4113 7.57713 28.2856 8.21141 29.0228 8.34856L33.3942 9.06856C36.1885 9.53141 36.8399 11.5543 34.8342 13.5771L31.4228 16.9886C30.857 17.5543 30.5313 18.6686 30.7199 19.4743L31.697 23.6914C32.4685 27.0171 30.6856 28.32 27.7542 26.5714L23.657 24.1371C22.9199 23.6914 21.6856 23.6914 20.9485 24.1371L16.8513 26.5714C13.9199 28.3028 12.137 27.0171 12.9085 23.6914L13.8856 19.4743C14.0399 18.6514 13.7142 17.5371 13.1485 16.9714L9.73704 13.56C7.73133 11.5543 8.38276 9.53141 11.177 9.05141L15.5485 8.33141C16.2856 8.21141 17.1599 7.55999 17.4856 6.89141L19.9028 2.05713C21.2228 -0.548586 23.3485 -0.548585 24.6685 2.07427Z" fill="#D63434"/>
<path d="M11.9999 3.00002H1.71418C1.01132 3.00002 0.428467 2.41716 0.428467 1.7143C0.428467 1.01145 1.01132 0.428589 1.71418 0.428589H11.9999C12.7028 0.428589 13.2856 1.01145 13.2856 1.7143C13.2856 2.41716 12.7028 3.00002 11.9999 3.00002Z" fill="#D63434"/>
<path d="M6.85704 27H1.71418C1.01132 27 0.428467 26.4172 0.428467 25.7143C0.428467 25.0114 1.01132 24.4286 1.71418 24.4286H6.85704C7.5599 24.4286 8.14275 25.0114 8.14275 25.7143C8.14275 26.4172 7.5599 27 6.85704 27Z" fill="#D63434"/>
<path d="M3.42847 15H1.71418C1.01132 15 0.428467 14.4172 0.428467 13.7143C0.428467 13.0114 1.01132 12.4286 1.71418 12.4286H3.42847C4.13132 12.4286 4.71418 13.0114 4.71418 13.7143C4.71418 14.4172 4.13132 15 3.42847 15Z" fill="#D63434"/>
</svg>
