<svg width="237" height="237" viewBox="0 0 237 237" fill="none" xmlns="http://www.w3.org/2000/svg">
<rect width="237" height="237" rx="118.5" fill="#4733AC" fill-opacity="0.1"/>
<rect x="19" y="18" width="200" height="200" rx="100" fill="#4733AC" fill-opacity="0.1"/>
<rect x="39" y="38" width="160" height="160" rx="80" fill="#4733AC" fill-opacity="0.1"/>
<path d="M119 70C92.552 70 71 91.552 71 118C71 144.448 92.552 166 119 166C145.448 166 167 144.448 167 118C167 91.552 145.448 70 119 70ZM141.944 106.96L114.728 134.176C114.056 134.848 113.144 135.232 112.184 135.232C111.224 135.232 110.312 134.848 109.64 134.176L96.056 120.592C94.664 119.2 94.664 116.896 96.056 115.504C97.448 114.112 99.752 114.112 101.144 115.504L112.184 126.544L136.856 101.872C138.248 100.48 140.552 100.48 141.944 101.872C143.336 103.264 143.336 105.52 141.944 106.96Z" fill="#4733AC"/>
</svg>
