<svg width="32" height="32" viewBox="0 0 32 32" fill="none" xmlns="http://www.w3.org/2000/svg">
<path d="M24.2824 9.01893C24.1729 9.0033 24.0635 9.0033 23.9541 9.01893C21.5313 8.94077 19.6088 6.95567 19.6088 4.51728C19.6088 2.03199 21.6251 0 24.126 0C26.6113 0 28.6433 2.01636 28.6433 4.51728C28.6277 6.95567 26.7051 8.94077 24.2824 9.01893Z" fill="#4733AC"/>
<path d="M29.3779 19.851C27.6273 21.0233 25.1733 21.461 22.9068 21.164C23.5008 19.8823 23.8134 18.4599 23.829 16.9594C23.829 15.3963 23.4852 13.9114 22.8287 12.614C25.142 12.3014 27.596 12.7391 29.3623 13.9114C31.832 15.537 31.832 18.2098 29.3779 19.851Z" fill="#4733AC"/>
<path d="M6.94788 9.01893C7.05729 9.0033 7.16671 9.0033 7.27612 9.01893C9.69889 8.94077 11.6215 6.95567 11.6215 4.51728C11.6215 2.01636 9.6051 0 7.10419 0C4.6189 0 2.60254 2.01636 2.60254 4.51728C2.60254 6.95567 4.52512 8.94077 6.94788 9.01893Z" fill="#4733AC"/>
<path d="M7.11979 16.9593C7.11979 18.4755 7.44804 19.9135 8.04201 21.2109C5.83807 21.4454 3.54036 20.9764 1.85224 19.8667C-0.617413 18.2254 -0.617413 15.5526 1.85224 13.9113C3.52473 12.7859 5.88497 12.3326 8.10453 12.5827C7.46367 13.8957 7.11979 15.3806 7.11979 16.9593Z" fill="#4733AC"/>
<path d="M15.8261 21.6798C15.7011 21.6642 15.5604 21.6642 15.4197 21.6798C12.5437 21.586 10.2459 19.2258 10.2459 16.3185C10.2616 13.3487 12.6531 10.9415 15.6385 10.9415C18.6084 10.9415 21.0155 13.3487 21.0155 16.3185C20.9999 19.2258 18.7178 21.586 15.8261 21.6798Z" fill="#4733AC"/>
<path d="M10.7461 24.9154C8.38586 26.4941 8.38586 29.0888 10.7461 30.6519C13.4346 32.4494 17.8424 32.4494 20.5309 30.6519C22.8912 29.0732 22.8912 26.4785 20.5309 24.9154C17.8581 23.1179 13.4502 23.1179 10.7461 24.9154Z" fill="#4733AC"/>
</svg>
