<svg width="20" height="24" viewBox="0 0 20 24" fill="none" xmlns="http://www.w3.org/2000/svg">
<path d="M9.59999 0C6.45599 0 3.89999 2.556 3.89999 5.7C3.89999 8.784 6.31199 11.28 9.45599 11.388C9.55199 11.376 9.64799 11.376 9.71999 11.388C9.74399 11.388 9.75599 11.388 9.77999 11.388C9.79199 11.388 9.79199 11.388 9.80399 11.388C12.876 11.28 15.288 8.784 15.3 5.7C15.3 2.556 12.744 0 9.59999 0Z" fill="#4733AC"/>
<path d="M15.696 14.58C12.348 12.348 6.88801 12.348 3.51601 14.58C1.99201 15.6 1.15201 16.98 1.15201 18.456C1.15201 19.932 1.99201 21.3 3.50401 22.308C5.18401 23.436 7.39201 24 9.60001 24C11.808 24 14.016 23.436 15.696 22.308C17.208 21.288 18.048 19.92 18.048 18.432C18.036 16.956 17.208 15.588 15.696 14.58Z" fill="#4733AC"/>
</svg>
