<svg width="29" height="36" viewBox="0 0 29 36" fill="none" xmlns="http://www.w3.org/2000/svg">
<path d="M14.4001 0C9.6841 0 5.8501 3.834 5.8501 8.55C5.8501 13.176 9.4681 16.92 14.1841 17.082C14.3281 17.064 14.4721 17.064 14.5801 17.082C14.6161 17.082 14.6341 17.082 14.6701 17.082C14.6881 17.082 14.6881 17.082 14.7061 17.082C19.3141 16.92 22.9321 13.176 22.9501 8.55C22.9501 3.834 19.1161 0 14.4001 0Z" fill="#4733AC"/>
<path d="M23.544 21.87C18.522 18.522 10.332 18.522 5.27403 21.87C2.98803 23.4 1.72803 25.47 1.72803 27.684C1.72803 29.898 2.98803 31.95 5.25603 33.462C7.77603 35.154 11.088 36 14.4 36C17.712 36 21.024 35.154 23.544 33.462C25.812 31.932 27.072 29.88 27.072 27.648C27.054 25.434 25.812 23.382 23.544 21.87Z" fill="#4733AC"/>
</svg>
