<svg width="106" height="107" viewBox="0 0 106 107" fill="none" xmlns="http://www.w3.org/2000/svg">
<path d="M103.392 46.4828L96.2039 38.1314C94.8296 36.5457 93.7196 33.5857 93.7196 31.4714V22.4857C93.7196 16.8828 89.121 12.2842 83.5181 12.2842H74.5324C72.471 12.2842 69.4581 11.1742 67.8724 9.79996L59.521 2.61139C55.8738 -0.507182 49.901 -0.507182 46.201 2.61139L37.9024 9.85282C36.3167 11.1742 33.3038 12.2842 31.2424 12.2842H22.0981C16.4953 12.2842 11.8967 16.8828 11.8967 22.4857V31.5242C11.8967 33.5857 10.7867 36.5457 9.46527 38.1314L2.32956 46.5357C-0.736155 50.1828 -0.736155 56.1028 2.32956 59.75L9.46527 68.1542C10.7867 69.74 11.8967 72.7 11.8967 74.7614V83.7999C11.8967 89.4028 16.4953 94.0014 22.0981 94.0014H31.2424C33.3038 94.0014 36.3167 95.1114 37.9024 96.4857L46.2538 103.674C49.901 106.793 55.8739 106.793 59.5738 103.674L67.9253 96.4857C69.511 95.1114 72.471 94.0014 74.5853 94.0014H83.571C89.1738 94.0014 93.7724 89.4028 93.7724 83.7999V74.8142C93.7724 72.7528 94.8824 69.74 96.2567 68.1542L103.445 59.8028C106.511 56.1557 106.511 50.13 103.392 46.4828ZM74.8496 43.1528L49.3196 68.6828C48.5796 69.4228 47.5753 69.8457 46.5181 69.8457C45.461 69.8457 44.4567 69.4228 43.7167 68.6828L30.9253 55.8914C29.3924 54.3585 29.3924 51.8214 30.9253 50.2885C32.4581 48.7557 34.9953 48.7557 36.5281 50.2885L46.5181 60.2785L69.2467 37.55C70.7796 36.0171 73.3167 36.0171 74.8496 37.55C76.3824 39.0828 76.3824 41.62 74.8496 43.1528Z" fill="#4733AC"/>
</svg>
