<svg width="30" height="30" viewBox="0 0 30 30" fill="none" xmlns="http://www.w3.org/2000/svg">
<path d="M18.0841 20.4519H11.2659" stroke="#4733AC" stroke-width="1.5" stroke-miterlimit="10" stroke-linecap="round" stroke-linejoin="round"/>
<path d="M15.8999 2.0702L15.859 2.16565L11.9044 11.3429H8.01808C7.09081 11.3429 6.20445 11.5338 5.3999 11.8747L7.78627 6.17474L7.84081 6.03838L7.93627 5.8202C7.96354 5.73838 7.99081 5.65656 8.03172 5.58838C9.81808 1.45656 11.8363 0.515651 15.8999 2.0702Z" stroke="#4733AC" stroke-width="1.5" stroke-linecap="round" stroke-linejoin="round"/>
<path d="M23.25 11.6156C22.6364 11.4247 21.9818 11.3429 21.3273 11.3429H11.9045L15.8591 2.16564L15.9 2.07019C16.1045 2.13837 16.2954 2.23383 16.5 2.31565L19.5136 3.58383C21.1909 4.27928 22.3636 5.00201 23.0727 5.87474C23.2091 6.03837 23.3182 6.18837 23.4136 6.36565C23.5364 6.55655 23.6318 6.74746 23.6864 6.95201C23.7409 7.07474 23.7818 7.19746 23.8091 7.30655C24.1773 8.45201 23.9591 9.85656 23.25 11.6156Z" stroke="#4733AC" stroke-width="1.5" stroke-linecap="round" stroke-linejoin="round"/>
<path d="M27.9839 17.9978V20.6569C27.9839 20.9296 27.9703 21.2024 27.9567 21.4751C27.6976 26.2342 25.0385 28.6342 19.993 28.6342H9.35667C9.0294 28.6342 8.70212 28.6069 8.38849 28.566C4.05212 28.2796 1.73394 25.9614 1.44758 21.6251C1.40667 21.3114 1.37939 20.9842 1.37939 20.6569V17.9978C1.37939 15.2569 3.04303 12.8978 5.41576 11.8751C6.23394 11.5342 7.10667 11.3433 8.03394 11.3433H21.343C22.0112 11.3433 22.6658 11.4387 23.2658 11.616C25.9794 12.4478 27.9839 14.9842 27.9839 17.9978Z" stroke="#4733AC" stroke-width="1.5" stroke-linecap="round" stroke-linejoin="round"/>
<path d="M7.78625 6.17468L5.39989 11.8747C3.02716 12.8974 1.36353 15.2565 1.36353 17.9974V14.002C1.36353 10.1292 4.11807 6.89741 7.78625 6.17468Z" stroke="#4733AC" stroke-width="1.5" stroke-linecap="round" stroke-linejoin="round"/>
<path d="M27.9799 14.0014V17.9969C27.9799 14.9969 25.989 12.4469 23.2617 11.6287C23.9708 9.85596 24.1754 8.46505 23.8344 7.30596C23.8072 7.18323 23.7663 7.06051 23.7117 6.95142C26.2481 8.26051 27.9799 10.9469 27.9799 14.0014Z" stroke="#4733AC" stroke-width="1.5" stroke-linecap="round" stroke-linejoin="round"/>
</svg>
