<svg width="32" height="32" viewBox="0 0 32 32" fill="none" xmlns="http://www.w3.org/2000/svg">
<path d="M6.24392 19.7804C4.7766 19.7804 3.41854 20.2845 2.34147 21.1246C0.905368 22.2396 0 23.9656 0 25.8902C0 27.0358 0.327806 28.1203 0.905368 29.0367C1.98244 30.8086 3.96489 32 6.24392 32C7.82051 32 9.25661 31.4348 10.3493 30.4725C10.8332 30.0754 11.2547 29.5866 11.5825 29.0367C12.16 28.1203 12.4878 27.0358 12.4878 25.8902C12.4878 22.5145 9.69368 19.7804 6.24392 19.7804ZM9.47514 25.2334L6.15026 28.2425C5.93172 28.441 5.63513 28.548 5.35416 28.548C5.05757 28.548 4.76099 28.441 4.52684 28.2119L2.98147 26.6997C2.52879 26.2568 2.52879 25.5236 2.98147 25.0806C3.43415 24.6377 4.18342 24.6377 4.63611 25.0806L5.38538 25.8138L7.88295 23.5532C8.35124 23.1255 9.10051 23.1561 9.53758 23.6143C9.97466 24.0725 9.94344 24.8057 9.47514 25.2334Z" fill="#4733AC"/>
<path d="M21.6189 2.90215V8.70646H19.2774V2.90215C19.2774 2.48974 18.9028 2.29117 18.6531 2.29117C18.575 2.29117 18.497 2.30645 18.4189 2.337L6.04034 6.90407C5.21302 7.20956 4.68229 7.97329 4.68229 8.84393V9.86732C3.2618 10.906 2.34082 12.5709 2.34082 14.4497V8.84393C2.34082 7.02627 3.48034 5.40717 5.21302 4.76564L17.6072 0.183294C17.9506 0.0610982 18.3096 0 18.6531 0C20.214 0 21.6189 1.23723 21.6189 2.90215Z" fill="#4733AC"/>
<path d="M31.9996 19.0167V20.5441C31.9996 20.9565 31.6718 21.2926 31.2348 21.3078H28.9557C28.1284 21.3078 27.3791 20.7121 27.3167 19.9179C27.2699 19.4443 27.4572 19.0014 27.7694 18.6959C28.0504 18.4057 28.4406 18.2529 28.8621 18.2529H31.2192C31.6718 18.2682 31.9996 18.6042 31.9996 19.0167Z" fill="#4733AC"/>
<path d="M28.8462 16.6492H30.4384C31.297 16.6492 31.9994 15.9618 31.9994 15.1217V14.4496C31.9994 11.2878 29.3614 8.70642 26.1301 8.70642H8.2101C6.88327 8.70642 5.66571 9.13411 4.68229 9.86728C3.2618 10.9059 2.34082 12.5709 2.34082 14.4496V17.1685C2.34082 17.7489 2.96521 18.1155 3.52716 17.9322C4.40131 17.642 5.32229 17.4893 6.24327 17.4893C10.973 17.4893 14.8287 21.2621 14.8287 25.8902C14.8287 26.99 14.5321 28.1967 14.0638 29.2659C13.814 29.8158 14.2043 30.4726 14.813 30.4726H26.1301C29.3614 30.4726 31.9994 27.8912 31.9994 24.7294V24.4392C31.9994 23.5991 31.297 22.9117 30.4384 22.9117H29.0804C27.5819 22.9117 26.1458 22.0105 25.7555 20.59C25.4433 19.4291 25.8179 18.2988 26.5984 17.5656C27.176 16.9852 27.9721 16.6492 28.8462 16.6492ZM20.2921 16.3437H12.4872C11.8472 16.3437 11.3165 15.8243 11.3165 15.1981C11.3165 14.5718 11.8472 14.0525 12.4872 14.0525H20.2921C20.9321 14.0525 21.4628 14.5718 21.4628 15.1981C21.4628 15.8243 20.9321 16.3437 20.2921 16.3437Z" fill="#4733AC"/>
</svg>
