<svg width="32" height="32" viewBox="0 0 32 32" fill="none" xmlns="http://www.w3.org/2000/svg">
<path d="M32 17.0842V20.6864C32 21.6656 31.264 22.47 30.352 22.47H27.264C25.536 22.47 23.952 21.0886 23.808 19.2C23.712 18.0984 24.096 17.0667 24.768 16.3497C25.36 15.6853 26.176 15.3006 27.072 15.3006H30.352C31.264 15.3006 32 16.1049 32 17.0842Z" fill="white"/>
<path d="M21.408 19.4273C21.264 17.5913 21.872 15.7902 23.088 14.4787C24.112 13.3421 25.536 12.6776 27.072 12.6776H27.984C28.432 12.6776 28.8 12.2754 28.736 11.7858C28.304 8.39343 25.616 5.77048 22.4 5.77048H6.39999C2.864 5.77048 0 8.90053 0 12.765V25.0055C0 28.87 2.864 32 6.39999 32H22.4C25.632 32 28.304 29.3771 28.736 25.9847C28.8 25.4951 28.432 25.0929 27.984 25.0929H27.264C24.224 25.0929 21.664 22.6098 21.408 19.4273ZM17.6 15.8251H7.99999C7.34399 15.8251 6.79999 15.2481 6.79999 14.5137C6.79999 13.7792 7.34399 13.2022 7.99999 13.2022H17.6C18.256 13.2022 18.8 13.7967 18.8 14.5137C18.8 15.2306 18.256 15.8251 17.6 15.8251Z" fill="white"/>
<path d="M19.536 1.97596C19.952 2.44809 19.584 3.14754 18.976 3.14754H6.44799C4.704 3.14754 3.072 3.70711 1.712 4.66886C1.088 5.10602 0.239998 4.63389 0.543998 3.88197C1.44 1.59126 3.536 0 5.95199 0H14.944C16.8 0 18.448 0.716941 19.536 1.97596Z" fill="white"/>
</svg>
